<svg id="Layer_1" data-name="Layer 1" xmlns="http://www.w3.org/2000/svg" viewBox="0 0 95.56 25.09"><defs><style>.cls-1{fill:#fafbfb;}.cls-1,.cls-2,.cls-3,.cls-4,.cls-5{fill-rule:evenodd;}.cls-2{fill:#61cdfb;}.cls-3{fill:#20a0d8;}.cls-4{fill:#05658e;}.cls-5{fill:#052c3c;}.cls-6{font-size:18px;font-family:MyriadPro-Regular, Myriad Pro;}</style></defs><g id="logo"><g id="svgg"><path id="path0" class="cls-1" d="M16.57,9l-.52,0-.37,0a12.47,12.47,0,0,0-1.44.26l-.31.08-.15,0-.17.05-.18.06-.13.05A9.4,9.4,0,0,0,10,11.61c-.58.54-.62.59-.62.87a.39.39,0,0,1-.13.36,3.54,3.54,0,0,0-.34.5l-.11.18A5,5,0,0,0,8.5,14a1.85,1.85,0,0,1-.13.29.23.23,0,0,0,0,.11s0,.08,0,.08a.08.08,0,0,0,0,.07.19.19,0,0,1,0,.1A6,6,0,0,0,8,15.86v.32l-.16.14a1,1,0,0,0-.23.27l-.08.15v3.9l.08.15a.92.92,0,0,0,.62.45,2.84,2.84,0,0,0,.95,0s.06-.07.11-.11.31-.27.31-.33a.56.56,0,0,1,.19-.16c.33-.22.31-.06.31-1.92a11.74,11.74,0,0,0,0-1.68.7.7,0,0,0-.3-.29.46.46,0,0,1-.18-.16,1.07,1.07,0,0,0-.33-.34s-.06-.05-.06-.07-.07,0-.32,0c-.4,0-.41,0-.38-.21a4.82,4.82,0,0,1,.23-1.08.15.15,0,0,0,0-.08,1.75,1.75,0,0,1,.16-.42.11.11,0,0,0,0-.05,5.42,5.42,0,0,1,.66-1.14c.17-.24.2-.26.36-.26a.6.6,0,0,0,.41-.23,11.46,11.46,0,0,1,1-.9,5.92,5.92,0,0,1,.74-.46,0,0,0,0,0,0,0s0,0,.06,0l.28-.15c.05,0,.86-.39.9-.39l.11,0a8.55,8.55,0,0,1,1.34-.39l.35-.08.45-.07.44,0a10.48,10.48,0,0,1,2.24,0l.43,0,.44.07.38.08a9,9,0,0,1,4.47,2.38.67.67,0,0,0,.46.26c.14,0,.43.28.43.38l.11.18a6.14,6.14,0,0,1,.41.74.84.84,0,0,0,.07.16c.06.13.17.46.23.66s.14.7.16.91,0,.18-.34.18h-.3l-.2.17a1.25,1.25,0,0,0-.26.27.46.46,0,0,1-.2.19.82.82,0,0,0-.22.18l-.09.11v1.65c0,1.11,0,1.67,0,1.71a.82.82,0,0,0,.3.25.35.35,0,0,1,.17.17A.79.79,0,0,0,25,21l.2.18c.08.07.12.08.18.07.26,0,.29,0,.16.34a6.27,6.27,0,0,1-1.05,1.73l-.13.16a8.18,8.18,0,0,1-1,.94.38.38,0,0,0-.12.08,8.91,8.91,0,0,1-2.95,1.31l-.25.05c-.55.12-.64.12-.76,0s-.29-.26-1-.27c-1,0-1.24.11-1.24.68a.6.6,0,0,0,.39.65,6.41,6.41,0,0,0,1.58,0,.54.54,0,0,0,.32-.33c0-.1.07-.14.24-.16l.32-.05.28,0,.16,0,.19-.05c.23-.06.78-.22.9-.27l.15-.05s.78-.33,1-.44a8.71,8.71,0,0,0,2.08-1.56l.18-.19a5.3,5.3,0,0,0,.43-.57c0-.05.06-.08.08-.08s0,0,0,0a.08.08,0,0,1,0-.05s.34-.57.46-.81a4.06,4.06,0,0,0,.16-.39l.13-.39c0-.12.08-.15.15-.15a.88.88,0,0,0,.52-.41c.11-.19.12-.44.12-2.13,0-2.05,0-2.12-.35-2.38l-.14-.1,0-.33a4.91,4.91,0,0,0-.41-1.7,6.48,6.48,0,0,0-.53-1,.28.28,0,0,1,0-.09,1.53,1.53,0,0,0-.16-.22l-.17-.21v-.46L24.91,12a9.72,9.72,0,0,0-4.09-2.46l-.19-.06-.73-.19-.23,0c-.27-.06-.72-.13-1-.16l-.44,0a14.85,14.85,0,0,0-1.7,0m.12,3.57a7.92,7.92,0,0,0-1,.14,2.94,2.94,0,0,0-.5.13l-.12,0a6.49,6.49,0,0,0-2.57,1.56,5.3,5.3,0,0,0-.66.83s0,0,0,0a5,5,0,0,0-.66,1.5,5.38,5.38,0,0,0,0,2.46,3.31,3.31,0,0,0,.17.53,1.23,1.23,0,0,1,.09.22,5.79,5.79,0,0,0,.45.81L12,21c.11.15.22.28.38.46s.22.21.18.69-.09,1-.12,1.47l0,.33.14-.05a.8.8,0,0,1,.2-.05.11.11,0,0,0,.07,0s.05,0,.08,0l.1,0a1.16,1.16,0,0,1,.25-.08l.25-.08.22-.07.69-.22.18,0,.24-.07a.32.32,0,0,1,.27,0,6.41,6.41,0,0,0,1.2.27,9,9,0,0,0,1.8,0l.41-.07a6.83,6.83,0,0,0,2.55-1.08l.28-.21a6,6,0,0,0,1.19-1.3l0-.05s.31-.54.37-.68S23,20,23,19.92a3.27,3.27,0,0,0,.12-.32,1.45,1.45,0,0,1,.06-.19,5.65,5.65,0,0,0,0-2.65l-.07-.23c0-.08,0-.16-.06-.19a2.31,2.31,0,0,1-.12-.27,5.86,5.86,0,0,0-1.79-2.21L21,13.74a7.23,7.23,0,0,0-.64-.38,5.36,5.36,0,0,0-.67-.31l-.33-.12-.16,0a7.69,7.69,0,0,0-2.52-.27" transform="translate(-2.82 -3.65)"/><path id="path1" class="cls-2" d="M17.14,3.7a1.94,1.94,0,0,1-.75,0s0,0-.06,0-.16.07-.19,0a.06.06,0,0,0-.11,0s0,0-.35.1l-.16,0a.15.15,0,0,1-.11,0l-.06,0a.45.45,0,0,1-.32.09s0,0,0,0-.21.12-.25.09-.05,0-.06,0a0,0,0,0,1-.06,0s0,0,0,0-.08.07-.18.11L14,4.53l-.23.13-.15.09c-.07.06-.12.07-.12,0s-.07,0-.08,0a.11.11,0,0,1,0,.09,7,7,0,0,0-.94.81L12.21,6s0,0-.06.08-.05.08-.07.08-.07.06-.1.12a4,4,0,0,1-.28.43c0,.07-.36.62-.45.81l-.08.16a.16.16,0,0,0,0,.08.4.4,0,0,1-.06.13A.62.62,0,0,0,11,8a1.45,1.45,0,0,1-.07.23,7.39,7.39,0,0,0-.31,1.1c0,.09,0,.22-.06.3a6.5,6.5,0,0,0-.1,1.08,1.63,1.63,0,0,1-.05.46c0,.05,0,0,.36-.25A9.84,9.84,0,0,1,13.3,9.67l.13-.05.18-.06.17-.05.15,0,.31-.08a12.1,12.1,0,0,1,1.44-.26l.49-.06c.27,0,1.86,0,2.1,0l.44.06c.24,0,.69.1,1,.16l.23,0,.73.19.19.06A9.72,9.72,0,0,1,24.91,12l.17.18v.46l.17.21a1.53,1.53,0,0,1,.16.22.28.28,0,0,0,0,.09,5.58,5.58,0,0,1,.94,2.68l0,.33.14.1c.34.26.35.33.35,2.38s0,2.07-.23,2.29c0,0,0,0,0,0a.57.57,0,0,0,.14-.21l.09-.18V16.73l-.1-.17a.78.78,0,0,0-.23-.27l-.12-.1,0-.3a4.92,4.92,0,0,0-.09-.64,5.31,5.31,0,0,0-.19-.68l-.09-.28a.41.41,0,0,0-.07-.13s0,0,0-.05,0-.1-.22-.47a5.75,5.75,0,0,0-.5-.79c-.15-.2-.17-.23-.15-.32.05-.25-.05-.42-.6-.91a8.22,8.22,0,0,0-1.8-1.27l0,0a9.67,9.67,0,0,0-1.44-.65L21,9.6l-.28-.09a1.47,1.47,0,0,1-.25-.08l-.25-.06L20,9.3l-.32-.07-.33-.06-.65-.1a10.09,10.09,0,0,1,1.58,0c1,0,1.53.09,2,.15l.51.08a8.59,8.59,0,0,1,.89.18l.12,0c.44.1.59.14,1,.26l.57.18.14.05.21.07c.1,0,.23.09.28.11a11.9,11.9,0,0,1,2.38,1.28c.43.31.44.31.28,0a1.1,1.1,0,0,1-.09-.21s0,0,0,0-.05,0-.06-.07L28.33,11s0-.09,0-.11,0,0,0,0a0,0,0,0,1-.05,0,.08.08,0,0,0,0-.07s0,0,0-.07,0,0,0,0-.07-.05-.1-.11-.14-.23-.22-.34,0-.08,0-.09,0,0,0,0,0,0,0,0a.55.55,0,0,0-.09-.15.42.42,0,0,1-.09-.14l-.06-.09a.7.7,0,0,1-.13-.16.33.33,0,0,0-.09-.12.19.19,0,0,1-.06-.1s0-.08-.05-.08-.06,0-.09-.08l-.13-.18-.18-.22-.12-.15a1.05,1.05,0,0,1-.25-.33s0,0,0,0A.72.72,0,0,1,26.17,8l-.29-.31-.18-.19s-.28-.27-.6-.55-.57-.51-.57-.52a0,0,0,0,0,0,0A2.2,2.2,0,0,1,24,6.09L23.82,6a.22.22,0,0,1-.08-.1s0,0,0,0a1.56,1.56,0,0,1-.46-.29s0,0,0,0-.14,0-.14-.08a0,0,0,0,0,0,0,.84.84,0,0,1-.25-.12l-.23-.11s0,0,0,0a.31.31,0,0,0-.12-.07L22.26,5l-.1,0c-.06,0-.1-.05-.1-.07s0,0,0,0l-.2-.07-.67-.3a.24.24,0,0,1-.11-.06s0,0,0,0a.06.06,0,0,1-.06,0s0,0-.05,0a.52.52,0,0,1-.28-.08s0,0-.05,0H20.5a1,1,0,0,0-.22-.07.62.62,0,0,1-.17-.07s0,0,0,0A.9.9,0,0,1,19.7,4s0,0,0,0-.06,0-.12,0a.58.58,0,0,0-.18,0,.74.74,0,0,1-.19,0l-.19,0c-.05,0-.08,0-.08-.06s0,0,0,0-.21,0-.27,0-.06,0-.06,0a2.09,2.09,0,0,1-.78,0,1.12,1.12,0,0,0-.63,0M16.76,10h.46c.46,0,.6,0,.43,0a5.32,5.32,0,0,0-.89,0m-.66.05c-.1,0,0,0,.13,0s.08,0,0,0l-.15,0m2.11,0c.12,0,.23,0,.13,0l-.15,0c-.06,0-.06,0,0,0m-2.92.11h.06l.13,0s-.14,0-.19,0M21.7,11l.09,0,.09,0L21.79,11l-.09,0M12,11.36l-.09.06.11-.06c.13-.07.13-.07.1-.07a.31.31,0,0,0-.12.07m-.36.22a.77.77,0,0,0-.17.13l.16-.1a.79.79,0,0,0,.18-.13s0,0-.17.1m-1.81.12-.16.15.17-.14c.16-.14.18-.16.16-.16l-.17.15m1.43.15-.14.12.13-.1c.18-.13.19-.14.17-.14l-.16.12m11.91,0s0,0,.09.09l.1.07L23.28,12c-.08-.08-.1-.1-.1-.08m-12.41.39-.29.27.3-.26c.28-.24.32-.28.3-.28a3.29,3.29,0,0,0-.31.27m12.68-.16.17.14.16.13-.14-.14a.7.7,0,0,0-.18-.13h0m-14.13.3c0,.06,0,.08,0,0a.17.17,0,0,0,0-.1s0,0,0,.06m14.57.1.09.08.1.08L24,12.57c-.08-.07-.1-.09-.1-.07m-7.54.11c-.42.05-.52.07-.53.09l-.11,0a1.18,1.18,0,0,0-.36.08l-.26.08a6.49,6.49,0,0,0-.94.39l-.18.09a6.46,6.46,0,0,0-1.74,1.4l-.08.11a2.94,2.94,0,0,0-.26.34l-.07.1a4.69,4.69,0,0,0-.38.74s0,0,.05-.06a4.88,4.88,0,0,1,.37-.65s0,0,0,0a5.3,5.3,0,0,1,.66-.83,6.49,6.49,0,0,1,2.57-1.56l.12,0a2.94,2.94,0,0,1,.5-.13,7.36,7.36,0,0,1,3.48.13l.16,0,.33.12a5.36,5.36,0,0,1,.67.31,7.23,7.23,0,0,1,.64.38l.17.12A5.86,5.86,0,0,1,23,16.07l.07.16a1.82,1.82,0,0,1,.11.3l.07.23a5.65,5.65,0,0,1,0,2.65,1.45,1.45,0,0,0-.06.19,3.27,3.27,0,0,1-.12.32l-.06.15a4,4,0,0,1-.2.37,1.71,1.71,0,0,0-.14.3A6.92,6.92,0,0,0,23,20a1.16,1.16,0,0,1,.09-.21,1.14,1.14,0,0,0,.09-.3.12.12,0,0,1,0-.07s0-.05.05-.09a5,5,0,0,0,.06-2.25c-.07-.39-.08-.41-.11-.43a.12.12,0,0,1,0-.07A3.32,3.32,0,0,0,23,16a5.84,5.84,0,0,0-.88-1.32l-.16-.17a6.54,6.54,0,0,0-1.06-.87,4.06,4.06,0,0,0-.48-.26s0,0,0,0a7.94,7.94,0,0,0-1-.42,1.87,1.87,0,0,1-.25-.08,2.18,2.18,0,0,0-.36-.08l-.12,0a7.81,7.81,0,0,0-2.26-.09m8,.28a.16.16,0,0,0,.1,0c.06,0,.05,0,0,0s-.08,0-.07,0m-14.5,0H10s0,0,0,0-.08,0-.05,0m15,.24c.09.13.13.17.13.15a1,1,0,0,0-.17-.23s0,0,0,.08M25.75,15c0,.07.05.18.05.12a.19.19,0,0,0,0-.1s0,0,0,0m-17.16.27c0,.11,0,.13,0,0a.44.44,0,0,0,0-.09s0,0,0,.07m17.21,0,0,.12s0,0,0,0,0-.16,0-.07M8,15.6c0,.05,0,.07,0,0v-.09s0,0,0,0M8.5,16c0,.07,0,.09,0,.06a.24.24,0,0,0,0-.12s0,0,0,.06M8,16.06c0,.07,0,.09,0,.05V16s0,0,0,.08m17.06.2a2.09,2.09,0,0,0-.27.28.44.44,0,0,1-.17.16c-.34.2-.33.11-.31,2l0,1.63V17l.09-.11a1.16,1.16,0,0,1,.23-.19.32.32,0,0,0,.17-.15,1.25,1.25,0,0,1,.25-.28l.23-.2h.16c.11,0,.17,0,.19,0s-.05,0-.18,0h-.2l-.21.19M8.63,16.11a.54.54,0,0,0,.18,0h-.1c-.1,0-.13,0-.08,0m-1.1,2.57c0,1.07,0,1.51,0,1V17.71c0-.54,0-.1,0,1m2.59,0a7.11,7.11,0,1,0,0,.79c0-.44,0-1.16,0-1.59s0-.08,0,.8M10,20.41l0,.09.06-.06c0-.06.08-.11,0-.11l-.06.08m14.38.07a.25.25,0,0,0,.08.09l.08.06-.08-.08-.08-.09v0m.17.15.11.06.08,0s-.19-.11-.19-.09m.45.44.1.08.09.05s-.19-.15-.19-.13m-16.86.17.1,0s0,0,0,0l-.11,0s0,0,0,0m14,.08s-.05.08,0,.08l.07-.08s.06-.08.05-.08,0,0-.08.08m-9.67.3a.25.25,0,0,0,.09.08.25.25,0,0,0-.08-.09l-.08-.07.07.08m9.19.22c-.16.15-.24.23-.17.17a4.3,4.3,0,0,0,.47-.45s-.14.12-.3.28m4.29,0a4,4,0,0,1-.28.62s0,.08,0,.09A4.41,4.41,0,0,0,26,22a1.83,1.83,0,0,1,.07-.17.16.16,0,0,0,0-.12s0,0-.08.15m-.52-.09c-.05.12-.05.16,0,.05s0-.1,0-.12,0,0,0,.07m-.15.3a6.07,6.07,0,0,1-.83,1.27.59.59,0,0,1-.09.11,7.37,7.37,0,0,1-1.63,1.36c-.05,0-.08.06-.08.07s0,0,0,0a2,2,0,0,0-.38.23,7.11,7.11,0,0,0,.95-.57.38.38,0,0,1,.12-.08,8.18,8.18,0,0,0,1-.94l.13-.16a5.91,5.91,0,0,0,.9-1.4c.05-.12,0-.06-.08.09M12.57,22c0,.06,0,.08,0,0a.17.17,0,0,0,0-.1s0,0,0,.06m8.68.16c-.06.05-.1.09-.08.09l.12-.09c.13-.12.11-.12,0,0m-.39.29-.09.06.1-.05c.05,0,.09-.06.09-.07s0,0-.1.06m4.64.3-.06.09.06-.07c.06-.06.08-.1.06-.1s0,0-.06.08M20,22.93C20,23,19.93,23,20,23l.14-.06.09-.06-.14.06m-7.56.17s0,.07,0,0a.14.14,0,0,0,0-.09s0,0,0,.05m0,.23c0,.08,0,.11,0,.07a.33.33,0,0,0,0-.14s0,0,0,.07m4.16.2h.16s0,0-.08,0-.13,0-.08,0m1.06,0h.15s0,0-.09,0-.11,0-.06,0m-5.25.35c0,.05,0,.07,0,.05a.14.14,0,0,0,0-.09s0,0,0,0m11.76.47-.31.28.32-.28.31-.28s0,0-.32.28m-2.5,1c-.09,0-.16.07-.15.08a1.13,1.13,0,0,0,.32-.13s0,0-.17,0m-4.23.28s0,0,.05,0,.13,0,.06,0a.2.2,0,0,0-.11,0m1.47,0a.59.59,0,0,1,.37.26c.06.09.13.1.29.05s0,0-.08,0a.46.46,0,0,1-.16,0c0-.11-.36-.35-.51-.35s0,0,.09.05m-1.7.1c-.06.05-.12.1-.12.12s0,0,0,0l.15-.12c.07,0,.11-.08.1-.08a.45.45,0,0,0-.16.1m3.05.06c-.08,0-.08,0,0,0l.13,0c.07,0,0,0-.12,0m-.22.05c-.06,0-.06,0,0,0a.12.12,0,0,0,.1,0c.05,0,0,0-.09,0m-.25.05c-.08,0-.08,0,0,0a.18.18,0,0,0,.11,0c.05,0,0,0-.1,0M17,26.23c0,.11,0,.16,0,.1a.61.61,0,0,0,0-.19c0-.06,0,0,0,.09m.17.54.11.09s0,0-.08-.09l-.12-.09a.61.61,0,0,0,.09.09" transform="translate(-2.82 -3.65)"/><path id="path2" class="cls-3" d="M16.88,3.7s-.07,0-.2,0h-.14a1.59,1.59,0,0,0,.6-.06s0,0-.11,0-.14,0-.15,0m.89,0a1.58,1.58,0,0,0,.62.06s-.06,0-.15,0a.34.34,0,0,1-.17,0,.3.3,0,0,0-.17,0c-.13,0-.15,0-.13,0m-1.5.06s0,0-.06,0h.05c.08,0,.13-.1.06-.1a0,0,0,0,0-.05,0m2.31,0s.09.09.13.09,0,0,0-.05-.12-.07-.12,0M16,3.83s0,0,0,0a.07.07,0,0,0,.06,0s0,0-.08,0m2.95,0s.12.07.14,0,0,0,0,0-.05,0-.05,0,0,0,0,0,0,0,0,0m-3.23.07c-.06,0,0,.05.1,0s.06,0,0,0-.06,0-.13,0m3.51,0c-.05,0-.05,0,0,0s.19,0,.13,0a.14.14,0,0,0-.15,0m-3.7.06s0,0-.05,0,0,0,0,0,.13-.07.06-.07a0,0,0,0,0,0,0m4,0,.06,0s0,0,0,0a.08.08,0,0,0-.06,0s0,0,0,0M15.29,4s0,0-.11,0-.09,0-.09,0,0,0,.09,0,.18-.06.18-.09,0,0-.07,0m4.57,0c-.05,0-.05,0,0,0s.11,0,.11,0,0,0-.13,0M15,4.09s0,0-.08,0-.07,0-.07,0l0,0s0,0,0,0,.23-.06.23-.1,0,0,0,0,0,0,0,0m5.16,0s.05.06.17.09a1,1,0,0,1,.22.07c.08,0,.09,0,0,0a.21.21,0,0,0-.12,0,.11.11,0,0,1-.09,0s0,0-.08,0a.1.1,0,0,1-.1,0s0,0,0,0m.65.23s.11.06.14,0,0,0,0,0-.05,0-.05,0l0,0s0,0,0,0m-6.51.07a.12.12,0,0,0-.08,0s0,0,.07,0l.09,0h-.08m6.81,0s.2.11.2.06,0,0-.06,0a.1.1,0,0,1-.1,0s-.05,0,0,0m-7,.06a.19.19,0,0,1-.1.06c-.06,0-.09,0-.09,0s0,0-.06,0-.1,0-.13.1,0,0,0,0,.08-.07.32-.18a.29.29,0,0,0,.11-.08s0,0-.07,0m7.51.14s0,0,0,0l.18.09c.13.07.14.07.12,0s0,0-.09,0-.07,0-.07,0a0,0,0,0,0,0,0,.13.13,0,0,1-.07,0,.07.07,0,0,0-.07,0m.5.25s.14.11.17.08,0,0,0,0a.28.28,0,0,1-.09-.05s-.06,0-.06,0m-8.92.21c-.21.18-.25.24-.06.09s.31-.26.29-.26a1.29,1.29,0,0,0-.23.17M22.26,5s.18.13.2.11,0,0,0,0A.24.24,0,0,1,22.34,5s-.08,0-.08,0m.42.24.07,0c.06,0,.07,0,.06,0s-.13-.08-.13-.06m-9.87.15c-.05,0-.08.08-.07.08l.1-.08c.05,0,.09-.08.08-.08s-.06,0-.11.08m10.09,0c.06,0,.13,0,.13,0s0,0-.09,0-.09,0,0,0m.24.1s0,.06,0,.06,0,0,0,0,0,0-.07,0m.1.07a.46.46,0,0,0,.16.15c.12.07.13.07.07,0l-.1-.07s-.09-.06-.11-.11,0,0,0,0m-10.75.15c-.06.07-.11.1-.14.09s-.06,0-.06.07a.14.14,0,0,1-.11.13c-.07,0-.09,0-.08.09s0,.06-.06.07-.07,0-.07.09a.2.2,0,0,1-.06.11.3.3,0,0,0-.07.1.29.29,0,0,1-.09.11A6.73,6.73,0,0,0,11,7.81a5.63,5.63,0,0,0-.31.88c0,.06,0,.16-.06.22a4.71,4.71,0,0,0-.12.54c-.06.34-.08.47-.1.53a5.72,5.72,0,0,0,0,1.14c.05.06.05.05.07-.4a6.5,6.5,0,0,1,.1-1.08c0-.08,0-.21.06-.3A7.39,7.39,0,0,1,11,8.24,1.45,1.45,0,0,0,11,8a.62.62,0,0,1,.06-.14.4.4,0,0,0,.06-.13.16.16,0,0,1,0-.08l.08-.16c.09-.19.4-.74.45-.81A4,4,0,0,0,12,6.26c0-.06.08-.12.1-.12s.06,0,.07-.08,0-.08.06-.08l.21-.21a1.24,1.24,0,0,0,.18-.2s-.07,0-.11.1m11.12.12c.07,0,.1,0,.1,0s0,0-.08,0-.07,0,0,0m.19.14.2.15.3.22a.84.84,0,0,0,.2.13,0,0,0,0,1,0,0s0,.07.1.11.08.06.07,0l-.08-.07s-.06,0-.06-.08,0,0-.07-.06a.1.1,0,0,1-.07-.05l0,0a.3.3,0,0,1-.11-.06,1.35,1.35,0,0,0-.28-.2S24,6,24,6s0-.07-.06-.07a.27.27,0,0,1-.12,0c-.06,0-.06,0,0,0m1.09.87.11.08s-.15-.16-.18-.16,0,0,.07.08m.18.14a.83.83,0,0,0,.23.19L25.16,7c-.07-.06-.11-.09-.09-.06m.47.42a.3.3,0,0,0,.07.09l.19.18.12.1a.66.66,0,0,0-.1-.11.44.44,0,0,1-.11-.14s0,0,0,0a.2.2,0,0,1-.09-.06s0,0,0,0m.53.55a.66.66,0,0,0,.15.16l.12.12-.08-.1A.72.72,0,0,0,26.15,8s0,0,0,0,0,0,0,0-.06,0,0,0m.31.29s0,.09,0,.07,0-.09,0-.09l0,0m.14.22c.05.06.1.11.1.09s0-.06-.09-.12l-.11-.09.1.12m.14.13s.18.26.2.24,0,0,0,0a.05.05,0,0,1,0,0s0,0,0,0,0,0-.07-.07-.05-.06-.05,0M18.93,9c-.4,0-.41,0-.24,0l.62.1.33.06L20,9.3l.3.07.25.06a1.47,1.47,0,0,0,.25.08L21,9.6l.22.08a9.67,9.67,0,0,1,1.44.65l0,0a8.22,8.22,0,0,1,1.8,1.27c.55.49.65.66.6.91,0,.09,0,.12.15.32a5.75,5.75,0,0,1,.5.79c.19.37.22.42.22.47s0,.05,0,.05a.41.41,0,0,1,.07.13l.09.28a5.31,5.31,0,0,1,.19.68,4.92,4.92,0,0,1,.09.64l0,.3.12.1a.78.78,0,0,1,.23.27l.1.17v3.9l-.08.15a1.25,1.25,0,0,1-.18.24c-.06,0-.07.06,0,0s0,.24-.16.45a.81.81,0,0,1-.36.21c-.06,0-.1.06-.16.24s-.1.22-.16.33a.8.8,0,0,0-.09.22s0,0,0,0,0,0,0,0-.05,0-.06,0,0,.05,0,.05-.48,1-.91,1.51a6.28,6.28,0,0,1-.68.71l-.13.12h.12a5.08,5.08,0,0,0,.93-.18.23.23,0,0,1,.11,0,.66.66,0,0,0,.28-.08l.24-.08a6.54,6.54,0,0,0,3.76-3.47c.05-.12.11-.24.12-.26s.2-.56.29-.84c0-.1.08-.3.11-.43s.06-.28.07-.35a10,10,0,0,0,.15-2.56c0-.15,0-.42-.06-.6a6.19,6.19,0,0,0-.12-.77c0-.07-.05-.23-.07-.35-.06-.31-.19-.8-.23-.95a1.69,1.69,0,0,1-.08-.24c0-.08-.06-.2-.09-.29l-.09-.25a1,1,0,0,0-.06-.14l-.1-.25a6.85,6.85,0,0,0-.42-1,.39.39,0,0,1-.06-.18,0,0,0,0,0,0,0s-.05,0-.05,0a1.26,1.26,0,0,1-.37-.22,11.9,11.9,0,0,0-2.38-1.28c-.05,0-.18-.06-.28-.11L25.42,10l-.14-.05-.57-.18c-.4-.12-.55-.16-1-.26l-.12,0a8.59,8.59,0,0,0-.89-.18l-.51-.08a10,10,0,0,0-1-.09l-.47,0c-.07,0-1.34,0-1.8,0m8.11,0a.2.2,0,0,0,.11.11s0,0,.06.09,0,.08.07.08h0s0-.05,0-.09,0-.08,0-.08a.24.24,0,0,1-.11-.07S27,9,27,9.06m.35.46a.76.76,0,0,0,.08.11l.05,0,0,0a.76.76,0,0,0-.08-.11l-.05,0,0,0m.32.46s.06.08.08.08,0,0,0,0,0,0,0-.06a.08.08,0,0,0,0-.06s0,0,0,.06M17.09,10h.25c.07,0,0,0-.12,0s-.2,0-.13,0m10.69.07s0,.05.06.09.06.07.06.09.14.21.14.18a.05.05,0,0,0,0-.05,0,0,0,0,1,0-.05s0,0,0,0a0,0,0,0,1,0-.05s0,0,0,0a0,0,0,0,1,0,0,.1.1,0,0,0-.05-.07l0,0m-11.3.28-.38,0c-.43,0-.7.06-.87.09l-.36.07a10.17,10.17,0,0,0-1.39.39l-.14,0-.23.09-.24.09-.56.27a9.16,9.16,0,0,0-1.51,1l-.28.23v.12c0,.06,0,.19,0,.28a.59.59,0,0,0,0,.18s0,.06,0,.11a3.49,3.49,0,0,0,.11.59,1.53,1.53,0,0,1,.06.25c0,.17.21.75.24.82a.53.53,0,0,1,0,.15c.05.13.22.63.25.69s0,.09.05.13,0,.07,0,0a5.76,5.76,0,0,1,.39-.74l.07-.1a2.94,2.94,0,0,1,.26-.34l.08-.11A6.46,6.46,0,0,1,14,13.36l.18-.09a6.49,6.49,0,0,1,.94-.39l.26-.08a1.59,1.59,0,0,1,.34-.08l.14,0a7.64,7.64,0,0,1,2.78,0l.12,0a2.18,2.18,0,0,1,.36.08,1.87,1.87,0,0,0,.25.08,7.94,7.94,0,0,1,1,.42s0,0,0,0a4.06,4.06,0,0,1,.48.26,6.54,6.54,0,0,1,1.06.87l.16.17A5.84,5.84,0,0,1,23,16a3.32,3.32,0,0,1,.25.66.12.12,0,0,0,0,.07s0,0,.11.43a5,5,0,0,1-.06,2.25s0,.09-.05.09a.12.12,0,0,0,0,.07,1,1,0,0,1-.09.3l-.1.23c-.05.1-.13.27-.19.38a.41.41,0,0,0-.09.19s0,0,0,.05,0,0-.05,0,0,0,0,0c.06.28-1,1.59-1.67,2.08a7,7,0,0,1-1.17.68l-.18.09-.11,0-.15.06-.39.13c-.33.1-.36.11-.31.15l.72.32.48.18.24.07a3.19,3.19,0,0,0,.34.11l.18.06a10.7,10.7,0,0,0,1.17.23c.59.09.56.07.34.19s-.17.1-.15.1a2.8,2.8,0,0,0,.32-.17,1.47,1.47,0,0,1,.31-.17s0,0,0,0,0,0,.08-.07a7.37,7.37,0,0,0,1.63-1.36.59.59,0,0,0,.09-.11A5.87,5.87,0,0,0,25.32,22c.14-.27.15-.25,0-.23s-.27,0-.27,0-.08-.09-.17-.17a1.17,1.17,0,0,1-.22-.24.48.48,0,0,0-.2-.2,1.14,1.14,0,0,1-.23-.2l-.08-.1V19.13c0-1.81,0-1.86.15-1.82s0,0,0-.1.09-.37.33-.51a.43.43,0,0,0,.17-.15,1.39,1.39,0,0,1,.26-.28l.23-.2h.22c.15,0,.21,0,.2,0a1.35,1.35,0,0,1-.08-.32,3.53,3.53,0,0,0-.1-.43,1.83,1.83,0,0,1-.07-.23l-.05-.15a1.34,1.34,0,0,0-.06-.12c-.38-.88-.8-1.51-1-1.51a.65.65,0,0,1-.46-.24,8.49,8.49,0,0,0-2.17-1.6c-.18-.09-1-.43-1-.43l-.14,0a10,10,0,0,0-1.39-.39l-.34-.06c-.14,0-.64-.09-1.1-.13a11.16,11.16,0,0,0-1.25,0m11.7.31s0,.08,0,.06,0-.09,0-.09a.05.05,0,0,0,0,0m.16.31s.09.21.12.21,0,0,0,0,.1.26.13.22,0-.06-.05-.11a.13.13,0,0,1,0-.12s0-.05,0-.05-.06,0-.09-.1-.05-.09-.05-.08m-5.61.58.09.07.09,0-.09-.07-.09-.05m-11.82.58-.21.2.24-.2a1.2,1.2,0,0,0,.2-.19l-.23.19m12.75.15.22.18a1.07,1.07,0,0,0-.19-.18l-.22-.19.19.19m-13.09.16-.09.08.09-.07c.09-.07.11-.09.09-.09a.38.38,0,0,0-.09.08m13.91.46h.11s0,0-.06,0-.08,0-.05,0M10,20.52l-.09.08.09-.07c.09-.08.11-.1.09-.1a.66.66,0,0,0-.09.09m2.58,1.35c0,.05,0,.07,0,.05a.17.17,0,0,0,0-.1s0,0,0,.05m8.73.33-.1.1.11-.09c.1-.08.12-.11.1-.11l-.11.1m4.14.71c0,.05,0,.08,0,.08s0,0,.06-.08,0-.07,0-.07l-.06.07m-13,.79c0,.06,0,.09,0,.06a.24.24,0,0,0,0-.12s0,0,0,.06m11.72.71-.18.16.18-.15c.1-.09.19-.16.19-.17s0,0-.19.16m-2.64,1c-.09.05-.12.08-.05.05s.19-.09.15-.08l-.1,0m-.34.14c-.08,0-.13.06-.1.06l.06,0,.15-.06c.07,0,.1-.05.08-.05a.64.64,0,0,0-.19.07m-3.28.05h0m-.5,0-.08,0s.14,0,.18-.06,0,0-.1,0m1.61,0a1.13,1.13,0,0,1,.21.12l.1.09-.09-.09a.53.53,0,0,0-.29-.16s0,0,.07,0m1.33.14s0,0,0,0,.13,0,.06,0l-.1,0m-1,.13a.13.13,0,0,0,.11.05c.06,0,.06,0,0,0a.45.45,0,0,1-.12-.06s0,0,0,0m.51,0c-.08,0,0,0,.1,0s.06,0,0,0l-.12,0m-.26,0a.24.24,0,0,0,.12,0s0,0-.07,0-.09,0-.05,0m-2.58.3c0,.06,0,.09,0,.06a.24.24,0,0,0,0-.12s0,0,0,.06m.86.75h.69c.19,0,0,0-.35,0s-.54,0-.34,0" transform="translate(-2.82 -3.65)"/><path id="path3" class="cls-4" d="M16.52,3.69a.14.14,0,0,1-.07.06h.26a.25.25,0,0,0,.17,0c0-.06-.32-.06-.36,0m1.5,0,.05,0,.24,0h.16s-.07,0-.07,0,0,0-.22,0-.19,0-.16,0m-1.87,0s0,.06.05.06.07,0,.07,0-.09-.06-.12,0m2.53,0s.13.08.15,0h0a0,0,0,0,1-.05,0,0,0,0,0,0,0,0s0,0,0,0m-2.84,0c.07,0,.06.06,0,.07s-.05,0,0,0a.2.2,0,0,0,.14,0l.07-.05h-.13c-.07,0-.11,0-.08,0m3.1,0a.25.25,0,0,0,.16.05h0c-.08,0-.08-.05,0-.07s0,0-.09,0-.14,0-.1,0m-3.37.08c-.05.05,0,.05.1,0s.06,0,0,0a.18.18,0,0,0-.1,0m3.76,0c.08.05.15.05.09,0a.18.18,0,0,0-.1,0c-.05,0-.05,0,0,0m-3.94,0a0,0,0,0,0,0,0s.05,0,.05,0,0,0-.05,0,0,0,0,0m-.2.07s0,0,0,0,.08,0,.08,0,0,0-.1,0m4.54,0s.07,0,.13,0,0,0,0,0-.13,0-.13,0M15,4s0,0,0,0,0,0,0,0,0,0,0,0l0,0m5,0s0,0,.06,0,.06,0,0,0L20,4s0,0,0,0m-5.07,0s0,0-.05,0,0,0,0,0,.07,0,.07,0,0,0,0,0,0,0,0,0m5.23,0a0,0,0,0,0,0,0s0,0,0,0-.08-.06-.06,0m-5.44.06a0,0,0,0,0,0,0,0,0,0,0,0,0-.08,0,0,0,0,0,0,0m5.61,0a.19.19,0,0,0,.11,0c.05,0,.09,0,.09,0s0,0,.05,0,0-.05-.05-.07l-.09,0s0,0-.06,0-.05,0-.05,0m-5.75.06s.08,0,.08,0a0,0,0,0,0,0,0s0,0,0,0m-.08,0a.08.08,0,0,1-.08,0s-.05,0-.05,0,0,0-.08,0-.07,0-.07,0,.07,0,.13,0l.11,0c.06,0,.11-.07.07-.1s0,0,0,0m6.15,0a.1.1,0,0,0,0,0h.07s0,0,0,0-.09-.07-.09,0m.18,0a0,0,0,0,0,0,0,0,0,0,1,0,0-.08,0,0,0,0,0,0,0m.14.06s0,0,.05,0,0,0,0,0,0,0,0,0-.05,0-.05,0m-6.86.06a0,0,0,0,0,0,0l0,0s0,0,0,0-.05,0,0,0m7,0s0,0,.05,0,.07,0,.05,0-.1-.06-.1,0m-7,0s0,0-.07,0-.07,0-.07,0a0,0,0,0,0,0,0c.06,0,.16-.07.14-.1s0,0,0,0m7.23,0s0,0,.08.07.14,0,.05,0-.13-.08-.13,0m-7.49.12s0,0,0,0,0,0,0,0,0,0,0,0a0,0,0,0,0,0,0m7.73,0s0,0,.06,0a.06.06,0,0,1,.07,0,.08.08,0,0,0,.06,0l0,0s0,0,.06,0,.06,0,0,0a.15.15,0,0,0-.08,0,.14.14,0,0,1-.09-.05c-.05-.06-.14-.07-.14,0m-7.85.08s0,0-.06,0-.06,0-.06,0,0,0,.1,0a.07.07,0,0,0,0-.08s0,0,0,0m8.23.06s0,.06.06.08.09,0,.09,0,0,0-.06,0-.06,0-.07,0,0,0,0,0M13.21,5a.72.72,0,0,1-.17.13,1,1,0,0,0-.33.29s0,0,0,0-.16.1-.16.14a.62.62,0,0,1-.14.17s0,0,0,.06.06,0,.1-.07a8.18,8.18,0,0,1,.91-.79c.08,0,.1-.08,0-.07a.41.41,0,0,0-.18.12m8.88-.11s0,.05.08.08l.09,0,.07,0c.07,0,.24.14.37.21a.4.4,0,0,1,.13.07c.06.06.14.06.14,0s0,0-.07,0-.07,0-.09-.06,0-.07-.09,0-.07,0-.07,0,0,0-.06,0A.2.2,0,0,1,22.47,5a.16.16,0,0,0-.09,0,.12.12,0,0,1-.06,0,.17.17,0,0,0-.12-.05s-.09,0-.09,0,0,0,0,0m1,.56s.08.06.08,0a0,0,0,0,0,0,0s0,0,0,0m.2.1a.15.15,0,0,0,.11.11s0,0,0,0a.67.67,0,0,0,.22.13s0,0,0,0,0,0,0,0-.08,0-.13-.08-.09-.09-.12-.09-.06,0-.06,0,0,0,0,0m-11,.3a.08.08,0,0,0,0,.08s0,0,0,.05,0,0,0,0a.11.11,0,0,0,.11-.12s0,0,0,0m11.5,0s.09.08.14.08,0,0,0,0,0,0-.07,0a.12.12,0,0,1-.08,0s0,0,0,0M24,6s0,0,0,0a1.35,1.35,0,0,1,.28.2l.1.06a.07.07,0,0,1,.05,0,.08.08,0,0,0,.07,0c.05,0,.05,0,0,0s-.05,0-.05,0-.06-.07-.12-.13-.22-.17-.26-.17A.13.13,0,0,1,24,6s0,0,0,0M12,6.07a0,0,0,0,0,0,0s0,0,0,0,0,0,0,0,0,0,0,0m-.12.19s0,.06,0,.06,0,0,0,0,.11-.06.11-.11a0,0,0,0,0,0,0s0,0,0,.07m-.12.17c0,.05,0,.06-.18.05s-.11,0-.11,0-.06,0-.14,0-.13,0-.13,0a.58.58,0,0,1-.21,0,.44.44,0,0,0-.2,0s0,0-.09,0-.09,0-.09,0,0,0-.12,0-.12,0-.12,0,0,0-.14,0-.15,0-.15,0,0,0-.06,0-.06,0-.06,0,0,0-.1,0-.1,0-.1,0,0,0-.09,0-.09,0-.09,0,0,0-.07,0-.08,0-.09,0,0,0-.12,0-.11,0-.11,0,0,0-.05,0-.06,0-.06,0,0,0,0,0a0,0,0,0,0,0,0s0,0-.12,0-.12,0-.13,0,0,.07-.11.07-.09,0-.09,0a.05.05,0,0,1-.07,0,.1.1,0,0,0-.1,0,.22.22,0,0,1-.14,0c-.08,0-.1,0-.11.07s0,.06-.06.06-.05,0-.05,0,0,0-.11,0-.12,0-.12,0,0,0-.06,0-.08,0-.11.1-.09.09-.13.09A.11.11,0,0,0,7.4,8a.07.07,0,0,1-.09,0s-.06,0-.08.05a.19.19,0,0,1-.18.12S7,8.22,7,8.26s0,.05,0,0,0,0,0,0,0,0,0,0a.38.38,0,0,0-.2.16.18.18,0,0,1-.09.08s-.08,0-.08.06a0,0,0,0,1,0,0s-.06,0-.08.06a.25.25,0,0,1-.11.12c-.11.06-.15.1-.15.15a0,0,0,0,1,0,0s0,0,0,0,0,0,0,0a0,0,0,0,0,0,0s0,0-.07.05-.06,0-.06.07,0,0,0,0-.12.08-.11.12,0,.06,0,.09a.17.17,0,0,0-.07.09s0,0-.06.06a.08.08,0,0,0-.06.09s0,.08,0,.08,0,0,0,0,0,.05,0,.05a0,0,0,0,0,0,0s0,0,0,0,0,0,0,.06,0,.07,0,.07,0,0,0,.05,0,0,0,0-.05,0,0,.06a.06.06,0,0,1,0,.07s0,0,0,.07,0,.07,0,.07,0,0,0,0,0,.05,0,.05,0,0,0,.09,0,.09,0,.09S5,10.9,5,11s0,.12,0,.12,0,0,0,0a0,0,0,0,1,0,0s0,0,0,.18,0,.18,0,.19,0,0,0,.15,0,.13,0,.13,0,0,0,.2,0,.2,0,.21a1.67,1.67,0,0,0,0,.83s0,0,0,.21,0,.2,0,.2,0,0,0,.17,0,.17,0,.17,0,0,0,.17,0,.16,0,.16,0,0,0,.08,0,.08,0,.08,0,.05,0,.11,0,.1,0,.1,0,0,0,.08,0,.08,0,.08,0,0,0,.07,0,.09,0,.09.06.22,0,.25a.36.36,0,0,0-.1.11.27.27,0,0,1-.11.1s-.07,0-.06.08,0,.06,0,.06-.12.07-.14.15a.13.13,0,0,1-.08.1.06.06,0,0,0,0,.08s0,.07,0,.07a.07.07,0,0,0,0,0s0,.05-.06.07a.11.11,0,0,0-.06.1s0,.06,0,.06,0,0,0,0,0,.05,0,.05a.15.15,0,0,0-.12.13.21.21,0,0,1-.07.11s0,.06,0,.09a0,0,0,0,1,0,0s-.05,0-.05.05,0,0,0,0,0,0,0,.07,0,.06,0,.06,0,0,0,.07,0,.06,0,.06,0,0,0,0,0,0,0,0-.13.18-.11.23,0,.06,0,.06,0,0,0,.06,0,.07,0,.07,0,0,0,.06,0,.07,0,.07a0,0,0,0,0-.05.05.08.08,0,0,1,0,.07s0,.05,0,.09,0,.08,0,.08,0,0,0,.09,0,.09,0,.09,0,0,0,.08,0,.08,0,.08,0,0,0,.09,0,.09,0,.08,0,0,0,.11,0,.13,0,.13,0,0,0,.1,0,.09,0,.1,0,.05,0,.14,0,.13,0,.15,0,.05,0,.18,0,.15,0,.17,0,0,0,.18,0,.16,0,.16a5.38,5.38,0,0,0,0,1.5s0,0,0,.17,0,.16,0,.16,0,0,0,.17,0,.17,0,.16.07,0,0,.17,0,.1,0,.1,0,0,0,.08,0,.08,0,.09,0,0,0,.13,0,.12,0,.12,0,0,0,.08,0,.07,0,.07,0,0,0,0a.08.08,0,0,0,0,.07s0,0,0,.1,0,.1,0,.11,0,0,0,.05,0,0,0,0,0,0,0,.08,0,.08,0,.08,0,0,0,.05,0,.18.1.18,0,0,0,.06,0,.05,0,.05,0,0,0,.06,0,.07,0,.07a0,0,0,0,1,0,0,.07.07,0,0,0,0,.05s0,0,0,.07a.09.09,0,0,0,0,.1.12.12,0,0,1,.06.09,0,0,0,0,0,0,0s0,0,0,0a.15.15,0,0,0,.12.12s0,0,0,.05,0,.05,0,.05,0,0,0,.06,0,.06,0,.07.11.06.09.1.11.16.16.16.06.07.06.13.11.14.16.14a.12.12,0,0,1,.09.14s0,0,.05,0,0,0,0,0,0,0,0,.06.06.05.06.06.11.12.15.12.22.17.25.24,0,.05.06.05,0,0,0,0,.27.27.35.28a.19.19,0,0,1,.11.06.27.27,0,0,0,.17.13s.05,0,.05,0,.15.17.19.16.09,0,.15.1a.12.12,0,0,0,.1.05s.06,0,.06,0,.08.1.14.1a.13.13,0,0,1,.09.06A.27.27,0,0,0,7,27L7.1,27s0,0,.07,0,.08,0,.08,0,0,0,.06,0,.05,0,0,0,0,0,0,0,0,0,0,0,0,0,.05,0,.06,0,.06,0,0,0,.08,0,.08,0,.09,0a.05.05,0,0,0,0,0l.08.06a.17.17,0,0,0,.15.05c.06,0,.08,0,.08,0s0,0,0,0a0,0,0,0,1,.06,0,.08.08,0,0,0,.07,0s.06,0,.06,0,0,0,.06,0,.06,0,.06,0,0,0,.06,0,.06,0,.06,0,0,0,.07,0,.08,0,.09,0,0,0,.09,0,.08,0,.09,0a.08.08,0,0,0,.07,0s.06,0,.06,0,0,0,.09,0,.09,0,.09,0,.17.11.23.09.07,0,.08,0a.1.1,0,0,0,.08,0l.09,0s.06,0,.11,0,.08,0,.08,0,.05,0,.11,0,.12,0,.12,0,.06,0,.12,0,.1,0,.1,0,0,0,.08,0,.09,0,.09,0,.06,0,.14,0,.14,0,.15,0,.06,0,.11,0,.1,0,.12,0,0,0,.11,0a.19.19,0,0,1,.14,0,.51.51,0,0,0,.19,0c.12,0,.16,0,.16,0s0,0,.14,0,.13,0,.13,0,0,0,.23,0,.24,0,.26,0,.06,0,.2,0,.17,0,.19,0,.06,0,.23,0a.48.48,0,0,1,.25,0,31.4,31.4,0,0,0,3.22,0s.06,0,.23,0,.22,0,.23,0,.09,0,.22,0,.21,0,.24,0,.09,0,.28,0,.24,0,.24,0,0,0,.13,0,.13,0,.13,0,0,0,.16,0a.57.57,0,0,0,.22,0,.23.23,0,0,1,.17,0c.08,0,.11,0,.12,0s.05,0,.12,0,.1,0,.1,0,.08,0,.18,0,.17,0,.17,0l.1,0c.06,0,.11,0,.11,0s0,0,.09,0a.22.22,0,0,0,.13,0,.23.23,0,0,1,.15,0c.07,0,.1,0,.11,0s0,0,.09,0,.08,0,.08,0,0,0,.11,0,.12,0,.13,0,.05,0,.12,0,.11,0,.11,0,0,0,.06,0,.06,0,.06,0,0-.05.15,0,.08,0,.08,0,.05,0,.11,0,.1,0,.1,0,0,0,.06,0a.08.08,0,0,0,.07,0s0,0,.09,0,.07,0,.07,0,0,0,.08,0,.07,0,.07,0,.06,0,.12,0,.12,0,.12,0,0,0,0,0a.08.08,0,0,0,.06,0s0,0,.08,0,.05,0,.05,0,0,0,.08,0,.08,0,.09,0,.05,0,.09,0,.07,0,.07,0,0,0,.06,0,.06,0,.06,0,0,0,.1,0,.1,0,.1,0,0,0,.06,0,.06,0,.06,0,0,0,0,0a.08.08,0,0,0,.06,0s0,0,.08,0,.06,0,.06,0,0,0,.06,0,.05,0,.05,0,0,0,.06,0,.06,0,.06,0,0,0,.06,0,.06,0,.06,0,0,0,.07,0,.08,0,.08,0,0,0,0,0a.08.08,0,0,0,.06,0s0,0,.09,0,.07,0,.07,0,0,0,.05,0a0,0,0,0,0,0,0s0,0,.07,0,.14,0,.14-.08,0,0,.06,0,.06,0,.06,0,0,0,.05,0a.17.17,0,0,0,.12-.06.19.19,0,0,1,.12-.07.25.25,0,0,0,.12,0,.32.32,0,0,1,.13-.08s.08-.06.08-.08,0,0,.07,0,.07,0,.07,0,0,0,.05,0,.19-.11.19-.15,0,0,.06,0,.06,0,.06,0a.17.17,0,0,1,.1-.1l.06,0a.12.12,0,0,1,.1,0c.05,0,.06,0,.06,0s.13-.15.18-.13.12,0,.12-.09,0,0,.05,0a.11.11,0,0,0,.11-.05l.11-.11.1-.07a.15.15,0,0,1,.08,0s.05,0,.05,0,0,0,0,0a.07.07,0,0,0,.06-.05.09.09,0,0,1,.08-.05c.06,0,.14-.06.14-.1s.12-.14.17-.14a.42.42,0,0,0,.14-.08l.17-.14a.8.8,0,0,0,.13-.13.34.34,0,0,1,.12-.12l.07-.05a3.8,3.8,0,0,1,.47-.42s0,0,.05-.06a.17.17,0,0,1,.09-.08.11.11,0,0,0,.08-.07s0-.06.08-.07.23-.15.23-.19,0,0,0,0,0,0,0,0,.1-.2.16-.2.16-.1.15-.16,0,0,.06-.06.07,0,.07-.07a.43.43,0,0,1,.21-.23s0,0,0-.06a.11.11,0,0,1,.07-.09s.06,0,.05-.06a.19.19,0,0,1,.13-.17s.07,0,.07-.06a.17.17,0,0,1,.07-.09.09.09,0,0,0,0-.1,0,0,0,0,1,0-.07s0,0,0,0,0-.05.06-.07a.13.13,0,0,0,.06-.09,0,0,0,0,1,0,0s0,0,0-.06,0-.07.05-.09.08-.05.08-.08,0-.06,0-.06,0,0,0,0,0-.06,0-.06,0,0,0-.06,0-.07.06-.11a.13.13,0,0,0,.07-.12s0-.07,0-.07,0,0,0,0,0,0,0,0,0,0,0-.05a.07.07,0,0,1,0-.06s0,0,0-.08,0-.07,0-.07,0,0,0-.07,0-.06,0-.06.05,0,0-.05a.05.05,0,0,1,0-.07s.05,0,0-.08,0-.07,0-.08a.07.07,0,0,0,0-.05,0,0,0,0,1,0,0s0,0,0-.09,0-.09,0-.09,0,0,0-.08,0-.08,0-.08,0,0,0-.09,0-.09,0-.09,0-.05,0-.1,0-.11.05-.12,0,0,0-.11,0-.09,0-.09,0,0,0-.09,0-.09,0-.1,0-.05,0-.18,0-.17,0-.18a.12.12,0,0,0,.05-.12c0-.06,0-.12,0-.13s0-.07,0-.19,0-.19,0-.21a5.47,5.47,0,0,0,0-1.4s0-.08,0-.2,0-.16,0-.18,0-.05,0-.13,0-.11,0-.13-.05-.05,0-.19,0-.17,0-.18,0-.06,0-.1,0-.08,0-.08,0,0,0-.09,0-.09,0-.09,0,0,0-.1,0-.11,0-.11,0,0,0-.05,0-.05,0-.05,0-.06,0-.12,0-.12,0-.12,0,0,0-.05,0-.05,0-.05a0,0,0,0,1,0,0,.05.05,0,0,0,0-.05s0,0,0-.1a.11.11,0,0,0-.06-.11c-.05,0-.06,0-.05-.1s0-.07,0-.07,0,0,0-.05,0-.07-.06-.1a.17.17,0,0,1-.07-.11.29.29,0,0,0-.1-.16c-.08-.06-.11-.1-.09-.14a.11.11,0,0,0,0-.09.3.3,0,0,1-.07-.1.1.1,0,0,0-.07-.07c-.08,0-.13-.09-.13-.12s0,0-.06-.08a.22.22,0,0,1-.06-.1s0-.06-.07-.08a.14.14,0,0,1-.09-.08s0-.06,0-.06,0,0,0-.05,0-.1-.19-.18a.25.25,0,0,1-.15-.2s0,0-.06,0-.05,0-.05,0a1.07,1.07,0,0,0-.45-.39s-.05,0-.05-.07,0-.07,0-.07-.06,0,0,.17a6.85,6.85,0,0,1,.42,1l.1.25a1,1,0,0,1,.06.14l.09.25c0,.09.07.21.09.29a1.69,1.69,0,0,0,.08.24c0,.15.17.64.23.95,0,.12.06.28.07.35a6.19,6.19,0,0,1,.12.77c0,.18,0,.45.06.6A10,10,0,0,1,30,19.23c0,.07,0,.22-.07.35s-.08.33-.11.43c-.09.28-.27.79-.29.84s-.07.14-.12.26a6.54,6.54,0,0,1-3.76,3.47l-.24.08a.66.66,0,0,1-.28.08.23.23,0,0,0-.11,0,5.08,5.08,0,0,1-.93.18h-.12l.13-.12a6.28,6.28,0,0,0,.68-.71c.42-.49,1-1.5.91-1.5s0,0,0,0a0,0,0,0,1,0,0s0,0,0,0a0,0,0,0,1,0,0s0,0,0,0a6.82,6.82,0,0,1-.47.67l-.07.08A7.56,7.56,0,0,1,23.31,25l-.41.25c-.06,0-.1.07-.09.07a2.36,2.36,0,0,0,.4-.22c.12-.13.62-.26.62-.16a5.17,5.17,0,0,1-1.21.87,9.23,9.23,0,0,1-1.91.8l-.17.06c-.1,0-.87.19-1,.21s-.29,0-.33.16c-.12.34-.31.42-1.11.43s-1-.06-1.17-.35a1.14,1.14,0,0,1,0-.73l.05-.11,0,.15c.06.21.28.49.35.43s0,0-.06,0a.84.84,0,0,1-.2-1c.15-.26.34-.31,1.14-.31s.8,0,1,.22l.17.15h.15a6.65,6.65,0,0,0,.77-.15,8.64,8.64,0,0,0,.84-.25l.19-.06.14-.05.39-.17.38-.18.1-.07h-.1l-.51-.08a9.46,9.46,0,0,1-1.09-.22l-.18-.06a3.19,3.19,0,0,1-.34-.11l-.24-.07-.48-.18-.72-.32c-.05,0,0-.05.31-.15l.39-.13.15-.06.11,0,.18-.09A7,7,0,0,0,21,22.78c.65-.47,1.77-1.85,1.67-2.06,0,0,0,0,0,0a.12.12,0,0,1,0,.08l-.22.29a6,6,0,0,1-1.19,1.18L21,22.4a6.94,6.94,0,0,1-1.2.65.08.08,0,0,0-.06,0,5.88,5.88,0,0,1-.67.24,5,5,0,0,1-.73.15l-.34.06-.81,0c-.57,0-.66,0-.5,0a5.89,5.89,0,0,0,.77,0c.62,0,.61,0,.89.16a.26.26,0,0,0,.12.06s0,0,0,.07a7,7,0,0,1-3.45-.1,1.32,1.32,0,0,0-.27-.07s-1,.29-1.24.37l-.42.13-.58.18c-.32.11-.35.1-.33,0s0-.4.06-.76.06-.74.07-.86c.06-.47.05-.53-.13-.72a6.41,6.41,0,0,1-.7-1,1,1,0,0,0-.63-.56l-.33-.17a.76.76,0,0,0-.15-.08.42.42,0,0,1-.13-.08l-.11-.08v.3l-.08.09a1.18,1.18,0,0,1-.24.19.68.68,0,0,0-.21.2,1.56,1.56,0,0,1-.26.27l-.19.16H8.65c-.55,0-.63,0-.81-.17S7.75,21,7.75,21s.13.13.27.2a2.83,2.83,0,0,0,1.23,0s0,0,0,0a1,1,0,0,0,.34-.32.66.66,0,0,1,.16-.17.18.18,0,0,0,.09-.06s.05,0,.06.05a.54.54,0,0,1-.3.41.5.5,0,0,0-.21.19,1,1,0,0,1-.3.31.24.24,0,0,0-.1.1c0,.05,0,.05-.43.06-.66,0-1-.11-1.16-.48l-.09-.15V19.59c0-1.73,0-1.6-.23-1.84A11.63,11.63,0,0,1,6,16.37c-.18-.27-.21-.32-.41-.67-.35-.63-.38-.72-.29-.81a15.71,15.71,0,0,1,1.79-1.68L7.34,13l.17-.13.2-.15.43-.3A19.14,19.14,0,0,1,10,11.32l.2-.11c.2-.11.13,0-.27.34a3.24,3.24,0,0,0-.41.39l.14-.11.45-.4c.27-.23.3-.27.27-.31a5.74,5.74,0,0,1,0-1.14c0-.06,0-.19.1-.53a4.71,4.71,0,0,1,.12-.54c0-.06,0-.16.06-.22a8.52,8.52,0,0,1,.44-1.18,10.4,10.4,0,0,1,.53-.93c.11-.08.18-.2.12-.2s0,0,0,0m12.77,0s1,.89,1,.89,0,0,0,0a.13.13,0,0,1-.06-.09,1.07,1.07,0,0,0-.37-.33,0,0,0,0,1,0,0,.81.81,0,0,0-.27-.25.26.26,0,0,1-.12-.08s-.09-.06-.09,0m1,1a.08.08,0,0,0,.08,0s0,0,0,0-.05,0-.05,0l0,0s0,0,0,0m.11.09a.45.45,0,0,0,.09.11l.18.18a.3.3,0,0,0,.14.1s0,0,0,0S26,7.79,26,7.76s0-.06-.09-.12-.22-.17-.22-.14m.42.44s0,0,0,0l.1.11c.05.05.1.1.12.1s0,0,0,0-.05,0,0-.06,0-.07-.06-.11-.13-.08-.13,0m.31.32s.11.18.17.2a.05.05,0,0,1,0,0c0,.05.11.13.12.09s0-.12-.07-.12a.35.35,0,0,1-.17-.17c0-.05-.05-.08-.07,0m.33.41s0,0,0,.05a0,0,0,0,0,0,0s0,0,0,0a0,0,0,0,0,0,0s0,0,0,0,0,0,0,0a.33.33,0,0,1,.1.12c.09.12.14.15.14.08s0,0-.06-.06-.06,0-.06-.05,0,0,0,0a0,0,0,0,1,0,0A.14.14,0,0,0,27,8.84a.13.13,0,0,1-.06-.09.11.11,0,0,0-.11-.1s0,0,0,0m.48.61s0,.05,0,.05a0,0,0,0,0,.05,0s0,0-.05,0,0,0,0,0m.06.1s0,0,0,0,0,0,.06.07a.72.72,0,0,0,.11.15.3.3,0,0,1,.07.09.42.42,0,0,0,.15.21s0,0,0-.07,0-.06-.05-.06,0,0,0-.07,0-.06-.06-.08a.06.06,0,0,1-.06-.06.07.07,0,0,0,0-.06,0,0,0,0,1,0-.06.07.07,0,0,0,0-.08c-.05,0-.1-.05-.1,0m.44.61s0,0,0,0,0,0,0,0a0,0,0,1,0-.06,0m-11.45.07-.5.06A13.38,13.38,0,0,0,14,10.5a8.71,8.71,0,0,0-3.08,1.66,5.15,5.15,0,0,0-.72.67l.14-.12c.12-.13.15-.12.14.07a.63.63,0,0,0,0,.25c0,.06.05.23.07.39s.06.34.08.4.05.22.07.33.07.27.09.33.06.18.08.26S11,15,11,15s.08.24.11.34.07.2.09.23c.15.32.2.59.13.67a.58.58,0,0,0-.09.32s0,0,0,0a1.93,1.93,0,0,1,.08-.27c.09-.21.09-.24,0-.41s-.2-.56-.25-.69a.53.53,0,0,0,0-.15c0-.07-.2-.65-.24-.82a1.53,1.53,0,0,0-.06-.25,3.49,3.49,0,0,1-.11-.59c0-.05,0-.1,0-.11a.59.59,0,0,1,0-.18c0-.09,0-.22,0-.28v-.12l.28-.23a9.16,9.16,0,0,1,1.51-1l.56-.27.24-.09.23-.09.14,0a10.17,10.17,0,0,1,1.39-.39l.36-.07a12.24,12.24,0,0,1,2.45-.12c.47,0,1,.1,1.15.13l.34.06a10,10,0,0,1,1.39.39l.14,0s.82.34,1,.43a8.49,8.49,0,0,1,2.17,1.6.65.65,0,0,0,.46.24c.2,0,.57.55,1,1.51l.05.12.05.15c0,.05,0,.14.06.21s.07.26.11.44c.07.35.09.39.24.35s.08,0,.06-.1,0-.17-.05-.29a5.46,5.46,0,0,0-1-2.51l-.18-.24h-.14c-.19,0-.3-.09-.54-.34a8.2,8.2,0,0,0-1-.87l-.24-.17a8.86,8.86,0,0,0-1.15-.62c-.3-.13-.85-.35-.9-.35l-.14-.05-.26-.08-.3-.08a13.12,13.12,0,0,0-1.8-.31c-.23,0-1.63,0-1.83,0m11.51,0s0,0,0,0a0,0,0,0,1,0,0s0,0,0,0,0,0,0,0a0,0,0,0,0,0,.05,0,0,0,0,0,0,0s0,0,0,0,0,0,0,0a0,0,0,0,0,0,0s0,0,0-.05-.08-.07-.08,0m.18.27c.13.24.2.33.2.24a0,0,0,0,0,0,0s0,0,0-.05,0,0,0,0,0,0,0-.07,0-.06,0-.06,0,0,0,0m.23.4c0,.05.05.09.08.06s0,0,0-.05-.05,0-.05,0m.09.15c0,.05.06.09.06,0s0,0,0,0,0,0,0,0m.1.18c0,.05.05.08.07.08s0,0,0,0l0-.08a.08.08,0,0,0-.06,0s0,0,0,.07m.1.14s.08.17.12.14,0,0,0,0,0,0,0-.08,0-.08-.07,0m.09.24s0,0,0,0a0,0,0,0,0,0,0,0,0,0,0,0,0,0,0,0,0,0,0,0,0m.08.1a0,0,0,0,0,0,.07s0,0,0-.05,0-.07-.07,0m-19.4.75a.26.26,0,0,0,0,.12c0,.07,0,.06,0,0s0-.16,0-.07m-.07.44a6.89,6.89,0,0,0-.46.67s0,0,.12-.15l.27-.39c.18-.23.21-.3.07-.13m.54.18a1.37,1.37,0,0,0-.21.3.92.92,0,0,0,.14-.16c.09-.14.12-.15.22-.16h0a.21.21,0,0,0-.15,0m-.37.51a6.83,6.83,0,0,0-.36.67l.19-.31a4.29,4.29,0,0,1,.22-.37s0,0,0-.06,0,0-.07.07m-.73.16c0,.07-.07.14-.06.14s0,0,0,0a1.09,1.09,0,0,1,.08-.15s0-.08,0-.08a.44.44,0,0,0-.09.14m-.14.26a1.55,1.55,0,0,0-.14.35,1,1,0,0,0,.1-.2c.1-.21.13-.32,0-.15m.44.39c0,.07,0,.13,0,.13A.49.49,0,0,0,9,14.18s0,0-.06.09m-.62,0a.15.15,0,0,0,0,.08c0,.05,0,0,0,0s0-.1,0-.07m-.07.21a.37.37,0,0,1,0,.14c0,.09,0,.13,0,0s.09-.25.07-.25,0,0,0,.07m.51.25a3.85,3.85,0,0,0-.19.83s0-.1.08-.3.11-.42.13-.49a.58.58,0,0,0,.05-.17s0,0-.07.13m-.62.07a.09.09,0,0,0,0,.08c0,.07,0,.07,0,0s0-.1,0-.07m-.06.29a.51.51,0,0,0,0,.1s0,0,0-.07a.16.16,0,0,0,0-.1.25.25,0,0,0,0,.07M8,15.39a.44.44,0,0,0,0,.09s0,0,0-.07,0-.13,0,0m0,.39c0,.09,0,.23,0,.29a.38.38,0,0,1,0,.15s0,0,0,0,0-.13.06-.33,0-.4,0-.11m.56,0a1.15,1.15,0,0,0,0,.21v.13h.34c.29,0,.34,0,.36,0s.16.17.18.15l-.11-.11-.12-.11H8.54l0-.2c0-.2,0-.26,0-.11m-.83.63a.5.5,0,0,0-.14.17s0,0,.07,0a.8.8,0,0,1,.15-.17c0-.05.08-.09.07-.09a.7.7,0,0,0-.15.14m1.72-.08a.45.45,0,0,0,.09.11.76.76,0,0,1,.11.16s0,.08.1.1a1.07,1.07,0,0,1,.19.13c.06,0,.1.06.1.05a1,1,0,0,0-.26-.19.29.29,0,0,1-.11-.11c0-.08-.22-.29-.22-.25m1.76.37a.37.37,0,0,0,0,.09s0,0,0,0,0-.13,0-.06M7.47,17.81c0,1.4,0,2.61,0,2.74s0-.74,0-1.85,0-1.95,0-1.95,0,.48,0,1.06m3.66-.92a.24.24,0,0,0,0,.12s0,0,0,0,0-.15,0-.08m-.06.29a1.41,1.41,0,0,0,0,.2c0,.05,0,0,0-.08s0-.28,0-.12m13.09.19c-.05.07-.05.17-.05,1.76v1.69l.08.1a1.14,1.14,0,0,0,.23.2.48.48,0,0,1,.2.2,1.17,1.17,0,0,0,.22.24c.09.08.17.15.17.17s.4.06.46-.07c.15-.31.15-.38,0-.37s-.24,0-.24-.06a.3.3,0,0,0-.13-.11,1,1,0,0,1-.21-.2l-.15-.18-.25-.21-.17-.15V18.86c0-1.64,0-1.67-.14-1.49M11,17.66a6,6,0,0,0,0,.85,1.78,1.78,0,0,0,0-.44v-.51s0,0,0,.1m.05,1.12a1.1,1.1,0,0,0,0,.18c0,.05,0,0,0-.1s0-.24,0-.08m.17.76a1.16,1.16,0,0,0,.12.34s0,0,0,0l-.07-.21c0-.08-.06-.14-.06-.12m.33.8a.84.84,0,0,0,.15.26s0,0-.06-.12-.09-.17-.09-.14m-4,.47s.07.15.09.15,0,0,0-.08-.07-.1-.07-.07m4.31.08a3.73,3.73,0,0,0,.33.47l.11.12.15.16c.07.08.07.22,0,1,0,.26-.08,1-.1,1.26,0,.05,0,.1,0,.11a.86.86,0,0,0,0-.31c0-.32,0-.81.1-1.29,0-.13,0-.33,0-.45v-.21l-.13-.15a4.76,4.76,0,0,1-.5-.63s-.06-.08-.06-.05m14.67.23a1.51,1.51,0,0,1-.25.13c-.06,0-.11,0-.11,0a1.93,1.93,0,0,0-.06.2c-.07.23-.07.22,0,.22s.47-.27.58-.55,0-.16-.15,0M14.73,23.27c-.1,0-.16.06-.14.06a1.11,1.11,0,0,0,.29-.08s.15,0,.22,0a.44.44,0,0,0,.25.07q.09,0-.12-.06a.55.55,0,0,0-.5,0m-.46.14c-.12,0-.2.07-.18.07a1.1,1.1,0,0,0,.4-.13l-.22.06m1.19-.05.09,0c.06,0,.06,0,0,0s-.11,0-.09,0m.17,0a1.7,1.7,0,0,0,.45.09c.05,0,0,0-.16,0s-.31-.06-.29,0m.66.12.11,0c.08,0,.09,0,0,0s-.17,0-.15,0m-2.83.14-.3.11a.26.26,0,0,0,.12,0,2.43,2.43,0,0,1,.41-.14l.2-.07s-.09,0-.43.11m-.71.22c-.08,0-.13.05-.1.05a1.15,1.15,0,0,0,.28-.08s0,0-.18,0m9.76,1.62-.41.2a2,2,0,0,0-.35.17,8.42,8.42,0,0,0,.79-.35s.05,0,0,0l-.06,0m-1,.45c-.06,0-.06,0,0,0l.08,0s0,0-.09,0m-.15,0a.77.77,0,0,1-.23.08l-.27.08a1,1,0,0,1-.2.06c-.27.06-.4.1-.31.1a.19.19,0,0,0,.1,0s0,0,.08,0,1-.28.89-.29l-.06,0m-1.43.37c-.15,0-.21.05-.15.05a1.38,1.38,0,0,0,.43-.07c.09,0,0,0-.28,0m-.44.07a.24.24,0,0,0-.12.18.36.36,0,0,1-.1.14c-.06.06-.09.11-.08.11s.21-.21.23-.3a.16.16,0,0,1,.11-.1c.09,0,.06-.05,0,0m-.44.48a9.3,9.3,0,0,1-1.59,0c-.07,0-.07,0,0,0a5.86,5.86,0,0,0,1.67,0c.08-.05.05-.06,0,0" transform="translate(-2.82 -3.65)"/><path id="path4" class="cls-5" d="M16.39,3.7s0,0,.06,0a.08.08,0,0,0,.07,0s0,0-.05,0-.08,0-.08,0m2,0s0,0,.07,0,.08,0,.08,0,0,0-.08,0-.07,0-.07,0m.35,0s0,0,.06,0,.06,0,.06,0,0,0-.06,0-.06,0-.06,0m-3,0s0,.06.06.06.07,0,.07,0-.11-.06-.13,0m3.37,0c-.09,0-.06.06,0,.06s.08,0,.08,0-.05-.05-.12,0m-3.62.09s0,0,0,0,0,0,0,0,0,0,0,0,0,0,0,0m3.89,0s0,0,.05,0,0,0,0,0,0,0,0,0-.05,0-.05,0m.18,0a0,0,0,0,0,0,0s.05,0,.05,0,0,0-.05,0,0,0,0,0m.26.05s0,0,.05,0,0,0,0,0,0,0,0,0-.05,0-.05,0m-5,.11,0,0s.05,0,.05,0,0,0-.05,0,0,0,0,0m5.37,0,0,0a0,0,0,0,0,0,0s0,0,0,0,0,0,0,0m-5.81.17a0,0,0,0,0,0,0,.08.08,0,0,0,.06,0s0,0,0,0-.06,0-.06,0m6.33,0s0,0,0,0,0,0,0,0,0,0-.05,0,0,0,0,0m-6.45,0a0,0,0,0,0,0,0,0,0,0,1,0,0-.08,0,0,0,0,0,0,0m-.33.17s0,0,.05,0,0,0,0,0,0,0,0,0-.05,0-.05,0m8,.27s0,0,0,0a0,0,0,0,0,0-.08s0,0,0,0m.21.12s0,0,.05,0,.06,0,.06,0,0,0-.06,0-.05,0-.05,0M13.06,5c-.05.06,0,.08,0,0a.2.2,0,0,0,.05,0s-.05,0-.09,0m9.38,0s.12.08.14.07-.07-.1-.11-.1a0,0,0,0,0,0,0m.21.12s.06,0,.08,0,0,0,0,0a0,0,0,0,0,0,0m.17.1a0,0,0,0,0,.05,0,0,0,0,0,0,0-.08,0,0,0,0,0-.05,0m-10.4.37c-.07.06-.09.11,0,.11s0,0,.06-.06.05-.07.06-.07,0,0,0,0,0,0-.11,0m11.07,0c.06.06.1.08.1,0a.16.16,0,0,0-.12-.1s0,0,0,.07m.28.19s0,0,0,0,.05,0,.05,0,0,0-.05,0l0,0m-11.62.06,0,0,0,0s0,0,0,0,0,0,0,0M24,6s.11.08.14,0,0,0,0,0,0,0,0,0a0,0,0,0,0,0,0S24,6,24,6m-12.15.27s0,0,0,0,0,0,0,0,0,0,0,0,0,0,0,0m12.6.07a0,0,0,0,0,.08,0s0,0,0,0,0,0,0,0m-12.81.1s0,.06.1,0,.06-.06,0-.06-.08,0-.08,0m13,0s.15.15.17.14,0,0-.06-.09-.11-.08-.11,0m-13.18.07s0,0,0,0,.05,0,.05,0,0,0-.05,0,0,0,0,0m-.88.16s.11.06.11,0,0,0-.06,0-.06,0-.05,0m-.24.06s0,0,.06,0a0,0,0,1,0,0-.08s-.06,0-.06,0m-.39.12s0,0,0,0,0,0,0,0,0,0,0,0,0,0,0,0m-.23.05s0,0,.06,0l.06,0s0,0-.06,0-.06,0-.06,0M9.35,7A.05.05,0,0,0,9.4,7s0,0,0,0,0,0,0,0-.06,0-.05,0m-.42.16a0,0,0,0,0,0,0,0,0,0,1,0,0-.08,0,0,0,0,0,0,0m16.52,0a.58.58,0,0,0,.23.21c.05,0,0,0-.08-.13s-.15-.12-.15-.08m-16.77,0s0,.06,0,.06a0,0,0,0,0,0,0s0,0-.07,0m-.19.08a.05.05,0,0,0,0,0s0,0,0,0,0,0,0,0,0,0,0,0m17.26.16s.08.06.08,0a0,0,0,0,0,0,0s-.05,0,0,0M8,7.55s0,0,0,0-.15.07-.13.09a.24.24,0,0,0,.17,0s0,0,.05,0a0,0,0,0,0,0,0s0,0,0,0-.05,0-.05,0m18,.21s.06.1.1.1,0,0,0-.07-.07,0-.08,0M7.53,7.84s0,.06,0,.07.1,0,.13-.07,0-.07-.1,0M7.31,8l0,0s0,0,0,0,0,0,0,0,0,0,0,0m-.26.14L7,8.2h.07c.08,0,.17,0,.17-.1s-.1,0-.17,0m19.27-.05s0,.06,0,.06,0,0,0,0,0,0-.07,0m-19.4.18a0,0,0,0,0,0,0s0,0,0,0,0,0,0,0a0,0,0,0,0,0,0m19.59,0s.09.11.11.09,0,0,0,0a.07.07,0,0,1,0,0s0,0,0,0a0,0,0,0,0,0,0M6.63,8.49s0,0,0,0a0,0,0,0,0,0,0s.06,0,.11,0,0-.09,0-.09,0,0,0,0m20.12.12a0,0,0,0,0,0,0,0,0,0,1,0,0-.08,0,0,0,0,0,0,0M6.42,8.66a0,0,0,0,0,0,0,0,0,0,0,0,0-.08,0,0,0,0,0,0,0m-.14.11s0,.11,0,.11.12-.09.12-.12-.06,0-.11,0m20.61,0a.14.14,0,0,0,.06.08c.08.06.09,0,0-.08s-.08,0-.08,0m.12.18,0,0s0,0,0,0,0,0,0,0,0,0,0-.09-.08,0-.08,0M6.07,9a0,0,0,0,1,0,0,.15.15,0,0,0-.12.11,0,0,0,0,0,0,0,0,0,0,0,0,0,0,0,0,0,0,1,0,0s0,0,0,0,0,0,0,0a0,0,0,0,0,0,0l0,0a0,0,0,0,0,0,0m-.27.27s0,0,0,0,0,0,0,0-.08-.05-.08,0m-.14.19s0,.09,0,.09.13-.09.1-.11,0,0-.09,0m21.77,0s.08.06.08,0a0,0,0,0,0,0,0s0,0,0,0m.08.11a0,0,0,0,0,0,0s0,0,0,0,0,0,0,0a0,0,0,0,0,0,0M5.57,9.65s0,0,0,0,0,0,0,0a0,0,0,0,0,0,0,0,0,0,0,0,0,0m22.06.11s0,0,0,0,0,0,0,0,0,0,0,0,0,0,0,0M5.44,9.81c0,.06,0,.07,0,.07a.06.06,0,0,0,0-.06c0-.06,0-.06-.07,0m-.08.13a0,0,0,0,0,0,0,0,0,0,1,0,0-.08,0,0,0,0,0,0,0m-.12.21a0,0,0,0,0,0,0s0-.06,0-.07,0,0,0,0m-.06.1s0,0,.05,0,0,0,0-.07,0,0,0,0m-.06.14s0,0,0,0l0,0s0,0,0,0a0,0,0,0,0,0,0m23,0a0,0,0,0,0,0,0s0,0,0,0,0,0,0,0a0,0,0,0,0,0,0m.06.1a0,0,0,0,0,0,0s0,0,0,0,0,0,0,0a0,0,0,0,0,0,0m.12.21s0,0,0,0,0,0,0,0,0,0,0,0,0,0,0,0M5,10.8s0,0,0,0,0,0,0,0a0,0,0,0,0,0,0,0,0,0,0,0,0,0M28.37,11a0,0,0,0,0,0,0,0,0,0,1,0,0-.08,0,0,0,0,0,0,0M4.89,11s0,0,0,0a0,0,0,0,0,0-.08s0,0,0,0m5.34.17-.2.11a19.14,19.14,0,0,0-1.89,1.09l-.43.3-.2.15L7.34,13l-.28.22a15.71,15.71,0,0,0-1.79,1.68c-.09.09-.06.18.29.81.2.35.23.4.41.67a11.63,11.63,0,0,0,1.14,1.38c.24.24.22.11.23,1.84v1.54l.09.15c.2.37.5.49,1.16.48.38,0,.41,0,.43-.06a.24.24,0,0,1,.1-.1,1,1,0,0,0,.3-.31.5.5,0,0,1,.21-.19.54.54,0,0,0,.3-.41c0-.07,0-.08-.06-.05a.18.18,0,0,1-.09.06.66.66,0,0,0-.16.17,1,1,0,0,1-.34.32s0,0,0,0a2.83,2.83,0,0,1-1.23,0,1,1,0,0,1-.54-.66,38.53,38.53,0,0,1,.06-3.93.13.13,0,0,0,0-.08.72.72,0,0,1,.19-.22c.19-.16.2-.17.2-.3a6.71,6.71,0,0,1,.11-.82,2.21,2.21,0,0,0,0-.25,1.46,1.46,0,0,1,0-.17s0-.1.06-.17a3.53,3.53,0,0,1,.12-.35.84.84,0,0,0,.07-.18,7,7,0,0,1,.82-1.36c.09-.09.09-.11.07-.23s0-.33,0-.33,0,0,0,0a.08.08,0,0,1,0-.06l.14-.15A5.32,5.32,0,0,1,10,11.5c.35-.31.42-.4.22-.29m-5.49.23c0,.08,0,.1,0,.09a.12.12,0,0,0,0-.1c0-.06,0-.09,0-.09s0,0,0,.1m-.06.32a0,0,0,0,0,.05.05,0,0,0,0,0,0,0c0-.07-.09-.08-.09,0m24.13,0s0,0,0,0,0,0,0,0,0,0,0,0,0,0,0,0m-24.19.34c0,.06,0,.09,0,.08s0,0,0-.08a.11.11,0,0,0,0-.09s0,0,0,.09m24.69.1a0,0,0,0,0,0,0s0,0,0,0,0,0,0,0a0,0,0,0,0,0,0m.12.13c.06.1.21.18.21.12s-.08-.1-.12-.1,0,0,0,0,0,0,0,0,0,0,0,.06m-19.07.34a.69.69,0,0,1-.43.22c-.14,0-.15,0-.25.16l-.13.16a7.28,7.28,0,0,0-.53.94L9,14.33a1,1,0,0,0-.08.2l-.09.26a6.4,6.4,0,0,0-.23,1.08l0,.2h.63l.22.2a1.41,1.41,0,0,1,.26.29.29.29,0,0,0,.11.11,1,1,0,0,1,.26.19.17.17,0,0,0,.06.07c.09.09.09.14.09,1.68v1.45l.11.08a.42.42,0,0,0,.13.08.76.76,0,0,1,.15.08l.33.17a1,1,0,0,1,.63.56,6.41,6.41,0,0,0,.7,1c.18.19.19.25.13.72,0,.12,0,.51-.07.86s0,.69-.06.76,0,.14.33,0l.58-.18.42-.13c.19-.08,1.19-.37,1.24-.37a1.32,1.32,0,0,1,.27.07,7,7,0,0,0,3.45.1s0-.07,0-.07a.26.26,0,0,1-.12-.06c-.28-.18-.28-.18-.83-.16a5.18,5.18,0,0,1-1.27-.07.42.42,0,0,0-.16,0l-.31,0-.26-.06a.17.17,0,0,1-.1,0s-.05,0-.1,0l-.15,0-.11-.06a.28.28,0,0,0-.22,0,1.19,1.19,0,0,1-.3.08l-.09,0a1.42,1.42,0,0,1-.41.14l-.09,0a1.31,1.31,0,0,1-.27.1l-.43.14a.23.23,0,0,1-.11,0l-.11,0a2,2,0,0,1-.32.11.93.93,0,0,0-.18.06c-.13.05-.2,0-.2-.1s.08-1,.1-1.26c.07-.75.07-.89,0-1l-.15-.16-.13-.14c0-.05-.16-.22-.34-.49a1.05,1.05,0,0,1-.08-.13l-.1-.16a5.55,5.55,0,0,1-.41-.92c0-.08,0-.16-.06-.19a1.06,1.06,0,0,1,0-.18,6.61,6.61,0,0,1-.13-.74,5.52,5.52,0,0,1,.12-1.66c0-.16.09-.29.12-.42a.57.57,0,0,1,.07-.17c.07-.08,0-.35-.13-.67,0,0,0-.13-.09-.23S11,15.12,11,15s-.07-.22-.09-.3-.06-.2-.08-.26-.06-.21-.09-.33-.06-.26-.07-.33-.05-.24-.08-.4-.06-.33-.07-.39a.63.63,0,0,1,0-.25c0-.19,0-.2-.14-.07m19.4,0s0,0,0,0,0,0,.06.07.09.09.09,0-.12-.16-.16-.16,0,0,0,0M30,13s.06.11.09.11,0-.05,0-.09S30,12.92,30,13m-25.37.16c0,.06,0,.08,0,.08s0,0,0-.06-.09-.12-.09,0m25.49,0a.16.16,0,0,0,.12.1s0-.05,0-.09-.1-.05-.1,0M4.68,13.5s.07,0,.08,0,0,0,0,0-.05,0-.05,0m25.72,0a.3.3,0,0,0,.13.16s0,0,0,0,0,0,0,0,0,0,0-.06,0,0,0,0-.05,0-.05,0m-25.66.38c0,.06,0,.09,0,.09s0,0,0-.09,0-.09,0-.09,0,0,0,.09m25.87-.05a0,0,0,1,0,.06,0s0,0,0,0,0,0,0,0m.12.18a0,0,0,0,0,0,0,0,0,0,1,0,0-.08,0,0,0,0,0,0,0m.08.13s0,.06,0,.06.05,0,.05,0,0-.05-.07,0m.1.25s.08.06.08,0a0,0,0,0,0,0,0s0,0,0,0M5,14.54s0,0,0,0a0,0,0,0,0,0-.08s0,0,0,0M5,14.7s0,0,0,0a0,0,0,0,0,0-.08s0,0,0,0m26.1.13a0,0,0,0,0,0,0s0,0,0,0,0,0,0,0a0,0,0,0,0,0,0m-26,0s0,.05,0,0a0,0,0,0,0,0,0,.07.07,0,0,0,0,0s0,0,0,0M5,15s0,.09,0,.09.12-.07.12-.1S5.09,15,5,15m26.19.12s0,0,0,0,0,0,0,.05,0,0,0-.06,0-.09-.05-.09a0,0,0,0,0,0,.05m-26.3,0s0,.09,0,.09.09-.08.1-.11,0,0-.08,0m-.19.22s0,0,0,0a0,0,0,1,0,0-.06s0,0,0,0m-.14.17s0,.09,0,.09,0,0,0-.06,0-.09-.06,0m-.15.22s0,.05,0,.05a.07.07,0,0,0,0-.05,0,0,0,0,0,0,0s0,0,0,0m27,0a.12.12,0,0,0,0,.14s0,0,0-.09-.05-.12-.08-.05m-27.18.29a0,0,0,0,0,0,0,0,0,0,0,0,0,0s0,0,0,0a0,0,0,0,0,0,0m27.24,0s0,.07.05.07,0,0,0-.05,0-.07-.07,0m-27.3.06a0,0,0,0,0,0,0,0,0,0,1,0,0-.08,0,0,0,0,0,0,0m27.36.28s0,.13.05.13,0,0,0-.08,0-.11-.07,0m-27.6.11a0,0,0,0,0,0,0s0,0,0,0a0,0,0,0,0,0,0s0,0,0,0m-.11.21a0,0,0,0,0,0,0s0,0,0,0a.07.07,0,0,0,0,0s0,0,0,0m-.06.12s0,.05,0,.05,0,0,0-.05,0-.05,0-.05,0,0,0,.05m-.21.38a0,0,0,0,0,0,0c.05,0,0-.06,0-.08a0,0,0,0,0,0,0m-.06.11s0,.06,0,.06,0,0,0-.05-.09-.07-.09,0m-.06.14a0,0,0,0,0,.05,0,0,0,0,0,0,0,0s0-.06,0-.06a.06.06,0,0,0-.05.06m-.11.3s0,0,0,0,0,0,0,0,0,0,0,0,0,0,0,0M31.56,18c0,.05,0,.13,0,.14s0,0,0-.08,0-.11-.05-.06M3.27,18s0,0,0,0a0,0,0,0,0,0-.08s0,0,0,0m-.06.16s0,0,0,0a0,0,0,0,0,0,0s0,0,0,0,0,0,0,0m-.08.14a.06.06,0,0,0,.05.08s0,0,0-.05,0-.07-.08,0m-.07.29s0,0,0,0,0,0,0,0,0,0,0,0,0,0,0,0m28.38,0c-.05,0,0,.22,0,.22s.05,0,.05-.11a.68.68,0,0,0,0-.12h0M3,18.76a0,0,0,0,0,0,0,.06.06,0,0,0,0-.1,0,0,0,0,0,0,.05M2.94,19c0,.1.07.09.08,0s0-.07,0-.07-.05,0-.05.08M31.38,19s0,0,0,.06.08,0,.06,0,0,0-.05,0m-.09.21s0,0,0,0,.05,0,.05,0,0,0-.05,0,0,0,0,0M2.9,19.33s0,.11,0,.11.07-.08,0-.11H2.9m28.37,0c-.06,0-.05.14,0,.14s.05,0,.05-.08,0-.07,0-.07h0m-.1.26s0,0,0,0,0,0,0,0,0,0,0,0,0,0,0,0m-28.35.1c0,.05,0,.07.05.07s0,0,0-.06-.09-.09-.09,0M31.05,20a0,0,0,0,0,0,0s0,0,0,0,0,0,0,0a0,0,0,0,0,0,0m-.12.24s0,.06,0,.06a0,0,0,0,0,0,0s0-.05-.06,0m-.05.16s0,0,0,.06.07,0,.06,0,0,0-.05,0m-.09.15a0,0,0,0,0,0,0,0,0,0,1,0,0-.08,0,0,0,0,0,0,0m-.06.14a0,0,0,0,0,0,.05.05.05,0,1,0,0-.1,0,0,0,0,0,0,.05m-.18.34s0,.05,0,.05,0,0,0-.05,0-.05,0-.05,0,0,0,.05m-.13.18s0,.08,0,.08a0,0,0,0,0,0,0c0-.05,0-.07-.07,0m-27.6.19s0,.08,0,.07a.08.08,0,0,0,0-.07s0-.07,0-.07,0,0,0,.07m27.35.25s0,0,0,0,.05,0,.05,0,0,0-.05,0a0,0,0,0,0,0,0m-27.29,0c0,.05.07,0,.08,0s0,0,0,0a0,0,0,0,0-.05,0M30,21.87a.07.07,0,0,1,0,.06s0,.05,0,.07S30,22,30,22s0,0,0,0,0,0,0,0,0,0,0,0a0,0,0,0,0,0,0M3,21.94s0,.14,0,.14a0,0,0,0,0,0,0c0-.06,0-.11-.07-.09m0,.31a0,0,0,0,0,0,0,0,0,0,1,0,0-.08,0,0,0,0,0,0,0m26.64.06c0,.07,0,.11,0,.11a0,0,0,0,0,.05,0s0,0,0,0a0,0,0,0,0,0,0c0-.06-.07-.05-.12,0m-26.58.11a0,0,0,0,0,.09,0s0,0,0-.05,0,0,0,0m26.43.12a0,0,0,0,0,0,0,0,0,0,0,0,0,0s0,0,0,0a0,0,0,0,0,0,0m-.17.19c0,.05-.07.09-.06.1s.17-.11.17-.15,0,0-.11.05M3.27,23s0,.07,0,.07.06-.06,0-.1-.06,0-.06,0m25.84,0a0,0,0,0,0,.08,0,0,0,0,0,0-.08,0,0,0,0,0,0,0,0m-25.78.16s0,0,0,0a0,0,0,0,0,0,0s0,0,0,0,0,0,0,0m25.54.08-.06.09s.05,0,.09,0a.12.12,0,0,1,.08-.05,0,0,0,0,0,0,0c0-.06-.08-.05-.15,0m-25.49,0a0,0,0,0,0,.05,0,0,0,0,1,0,0-.08,0,0,0,0,0-.05,0m.06.17c0,.07.07.06.09,0a0,0,0,0,0,0,0,0,0,0,0,0-.05.05m.12.22a0,0,0,0,0,0,0,0,0,0,1,0,0-.08,0,0,0,0,0,0,0m24.9,0a.07.07,0,0,0,0,.06s0,0-.06,0a.16.16,0,0,0-.1.08s0,.06-.05.06a4.66,4.66,0,0,0-.48.41.65.65,0,0,1-.12.11c-.08.06-.1.11-.05.11a.38.38,0,0,0,.18-.15s.08-.09.1-.09a1.49,1.49,0,0,0,.24-.19l.22-.21s.08-.09.1-.09a.44.44,0,0,0,.17-.16s-.07,0-.12,0m-24.84.11a0,0,0,0,0,0,0,0,0,0,1,0,0-.08,0,0,0,0,0,0,0m.15.22s0,.05,0,.05.07-.07,0-.09-.06,0-.06,0m.29.46s.07,0,.08,0,0,0,0,0a0,0,0,0,0-.05,0m.06.1a0,0,0,0,0,0,0,0,0,0,1,0,0-.08,0,0,0,0,0,0,0m.12.15s0,0,.06,0,.06,0,0,0l0-.06h0s0,0,0,.06M27,24.88c-.08.06-.08.07,0,.07s.06,0,.06,0,0,0,0,0,0,0,0,0,0,0-.11,0m-22.57,0s.08.12.1.1,0-.13-.06-.13a0,0,0,0,0,0,0m19,.09a1.65,1.65,0,0,0-.26.15,4.49,4.49,0,0,1-.41.23s0,0,0,0a0,0,0,0,1,0,0l-.19.09a5.39,5.39,0,0,1-.81.36s0,0,0,0,0,0-.05,0-.07,0-.08,0a.13.13,0,0,1-.08,0,.34.34,0,0,0-.12,0,5.69,5.69,0,0,1-.87.25l-.08,0s-.06,0-.11,0l-.23,0-.32.05c-.25,0-.36.07-.36.13a.59.59,0,0,1-.23.31.3.3,0,0,0-.1.07,5.37,5.37,0,0,1-1.7,0,.67.67,0,0,1-.39-.47l0-.15-.05.11a1.14,1.14,0,0,0,0,.73c.15.29.37.36,1.17.35s1-.09,1.11-.43c0-.12,0-.12.33-.16s.94-.18,1-.21l.17-.06a9.23,9.23,0,0,0,1.91-.8A5.87,5.87,0,0,0,23.83,25s-.26,0-.36,0m3.28.09s0,0,0,0,.05,0,.05,0,0,0-.05,0,0,0,0,0m-22.07.08s.08.11.12.11,0,0,0-.09-.11-.06-.11,0m21.83.08s0,0-.07.05-.1.08-.05.08a.44.44,0,0,0,.18-.14s0,0,0,0a0,0,0,0,0,0,0m-.38.27a0,0,0,0,0,0,0s0,0,0,0,0,0,0,0,0,0,0,0m-21,.1a.7.7,0,0,0,.24.21s0-.05-.07-.15-.17-.12-.17-.06m20.78,0c-.08.05-.09.09,0,.09s.13-.06.13-.1,0,0-.11,0m-.23.16a.13.13,0,0,1-.07,0s0,0,0,0,0,0,0,0,.05,0,.05,0,0,0,.05,0,.08,0,0-.07-.05,0-.08,0m-.28.18s0,0,0,0,0,0,0,0,0,0,0,0,0,0,0,0m-.38.21a0,0,0,0,0,0,0c.05,0,.05-.06,0-.08s0,0,0,0m-19.21,0s.09.09.14.09,0-.06-.06-.08H5.8m.33.23a0,0,0,0,0,0,0s0,0,0,0a.07.07,0,0,0,0,0s0,0,0,0m18.45,0s0,0,0,0a0,0,0,0,0,0,0s0,0,0,0a.07.07,0,0,0-.05,0m-.19.12a0,0,0,0,0,0,0s.05,0,.05,0,0,0-.05,0a0,0,0,0,0,0,0m-18,0s0,.1.1.1,0,0,0-.09-.07,0-.09,0m17.89,0s0,0,0,0a0,0,0,0,0,0-.08s0,0,0,0m-.21.1s0,0,.05,0a0,0,0,0,0,0,0s0,0,0,0-.05,0-.05,0m-.24.09s0,.06,0,.06.05,0,.05,0-.07-.06-.09,0m-17,.08s0,0,0,0,0,0,0,0,0,0,0,0l0,0m16.75.07a0,0,0,0,0,.05,0,0,0,0,0,0,0-.08,0,0,0,0,0-.05,0m-.12.05a0,0,0,0,0,0,0,0,0,0,1,0,0-.08,0,0,0,0,0,0,0m-.12.05s0,0,.05,0a0,0,0,0,0,0,0,0,0,0,0,0,0,0,0,0,0,0,0-.05,0m-.24.09s0,.06,0,.06,0,0,0,0a0,0,0,0,0-.07,0m-15.44.15c-.06,0,0,.06,0,.06s.06,0,.06,0a0,0,0,0,0,0,0s0,0,0,0l0,0a.11.11,0,0,1-.07,0,.11.11,0,0,0-.07,0m15,0,0,0s0,0,0,0,0,0,0,0,0,0,0,0m-.28.12s0,0,0,0,.06,0,.06,0a0,0,0,0,0,0,0,.06.06,0,0,0-.06,0M8,27.45a0,0,0,0,0,.08,0,0,0,0,0,0-.08,0,0,0,0,0,0,0,0m14.21,0a0,0,0,0,0,.05,0,0,0,0,0,0,0-.08,0,0,0,0,0-.05,0m-14.08,0s0,.06,0,.06,0,0,0,0a0,0,0,0,0-.07,0m14,0s0,.06,0,.06a0,0,0,0,0,.05,0s-.06-.05-.09,0m-13.86.09s0,0,0,0l0,0s0,0,0,0,0,0,0,0m13.36.1s0,0,.05,0a0,0,0,1,0,0-.06s-.05,0-.05,0m-12.95,0s0,.06,0,.06.05,0,.05,0-.07-.06-.09,0m12.8,0s0,.06.05.06.08,0,.07,0a.09.09,0,0,0-.12,0m-12.63,0s0,.06,0,.06.06,0,.05,0a.06.06,0,0,0-.09,0m.13.09s0,0,0,0,0,0,0,0,0,0,0,0,0,0,0,0m12.15,0s0,0,.05,0,0,0,0,0,0,0,0,0-.05,0-.05,0m-.2,0s0,0,0,0,.12,0,.14,0,0-.06-.11,0m-11.77,0a0,0,0,0,0,.05,0s.06,0,.05,0a.08.08,0,0,0-.06,0,0,0,0,0,0,0,0m.31.08s0,.07,0,.07.06,0,0,0a.06.06,0,0,0-.09,0m11.09,0s0,.07,0,.07.06,0,.05,0a.06.06,0,0,0-.09,0m-.25.08a0,0,0,0,0,0,0,0,0,0,1,0,0-.08,0,0,0,0,0,0,0m-.16,0s0,.06,0,.06.05,0,.05,0-.05-.06-.07,0m-10.31,0s0,0,0,0,0,0,0,0,0,0,0,0l0,0m.21,0c-.07,0,0,.06,0,.06s.07,0,.07,0-.06-.05-.11,0m9.85,0c-.07,0,0,.06.06.06s.08,0,.07,0-.07-.05-.13,0m-9.62.09a0,0,0,0,0,0,0s.05,0,.05,0,0,0-.05,0,0,0,0,0m.17.05s0,0,0,0,0,0,0,0,0,0,0,0,0,0,0,0m9,0s0,0,.05,0,0,0,0,0l0,0s-.05,0-.05,0m-8.71,0s0,.06,0,.06.06,0,.06,0-.08-.06-.1,0m8.39,0s0,.06,0,.06.06,0,.06,0,0,0-.09,0m-8.17.1a0,0,0,0,0,.05,0s.06,0,0,0a.08.08,0,0,0-.06,0,0,0,0,0,0,0,0m7.92,0s0,0,0,0,.06,0,.06,0a0,0,0,0,0,0,0,.08.08,0,0,0-.06,0m-7.67,0s0,.06.12.06.09,0,.05,0l-.08,0s-.06,0-.09,0m7.37,0c-.05,0-.05,0,0,0a.19.19,0,0,0,.12-.05s-.09,0-.16,0m-7,0s0,.06,0,.06a0,0,0,0,0,0,0s0,0-.06,0m6.61,0a0,0,0,0,0,.05,0,0,0,0,0,0,0-.08,0,0,0,0,0-.05,0m-6.37.06s0,0,.05,0,0,0,0,0a0,0,0,0,0,0,0s-.05,0-.05,0m6.11,0s0,0,0,0,0,0,0,0,0,0,0,0a0,0,0,0,0,0,0m-5.81.05s0,0,.15,0,.18-.06,0-.08-.13,0-.13,0m5.31,0c-.08,0,0,.06.1.06s.13,0,.12,0-.15-.05-.22,0m-4.73.05s0,.06,0,.06,0,0,0,0-.07-.06-.09,0m4.29,0c-.06,0,0,.06,0,.06s.07,0,.07,0-.06-.05-.11,0m-3.85.05s0,.06.07.06.1,0,0,0-.08-.05-.11,0m3.36,0s0,.06.07.06.09,0,.08,0-.12-.06-.15,0" transform="translate(-2.82 -3.65)"/></g></g><text class="cls-6" transform="translate(34.91 17.69)">vHelp</text></svg>