<?xml version="1.0" encoding="utf-8"?>
<!-- Generator: Adobe Illustrator 25.2.1, SVG Export Plug-In . SVG Version: 6.00 Build 0)  -->
<svg version="1.1" id="Layer_1" xmlns="http://www.w3.org/2000/svg" xmlns:xlink="http://www.w3.org/1999/xlink" x="0px" y="0px"
	 viewBox="0 0 96 32" style="enable-background:new 0 0 96 32;" xml:space="preserve">
<style type="text/css">
	.st0{clip-path:url(#SVGID_2_);}
	.st1{fill:#1878C6;}
	.st2{fill:none;}
	.st3{fill:#FFFFFF;}
	.st4{font-family:'MyriadPro-Regular';}
	.st5{font-size:18px;}
	.st6{fill-rule:evenodd;clip-rule:evenodd;fill:#FAFBFB;}
	.st7{fill-rule:evenodd;clip-rule:evenodd;fill:#61CDFB;}
	.st8{fill-rule:evenodd;clip-rule:evenodd;fill:#20A0D8;}
	.st9{fill-rule:evenodd;clip-rule:evenodd;fill:#05658E;}
	.st10{fill-rule:evenodd;clip-rule:evenodd;fill:#052C3C;}
</style>
<g>
	<defs>
		<rect id="SVGID_1_" width="96" height="32"/>
	</defs>
	<clipPath id="SVGID_2_">
		<use xlink:href="#SVGID_1_"  style="overflow:visible;"/>
	</clipPath>
	<g class="st0">
		<path class="st1" d="M16,13.2"/>
	</g>
	<g class="st0">
		<rect x="37" y="9" class="st2" width="60.7" height="17.4"/>
		<text transform="matrix(1 0 0 1 37.0091 21.7833)" class="st3 st4 st5">vHelp</text>
	</g>
</g>
<g id="logo_1_">
	<g id="svgg_1_">
		<path id="path0_1_" class="st6" d="M16.6,9.2c-0.2,0-0.5,0-0.5,0c0,0-0.2,0-0.4,0c-0.4,0-1,0.2-1.4,0.3c-0.1,0-0.2,0.1-0.3,0.1
			c-0.1,0-0.1,0-0.1,0c0,0-0.1,0-0.2,0.1c-0.1,0-0.2,0-0.2,0.1c0,0-0.1,0-0.1,0.1c-1.2,0.4-2.4,1.1-3.3,1.9
			c-0.6,0.5-0.6,0.6-0.6,0.9c0,0.2,0,0.2-0.1,0.4c-0.1,0.2-0.2,0.3-0.3,0.5c0,0.1-0.1,0.2-0.1,0.2c-0.1,0.1-0.2,0.4-0.3,0.5
			c0,0.1-0.1,0.2-0.1,0.3c0,0,0,0.1,0,0.1c0,0,0,0.1,0,0.1c0,0,0,0,0,0.1c0,0,0,0.1,0,0.1c-0.1,0.1-0.2,0.9-0.2,1.2l0,0.3l-0.2,0.1
			c-0.1,0.1-0.2,0.2-0.2,0.3l-0.1,0.1l0,2l0,2L7.7,21c0.1,0.2,0.3,0.4,0.6,0.5c0.2,0,0.9,0,0.9,0c0,0,0.1-0.1,0.1-0.1
			C9.5,21.2,9.7,21,9.7,21c0,0,0.1-0.1,0.2-0.2c0.3-0.2,0.3-0.1,0.3-1.9c0-1.2,0-1.6,0-1.7c-0.1-0.1-0.2-0.2-0.3-0.3
			c-0.1,0-0.1-0.1-0.2-0.2c-0.1-0.1-0.2-0.3-0.3-0.3c0,0-0.1-0.1-0.1-0.1c0,0-0.1,0-0.3,0c-0.4,0-0.4,0-0.4-0.2
			c0.1-0.4,0.2-1,0.2-1.1c0,0,0,0,0-0.1c0-0.1,0.1-0.4,0.2-0.4c0,0,0,0,0-0.1c0-0.1,0.4-0.8,0.7-1.1c0.2-0.2,0.2-0.3,0.4-0.3
			c0.1,0,0.2-0.1,0.4-0.2c0.2-0.2,0.9-0.8,1-0.9c0.4-0.3,0.7-0.5,0.7-0.5c0,0,0,0,0,0c0,0,0,0,0.1,0c0.1,0,0.2-0.1,0.3-0.1
			c0.1,0,0.9-0.4,0.9-0.4c0,0,0.1,0,0.1,0c0.2-0.1,1-0.3,1.3-0.4c0.1,0,0.3-0.1,0.4-0.1c0.1,0,0.3-0.1,0.4-0.1c0.2,0,0.4,0,0.4-0.1
			c0.5-0.1,1.7-0.1,2.2,0c0.1,0,0.3,0,0.4,0.1c0.1,0,0.3,0,0.4,0.1c0.1,0,0.3,0.1,0.4,0.1c1.6,0.3,3.3,1.2,4.5,2.4
			c0.2,0.2,0.3,0.2,0.5,0.3c0.1,0,0.4,0.3,0.4,0.4c0,0,0.1,0.1,0.1,0.2c0.1,0.2,0.3,0.6,0.4,0.7c0,0.1,0.1,0.1,0.1,0.2
			c0.1,0.1,0.2,0.5,0.2,0.7c0,0.1,0.1,0.7,0.2,0.9c0,0.2,0,0.2-0.3,0.2l-0.3,0l-0.2,0.2c-0.1,0.1-0.2,0.2-0.3,0.3
			c0,0.1-0.1,0.1-0.2,0.2c-0.1,0-0.2,0.1-0.2,0.2l-0.1,0.1l0,1.7c0,1.1,0,1.7,0,1.7c0.1,0.1,0.2,0.2,0.3,0.3c0.1,0,0.1,0.1,0.2,0.2
			c0,0.1,0.1,0.2,0.2,0.2c0.1,0,0.2,0.1,0.2,0.2c0.1,0.1,0.1,0.1,0.2,0.1c0.3,0,0.3,0,0.2,0.3c-0.3,0.7-0.7,1.3-1,1.7
			c0,0-0.1,0.1-0.1,0.2c-0.2,0.2-0.8,0.8-1,0.9c-0.1,0-0.1,0.1-0.1,0.1c-0.5,0.4-2.1,1.1-2.9,1.3c-0.1,0-0.2,0-0.3,0.1
			c-0.5,0.1-0.6,0.1-0.8,0c-0.2-0.2-0.3-0.3-1-0.3c-1,0-1.2,0.1-1.2,0.7c0,0.3,0.1,0.5,0.4,0.6c0.2,0.1,1.4,0,1.6,0
			c0.2-0.1,0.3-0.2,0.3-0.3c0-0.1,0.1-0.1,0.2-0.2c0.1,0,0.2,0,0.3,0c0.1,0,0.2,0,0.3,0c0.1,0,0.1,0,0.2,0c0,0,0.1,0,0.2-0.1
			c0.2-0.1,0.8-0.2,0.9-0.3c0.1,0,0.1,0,0.1,0c0,0,0.8-0.3,1-0.4c0.7-0.3,1.6-1,2.1-1.6c0.1-0.1,0.2-0.2,0.2-0.2
			c0,0,0.4-0.5,0.4-0.6c0,0,0.1-0.1,0.1-0.1c0,0,0,0,0,0s0,0,0,0c0,0,0.3-0.6,0.5-0.8c0-0.1,0.1-0.2,0.2-0.4
			c0.1-0.2,0.1-0.3,0.1-0.4c0-0.1,0.1-0.2,0.1-0.2c0.1,0,0.4-0.2,0.5-0.4c0.1-0.2,0.1-0.4,0.1-2.1c0-2.1,0-2.1-0.4-2.4l-0.1-0.1
			l0-0.3c0-0.6-0.2-1.1-0.4-1.7c-0.1-0.3-0.4-0.8-0.5-1c0,0-0.1-0.1-0.1-0.1c0,0-0.1-0.1-0.2-0.2l-0.2-0.2l0-0.2l0-0.2L25,12.2
			c-1-1-2.6-2-4.1-2.5c-0.1,0-0.2,0-0.2-0.1c-0.1,0-0.5-0.2-0.7-0.2c-0.1,0-0.2,0-0.2,0c-0.3-0.1-0.7-0.1-1-0.2
			c-0.1,0-0.3,0-0.4-0.1C18.1,9.2,17.1,9.2,16.6,9.2 M16.7,12.8c-0.5,0-0.7,0.1-1,0.1c-0.5,0.1-0.5,0.1-0.5,0.1c0,0-0.1,0-0.1,0
			c-0.7,0.1-1.9,0.9-2.6,1.6c-0.2,0.2-0.7,0.8-0.7,0.8c0,0,0,0,0,0c-0.1,0-0.5,0.9-0.7,1.5c-0.2,0.7-0.2,1.8,0,2.5
			c0.1,0.2,0.1,0.5,0.2,0.5c0,0,0.1,0.1,0.1,0.2c0.1,0.2,0.3,0.7,0.4,0.8c0,0.1,0.1,0.1,0.1,0.1c0.1,0.2,0.2,0.3,0.4,0.5
			c0.2,0.3,0.2,0.2,0.2,0.7c0,0.5-0.1,1-0.1,1.5l0,0.3l0.1-0.1c0.1,0,0.2-0.1,0.2-0.1c0,0,0.1,0,0.1,0c0,0,0,0,0.1,0
			c0,0,0.1,0,0.1,0c0,0,0.1,0,0.2-0.1c0.1,0,0.2-0.1,0.3-0.1c0,0,0.1,0,0.2-0.1c0.2-0.1,0.6-0.2,0.7-0.2c0,0,0.1,0,0.2-0.1
			c0.1,0,0.2,0,0.2-0.1c0.1,0,0.1,0,0.3,0c0.5,0.1,0.5,0.1,1.2,0.3c0.4,0.1,1.4,0.1,1.8,0c0.1,0,0.3-0.1,0.4-0.1
			c0.8-0.1,2-0.6,2.6-1.1c0,0,0.2-0.1,0.3-0.2c0.4-0.3,1.1-1,1.2-1.3c0,0,0,0,0-0.1c0,0,0.3-0.5,0.4-0.7c0-0.1,0.1-0.1,0.1-0.2
			c0-0.1,0.1-0.2,0.1-0.3c0-0.1,0-0.1,0.1-0.2c0.2-0.6,0.2-2.1,0-2.7c0-0.1-0.1-0.2-0.1-0.2c0-0.1,0-0.2-0.1-0.2
			c-0.1-0.1-0.1-0.2-0.1-0.3c-0.3-0.7-1.1-1.7-1.8-2.2c0,0-0.1-0.1-0.2-0.1c-0.1-0.1-0.5-0.3-0.6-0.4c-0.4-0.2-0.5-0.2-0.7-0.3
			c-0.1,0-0.3-0.1-0.3-0.1c-0.1,0-0.1,0-0.2-0.1C18.7,12.9,17.4,12.7,16.7,12.8"/>
		<path id="path1_1_" class="st7" d="M17.2,3.9c0,0.1-0.7,0.1-0.7,0c0,0,0,0-0.1,0C16.3,4,16.2,4,16.2,4c0,0-0.1,0-0.1,0
			c0,0,0,0.1-0.3,0.1c-0.1,0-0.1,0-0.2,0c0,0-0.1,0-0.1,0c0,0-0.1,0-0.1,0c0,0-0.2,0.1-0.3,0.1c0,0-0.1,0-0.1,0
			c0,0.1-0.2,0.1-0.3,0.1c0,0,0,0-0.1,0c0,0,0,0-0.1,0c0,0,0,0,0,0c0,0-0.1,0.1-0.2,0.1c-0.1,0-0.3,0.1-0.3,0.2
			c-0.1,0-0.2,0.1-0.2,0.1c0,0-0.1,0.1-0.1,0.1C13.6,5,13.6,5,13.6,5c0-0.1-0.1,0-0.1,0.1c0,0,0,0.1-0.1,0.1
			c-0.1,0.1-0.7,0.6-0.9,0.8c-0.1,0.1-0.2,0.3-0.3,0.3c0,0,0,0-0.1,0.1c0,0-0.1,0.1-0.1,0.1c0,0-0.1,0.1-0.1,0.1
			c-0.1,0.1-0.2,0.3-0.3,0.4c-0.1,0.1-0.4,0.6-0.5,0.8c0,0.1-0.1,0.1-0.1,0.2c0,0,0,0.1,0,0.1c0,0,0,0.1-0.1,0.1
			c0,0.1-0.1,0.1-0.1,0.1c0,0,0,0.1-0.1,0.2c-0.1,0.3-0.2,0.7-0.3,1.1c0,0.1,0,0.2-0.1,0.3c0,0.2-0.1,0.6-0.1,1.1
			c0,0.3,0,0.4-0.1,0.5c0,0,0,0,0.4-0.2c0.6-0.5,1.7-1,2.5-1.3c0.1,0,0.1,0,0.1-0.1c0,0,0.1,0,0.2-0.1c0.1,0,0.2,0,0.2-0.1
			c0,0,0.1,0,0.1,0c0.1,0,0.2-0.1,0.3-0.1c0.4-0.1,1-0.2,1.4-0.3c0.2,0,0.4,0,0.5-0.1c0.3,0,1.9,0,2.1,0c0.1,0,0.3,0,0.4,0.1
			c0.2,0,0.7,0.1,1,0.2c0.1,0,0.2,0,0.2,0c0.2,0,0.6,0.2,0.7,0.2c0,0,0.1,0,0.2,0.1c1.5,0.4,3.1,1.4,4.1,2.5l0.2,0.2l0,0.2l0,0.2
			l0.2,0.2c0.1,0.1,0.2,0.2,0.2,0.2c0,0,0,0,0.1,0.1c0.5,0.6,0.9,1.8,0.9,2.7l0,0.3l0.1,0.1c0.3,0.3,0.4,0.3,0.4,2.4
			c0,1.9,0,2.1-0.2,2.3c0,0,0,0,0,0c0,0,0.1-0.1,0.1-0.2l0.1-0.2v-1.9v-1.9l-0.1-0.2c-0.1-0.1-0.1-0.2-0.2-0.3l-0.1-0.1l0-0.3
			c0-0.2-0.1-0.5-0.1-0.6c-0.1-0.3-0.1-0.4-0.2-0.7c0-0.1-0.1-0.2-0.1-0.3c0-0.1-0.1-0.1-0.1-0.1c0,0,0,0,0-0.1c0,0,0-0.1-0.2-0.5
			c-0.1-0.2-0.3-0.5-0.5-0.8c-0.2-0.2-0.2-0.2-0.1-0.3c0.1-0.3-0.1-0.4-0.6-0.9c-0.5-0.5-1.6-1.3-1.8-1.3c0,0,0,0,0,0
			c0-0.1-1-0.5-1.4-0.6c-0.1,0-0.2-0.1-0.2-0.1c0,0-0.2-0.1-0.3-0.1c-0.1,0-0.2-0.1-0.3-0.1s-0.1,0-0.3-0.1c-0.1,0-0.2-0.1-0.3-0.1
			c-0.1,0-0.2,0-0.3-0.1c-0.1,0-0.3,0-0.3-0.1c-0.1,0-0.3-0.1-0.6-0.1c-0.3,0,0.9-0.1,1.6,0c0.9,0,1.5,0.1,2,0.2
			c0.1,0,0.3,0,0.5,0.1c0.4,0.1,0.8,0.2,0.9,0.2c0,0,0.1,0,0.1,0c0.4,0.1,0.6,0.1,1,0.3c0.3,0.1,0.5,0.2,0.6,0.2c0.1,0,0.1,0,0.1,0
			c0,0,0.1,0,0.2,0.1c0.1,0,0.2,0.1,0.3,0.1c0.6,0.2,1.7,0.8,2.4,1.3c0.4,0.3,0.4,0.3,0.3,0c-0.1-0.1-0.1-0.2-0.1-0.2c0,0,0,0,0,0
			c0,0,0,0-0.1-0.1c0,0,0-0.1-0.1-0.1c0,0,0-0.1,0-0.1c0,0,0,0,0,0c0,0,0,0,0-0.1c0,0,0-0.1,0-0.1c0,0,0,0,0-0.1c0,0,0-0.1,0-0.1
			c0,0-0.1,0-0.1-0.1c-0.1-0.1-0.1-0.2-0.2-0.3c0,0,0-0.1,0-0.1c0,0,0,0,0,0c0,0,0,0,0,0c0,0,0-0.1-0.1-0.1c0-0.1-0.1-0.1-0.1-0.1
			c0,0,0-0.1-0.1-0.1c0,0-0.1-0.1-0.1-0.2c0-0.1-0.1-0.1-0.1-0.1c0,0,0-0.1-0.1-0.1c0,0,0-0.1-0.1-0.1s-0.1,0-0.1-0.1
			c0,0-0.1-0.1-0.1-0.2c0-0.1-0.1-0.2-0.2-0.2c-0.1-0.1-0.1-0.1-0.1-0.1c-0.1-0.1-0.3-0.3-0.3-0.3c0,0,0,0,0,0c0,0-0.1-0.1-0.2-0.2
			C26.2,8.1,26,8,25.9,7.9c-0.1-0.1-0.2-0.2-0.2-0.2c0,0-0.3-0.3-0.6-0.5c-0.3-0.3-0.6-0.5-0.6-0.5c0,0,0,0,0,0c0,0-0.2-0.1-0.5-0.3
			c-0.1,0-0.1-0.1-0.2-0.1c0,0-0.1-0.1-0.1-0.1c0,0,0,0,0,0c-0.1,0-0.4-0.2-0.5-0.3c0,0,0,0,0,0c0,0-0.1,0-0.1-0.1c0,0,0,0-0.1,0
			c0,0-0.1-0.1-0.2-0.1c-0.1-0.1-0.2-0.1-0.2-0.1c0,0,0,0,0,0c0,0-0.1,0-0.1-0.1c-0.1,0-0.1-0.1-0.1-0.1s0,0-0.1,0
			c-0.1,0-0.1-0.1-0.1-0.1s0,0,0,0c0,0-0.1,0-0.2-0.1c-0.2-0.1-0.5-0.2-0.7-0.3c-0.1,0-0.1-0.1-0.1-0.1c0,0,0,0,0,0c0,0-0.1,0-0.1,0
			c0,0,0,0,0,0c0,0-0.2,0-0.3-0.1c0,0,0,0,0,0c0,0,0,0-0.1,0c0,0-0.1,0-0.2-0.1c-0.1,0-0.2-0.1-0.2-0.1c0,0,0,0,0,0
			c-0.1,0-0.4-0.1-0.4-0.1c0,0,0,0,0,0c0,0-0.1,0-0.1,0c0,0-0.1,0-0.2,0c0,0-0.1,0-0.2,0c-0.1,0-0.1,0-0.2,0C19,4,19,4,19,4
			c0,0,0,0,0,0c0,0.1-0.2,0-0.3,0c0,0-0.1,0-0.1,0c0,0.1-0.7,0-0.8,0C17.8,3.8,17.2,3.8,17.2,3.9 M16.8,10.2c-0.1,0,0.1,0,0.5,0
			c0.5,0,0.6,0,0.4,0C17.4,10.2,17.1,10.2,16.8,10.2 M16.2,10.3c-0.1,0,0,0,0.1,0c0.1,0,0.1,0,0,0C16.3,10.2,16.2,10.2,16.2,10.3
			 M18.3,10.3c0.1,0,0.2,0,0.1,0C18.4,10.2,18.3,10.2,18.3,10.3C18.2,10.2,18.2,10.2,18.3,10.3 M15.3,10.4
			C15.3,10.4,15.3,10.4,15.3,10.4c0.1,0,0.2,0,0.2,0C15.6,10.3,15.4,10.3,15.3,10.4 M21.8,11.2C21.8,11.2,21.8,11.2,21.8,11.2
			c0.1,0.1,0.2,0.1,0.2,0.1C21.9,11.3,21.9,11.2,21.8,11.2C21.8,11.2,21.8,11.2,21.8,11.2 M12.1,11.5L12.1,11.5L12.1,11.5
			c0.1-0.1,0.1-0.1,0.1-0.1C12.2,11.5,12.1,11.5,12.1,11.5 M11.7,11.8c-0.1,0.1-0.2,0.1-0.2,0.1C11.5,11.9,11.6,11.9,11.7,11.8
			c0.1,0,0.2-0.1,0.2-0.1C11.9,11.7,11.9,11.7,11.7,11.8 M9.9,11.9L9.7,12L9.9,11.9c0.2-0.1,0.2-0.2,0.2-0.2
			C10.1,11.7,10,11.8,9.9,11.9 M11.3,12l-0.1,0.1L11.3,12c0.2-0.1,0.2-0.1,0.2-0.1C11.5,11.9,11.4,12,11.3,12 M23.2,12.1
			C23.2,12.1,23.3,12.1,23.2,12.1l0.2,0.2l-0.1-0.1C23.3,12.1,23.2,12,23.2,12.1 M10.8,12.5l-0.3,0.3L10.8,12.5
			c0.3-0.2,0.3-0.3,0.3-0.3C11.1,12.2,11,12.3,10.8,12.5 M23.5,12.3c0,0,0.1,0.1,0.2,0.1l0.2,0.1l-0.1-0.1
			C23.6,12.4,23.5,12.3,23.5,12.3C23.5,12.3,23.5,12.3,23.5,12.3 M9.4,12.6C9.4,12.6,9.4,12.7,9.4,12.6C9.4,12.6,9.4,12.6,9.4,12.6
			C9.4,12.5,9.4,12.5,9.4,12.6 M23.9,12.7C23.9,12.7,24,12.7,23.9,12.7l0.2,0.2L24,12.8C24,12.7,23.9,12.7,23.9,12.7 M16.4,12.8
			c-0.4,0.1-0.5,0.1-0.5,0.1c0,0-0.1,0-0.1,0c-0.1,0-0.2,0-0.4,0.1c0,0-0.1,0-0.3,0.1c-0.3,0.1-0.7,0.2-0.9,0.4
			c-0.1,0-0.1,0.1-0.2,0.1c-0.6,0.3-1.4,0.9-1.7,1.4c0,0.1-0.1,0.1-0.1,0.1c0,0-0.2,0.3-0.3,0.3c0,0-0.1,0.1-0.1,0.1
			c0,0-0.4,0.7-0.4,0.7c0,0,0,0,0.1-0.1c0.1-0.2,0.3-0.6,0.4-0.6c0,0,0,0,0,0c0-0.1,0.4-0.6,0.7-0.8c0.7-0.7,1.9-1.4,2.6-1.6
			c0,0,0.1,0,0.1,0c0,0,0.1,0,0.5-0.1c1.1-0.2,2.6-0.2,3.5,0.1c0,0,0.1,0,0.2,0.1c0.1,0,0.2,0.1,0.3,0.1c0.2,0.1,0.3,0.1,0.7,0.3
			c0.2,0.1,0.5,0.3,0.6,0.4c0,0,0.1,0.1,0.2,0.1c0.7,0.5,1.5,1.5,1.8,2.2c0,0.1,0,0.1,0.1,0.2c0.1,0.1,0.1,0.2,0.1,0.3
			c0,0.1,0.1,0.2,0.1,0.2c0.2,0.6,0.2,2.1,0,2.7c0,0,0,0.1-0.1,0.2c0,0.1-0.1,0.2-0.1,0.3c0,0,0,0.1-0.1,0.1c0,0.1-0.1,0.2-0.2,0.4
			c-0.1,0.2-0.2,0.3-0.1,0.3c0,0,0.3-0.5,0.4-0.7c0-0.1,0.1-0.2,0.1-0.2c0.1-0.1,0.1-0.2,0.1-0.3c0,0,0-0.1,0-0.1c0,0,0-0.1,0-0.1
			c0.2-1.1,0.2-1.4,0.1-2.2c-0.1-0.4-0.1-0.4-0.1-0.4c0,0,0,0,0-0.1c0-0.1-0.1-0.4-0.2-0.7c-0.2-0.4-0.6-1-0.9-1.3
			c0,0-0.1-0.1-0.2-0.2c-0.2-0.2-0.6-0.5-1.1-0.9c-0.1-0.1-0.5-0.3-0.5-0.3c0,0,0,0,0,0c0,0-0.8-0.4-1-0.4c-0.1,0-0.2-0.1-0.3-0.1
			c-0.1,0-0.3-0.1-0.4-0.1c0,0-0.1,0-0.1,0C18.4,12.8,17.1,12.7,16.4,12.8 M24.4,13.1C24.4,13.1,24.5,13.1,24.4,13.1
			C24.6,13.1,24.6,13.1,24.4,13.1C24.4,13.1,24.4,13.1,24.4,13.1 M9.9,13.1c0,0,0.1,0,0.1,0C10,13.1,10,13.1,9.9,13.1
			C9.9,13.1,9.9,13.1,9.9,13.1 M24.9,13.3c0.1,0.1,0.1,0.2,0.1,0.2C25,13.5,24.9,13.3,24.9,13.3C24.8,13.3,24.8,13.3,24.9,13.3
			 M25.8,15.2c0,0.1,0,0.2,0,0.1C25.9,15.3,25.8,15.3,25.8,15.2C25.8,15.2,25.8,15.2,25.8,15.2 M8.6,15.5
			C8.6,15.6,8.6,15.6,8.6,15.5C8.7,15.5,8.7,15.4,8.6,15.5C8.7,15.4,8.7,15.4,8.6,15.5 M25.9,15.5c0,0,0,0.1,0,0.1
			C25.9,15.7,25.9,15.6,25.9,15.5C25.9,15.4,25.9,15.4,25.9,15.5 M8.1,15.8C8.1,15.8,8.1,15.9,8.1,15.8C8.1,15.8,8.1,15.8,8.1,15.8
			C8.1,15.7,8.1,15.7,8.1,15.8 M8.6,16.2C8.6,16.2,8.6,16.3,8.6,16.2C8.6,16.2,8.6,16.2,8.6,16.2C8.6,16.1,8.6,16.1,8.6,16.2
			 M8,16.2C8,16.3,8.1,16.3,8,16.2C8.1,16.3,8.1,16.2,8,16.2C8.1,16.1,8,16.2,8,16.2 M25.1,16.5c-0.1,0.1-0.2,0.2-0.3,0.3
			c0,0.1-0.1,0.1-0.2,0.2c-0.3,0.2-0.3,0.1-0.3,2l0,1.6l0-1.7l0-1.7l0.1-0.1c0-0.1,0.2-0.1,0.2-0.2c0.1-0.1,0.2-0.1,0.2-0.2
			C24.9,16.7,25,16.6,25.1,16.5l0.2-0.2l0.2,0c0.1,0,0.2,0,0.2,0c0,0,0,0-0.2,0l-0.2,0L25.1,16.5 M8.7,16.3c0.1,0,0.1,0,0.2,0
			C8.9,16.3,8.9,16.3,8.7,16.3C8.7,16.3,8.6,16.3,8.7,16.3 M7.6,18.9c0,1.1,0,1.5,0,1c0-0.5,0-1.4,0-1.9C7.6,17.4,7.6,17.8,7.6,18.9
			 M10.2,18.9c0,0.9,0,1.2,0,0.8c0-0.4,0-1.2,0-1.6C10.2,17.7,10.2,18,10.2,18.9 M10.1,20.6L10.1,20.6L10.1,20.6
			C10.2,20.6,10.2,20.5,10.1,20.6C10.2,20.5,10.1,20.6,10.1,20.6 M24.5,20.7C24.5,20.7,24.5,20.7,24.5,20.7l0.2,0.2L24.5,20.7
			C24.5,20.7,24.5,20.7,24.5,20.7C24.5,20.6,24.5,20.7,24.5,20.7 M24.6,20.8c0,0,0,0,0.1,0.1c0.1,0,0.1,0,0.1,0
			C24.8,20.9,24.6,20.8,24.6,20.8 M25.1,21.3c0,0,0,0,0.1,0.1c0.1,0,0.1,0.1,0.1,0C25.3,21.4,25.1,21.2,25.1,21.3 M8.2,21.4
			c0,0,0.1,0,0.1,0C8.4,21.5,8.4,21.4,8.2,21.4C8.3,21.4,8.2,21.4,8.2,21.4C8.2,21.4,8.2,21.4,8.2,21.4 M22.2,21.5
			C22.2,21.6,22.2,21.6,22.2,21.5C22.2,21.6,22.2,21.6,22.2,21.5C22.3,21.5,22.3,21.4,22.2,21.5C22.3,21.4,22.3,21.5,22.2,21.5
			 M12.6,21.8C12.6,21.9,12.6,21.9,12.6,21.8C12.6,21.9,12.6,21.8,12.6,21.8L12.6,21.8L12.6,21.8 M21.7,22c-0.2,0.2-0.2,0.2-0.2,0.2
			c0.1-0.1,0.5-0.5,0.5-0.5C22,21.7,21.9,21.9,21.7,22 M26,22c-0.1,0.2-0.2,0.5-0.3,0.6c0,0,0,0.1,0,0.1c0,0,0.2-0.4,0.3-0.6
			C26,22.1,26.1,22,26,22c0.1-0.1,0.1-0.1,0.1-0.1C26.1,21.8,26.1,21.9,26,22 M25.5,21.9C25.5,22,25.5,22.1,25.5,21.9
			C25.5,21.9,25.6,21.9,25.5,21.9C25.6,21.8,25.5,21.9,25.5,21.9 M25.4,22.2c-0.3,0.5-0.5,0.9-0.8,1.3c0,0-0.1,0.1-0.1,0.1
			c-0.3,0.4-1.2,1.2-1.6,1.4c0,0-0.1,0.1-0.1,0.1c0,0,0,0,0,0c0,0-0.4,0.2-0.4,0.2c0,0,0.8-0.4,0.9-0.6c0,0,0.1,0,0.1-0.1
			c0.2-0.1,0.9-0.7,1-0.9c0,0,0.1-0.1,0.1-0.2C24.8,23.2,25.2,22.6,25.4,22.2C25.5,22,25.4,22.1,25.4,22.2 M12.6,22.2
			C12.6,22.3,12.6,22.3,12.6,22.2C12.6,22.2,12.6,22.2,12.6,22.2C12.6,22.1,12.6,22.2,12.6,22.2 M21.3,22.4
			C21.2,22.4,21.2,22.5,21.3,22.4C21.2,22.5,21.3,22.4,21.3,22.4C21.5,22.3,21.5,22.3,21.3,22.4 M20.9,22.7L20.9,22.7L20.9,22.7
			c0.1,0,0.1-0.1,0.1-0.1C21,22.6,21,22.6,20.9,22.7 M25.6,23L25.6,23L25.6,23C25.6,22.9,25.6,22.9,25.6,23
			C25.6,22.9,25.6,22.9,25.6,23 M20.1,23.1C20,23.2,20,23.2,20.1,23.1C20,23.2,20.1,23.2,20.1,23.1c0.1,0,0.2-0.1,0.1-0.1
			C20.2,23.1,20.2,23.1,20.1,23.1 M12.5,23.3C12.5,23.3,12.5,23.4,12.5,23.3C12.6,23.3,12.6,23.3,12.5,23.3
			C12.5,23.2,12.5,23.2,12.5,23.3 M12.5,23.5C12.5,23.6,12.5,23.6,12.5,23.5C12.5,23.6,12.5,23.5,12.5,23.5
			C12.5,23.4,12.5,23.4,12.5,23.5 M16.7,23.7c0,0,0.1,0,0.2,0C16.9,23.7,16.8,23.7,16.7,23.7C16.7,23.7,16.6,23.7,16.7,23.7
			 M17.7,23.7c0,0,0.1,0,0.1,0C17.9,23.7,17.9,23.7,17.7,23.7C17.7,23.7,17.7,23.7,17.7,23.7 M12.5,24.1
			C12.5,24.1,12.5,24.1,12.5,24.1C12.5,24.1,12.5,24.1,12.5,24.1C12.5,24,12.5,24,12.5,24.1 M24.2,24.5l-0.3,0.3L24.2,24.5
			c0.2-0.1,0.3-0.3,0.3-0.3C24.6,24.2,24.5,24.3,24.2,24.5 M21.7,25.5c-0.1,0-0.2,0.1-0.1,0.1c0,0,0.3-0.1,0.3-0.1
			C21.9,25.5,21.9,25.5,21.7,25.5 M17.5,25.8C17.5,25.8,17.5,25.8,17.5,25.8c0.2,0,0.2,0,0.1,0C17.6,25.8,17.5,25.8,17.5,25.8
			 M19,25.8c0.2,0.1,0.3,0.1,0.4,0.3c0.1,0.1,0.1,0.1,0.3,0.1c0.1,0,0,0-0.1,0c-0.1,0-0.2,0-0.2,0C19.4,26,19,25.8,19,25.8
			C18.8,25.8,18.9,25.8,19,25.8 M17.3,25.9C17.2,26,17.2,26,17.2,26s0,0,0,0C17.2,26,17.3,25.9,17.3,25.9c0.1-0.1,0.2-0.1,0.2-0.1
			S17.3,25.9,17.3,25.9 M20.3,26C20.2,26,20.2,26,20.3,26c0,0,0.1,0,0.1,0C20.5,26,20.4,26,20.3,26 M20.1,26
			C20,26.1,20,26.1,20.1,26C20.1,26.1,20.2,26,20.1,26C20.2,26,20.2,26,20.1,26 M19.9,26.1C19.8,26.1,19.8,26.1,19.9,26.1
			c0,0,0.1,0,0.1,0C20,26.1,20,26.1,19.9,26.1 M17.1,26.4C17.1,26.5,17.1,26.6,17.1,26.4C17.1,26.5,17.1,26.4,17.1,26.4
			C17.1,26.3,17.1,26.3,17.1,26.4 M17.2,27c0.1,0.1,0.1,0.1,0.1,0.1C17.4,27.1,17.3,27,17.2,27C17.2,26.9,17.2,26.9,17.2,27
			C17.2,26.9,17.2,26.9,17.2,27"/>
		<path id="path2_1_" class="st8" d="M16.9,3.9c0,0-0.1,0-0.2,0c-0.1,0-0.2,0-0.1,0c0.1,0,0.6,0,0.6-0.1c0,0,0,0-0.1,0
			C17,3.9,16.9,3.9,16.9,3.9 M17.8,3.9c0,0,0.6,0.1,0.6,0.1c0,0-0.1,0-0.1,0c-0.1,0-0.2,0-0.2,0c0,0-0.1,0-0.2,0
			C17.8,3.8,17.8,3.9,17.8,3.9 M16.3,3.9C16.3,4,16.3,4,16.3,3.9c-0.1,0-0.1,0-0.1,0.1C16.2,4,16.3,4,16.3,3.9
			C16.4,4,16.4,3.9,16.3,3.9C16.3,3.9,16.3,3.9,16.3,3.9 M18.6,3.9c0,0,0.1,0.1,0.1,0.1c0,0,0,0,0-0.1C18.7,3.9,18.6,3.9,18.6,3.9
			 M16,4C16,4.1,16,4.1,16,4C16.1,4.1,16.1,4,16,4C16.1,4,16.1,4,16,4 M19,4c0,0,0.1,0.1,0.1,0c0,0,0,0,0,0S19,4,19,4
			C19,4,19,4,19,4C19,4,19,4,19,4 M15.7,4.1C15.7,4.1,15.7,4.1,15.7,4.1c0.1,0,0.2,0,0.1,0C15.8,4,15.8,4,15.7,4.1 M19.2,4.1
			C19.2,4.1,19.2,4.1,19.2,4.1c0.2,0.1,0.2,0.1,0.1,0C19.3,4,19.3,4,19.2,4.1 M15.5,4.1C15.5,4.1,15.5,4.1,15.5,4.1
			C15.5,4.2,15.5,4.2,15.5,4.1C15.6,4.2,15.6,4.1,15.5,4.1C15.5,4.1,15.5,4.1,15.5,4.1 M19.5,4.1C19.6,4.1,19.6,4.2,19.5,4.1
			C19.6,4.2,19.6,4.1,19.5,4.1C19.6,4.1,19.6,4.1,19.5,4.1C19.5,4.1,19.5,4.1,19.5,4.1 M15.3,4.2c0,0,0,0-0.1,0c-0.1,0-0.1,0-0.1,0
			c0,0,0,0,0.1,0C15.3,4.2,15.4,4.2,15.3,4.2C15.4,4.1,15.4,4.1,15.3,4.2 M19.9,4.2C19.9,4.2,19.9,4.2,19.9,4.2
			C20,4.3,20,4.3,20,4.2C20,4.2,20,4.2,19.9,4.2 M15,4.3C15,4.3,15,4.3,15,4.3c-0.1,0-0.1,0-0.1,0.1c0,0,0,0,0,0c0,0,0,0,0,0
			C14.8,4.4,15,4.3,15,4.3C15,4.3,15,4.2,15,4.3C15,4.2,15,4.3,15,4.3 M20.2,4.3c0,0,0.1,0.1,0.2,0.1c0.1,0,0.2,0.1,0.2,0.1
			c0.1,0,0.1,0,0,0c0,0-0.1,0-0.1,0s-0.1,0-0.1,0c0,0,0,0-0.1,0C20.3,4.3,20.2,4.3,20.2,4.3C20.2,4.2,20.2,4.2,20.2,4.3 M20.8,4.5
			c0,0,0.1,0.1,0.1,0c0,0,0,0,0,0S20.9,4.5,20.8,4.5C20.9,4.5,20.9,4.5,20.8,4.5C20.8,4.5,20.8,4.5,20.8,4.5 M14.3,4.6
			C14.3,4.6,14.2,4.6,14.3,4.6C14.2,4.6,14.2,4.6,14.3,4.6C14.3,4.6,14.4,4.6,14.3,4.6C14.4,4.6,14.4,4.6,14.3,4.6
			C14.4,4.6,14.3,4.6,14.3,4.6 M21.1,4.6c0,0.1,0.2,0.1,0.2,0.1c0,0,0,0-0.1,0C21.2,4.7,21.2,4.6,21.1,4.6
			C21.1,4.6,21.1,4.6,21.1,4.6 M14.1,4.7c0,0-0.1,0-0.1,0.1c-0.1,0-0.1,0-0.1,0.1c0,0,0,0-0.1,0c-0.1,0-0.1,0-0.1,0.1c0,0,0,0,0,0
			C13.8,4.9,13.8,4.9,14.1,4.7C14.1,4.7,14.2,4.7,14.1,4.7C14.2,4.6,14.1,4.6,14.1,4.7 M21.6,4.8C21.6,4.8,21.6,4.8,21.6,4.8
			c0.1,0.1,0.1,0.1,0.2,0.1C22,5,22,5,21.9,5c0,0,0,0-0.1,0c0,0-0.1,0-0.1,0c0,0,0,0,0,0C21.7,4.9,21.7,4.9,21.6,4.8
			C21.7,4.8,21.6,4.8,21.6,4.8 M22.1,5.1c0,0,0.1,0.1,0.2,0.1c0,0,0,0,0,0C22.2,5.1,22.2,5.1,22.1,5.1C22.1,5,22.1,5,22.1,5.1
			 M13.2,5.3C13,5.5,12.9,5.5,13.2,5.3c0.2-0.1,0.3-0.2,0.2-0.2C13.4,5.1,13.3,5.2,13.2,5.3 M22.3,5.2c0,0,0.2,0.1,0.2,0.1
			c0,0,0,0,0,0C22.5,5.3,22.4,5.2,22.3,5.2C22.4,5.2,22.3,5.1,22.3,5.2 M22.7,5.4C22.7,5.4,22.8,5.4,22.7,5.4
			c0.1,0.1,0.1,0.1,0.1,0.1C22.8,5.4,22.7,5.4,22.7,5.4 M12.9,5.5C12.8,5.6,12.8,5.6,12.9,5.5C12.8,5.6,12.8,5.6,12.9,5.5
			c0.1,0,0.1-0.1,0.1-0.1C13,5.5,12.9,5.5,12.9,5.5 M23,5.5c0.1,0,0.1,0,0.1,0C23.1,5.5,23,5.5,23,5.5C22.9,5.5,22.9,5.5,23,5.5
			 M23.2,5.6C23.2,5.7,23.2,5.7,23.2,5.6C23.2,5.7,23.3,5.7,23.2,5.6C23.3,5.6,23.2,5.6,23.2,5.6 M23.3,5.7c0,0,0.1,0.1,0.2,0.1
			c0.1,0.1,0.1,0.1,0.1,0c0,0-0.1-0.1-0.1-0.1C23.4,5.8,23.3,5.8,23.3,5.7C23.3,5.7,23.3,5.7,23.3,5.7 M12.5,5.9
			C12.5,5.9,12.4,6,12.4,6c0,0-0.1,0-0.1,0.1c0,0.1,0,0.1-0.1,0.1c-0.1,0-0.1,0-0.1,0.1c0,0,0,0.1-0.1,0.1c-0.1,0-0.1,0-0.1,0.1
			c0,0,0,0.1-0.1,0.1c0,0-0.1,0.1-0.1,0.1c0,0,0,0.1-0.1,0.1c-0.1,0.1-0.5,0.9-0.7,1.3c-0.2,0.4-0.3,0.7-0.3,0.9
			c0,0.1,0,0.2-0.1,0.2c0,0.2-0.1,0.4-0.1,0.5c-0.1,0.3-0.1,0.5-0.1,0.5c0,0.2-0.1,1.1,0,1.1c0.1,0.1,0.1,0,0.1-0.4
			c0-0.4,0.1-0.9,0.1-1.1c0-0.1,0-0.2,0.1-0.3c0.1-0.4,0.2-0.8,0.3-1.1c0-0.1,0.1-0.2,0.1-0.2c0,0,0-0.1,0.1-0.1
			c0-0.1,0.1-0.1,0.1-0.1c0,0,0,0,0-0.1c0,0,0.1-0.1,0.1-0.2c0.1-0.2,0.4-0.7,0.5-0.8C11.8,6.8,12,6.6,12,6.5c0-0.1,0.1-0.1,0.1-0.1
			c0,0,0.1,0,0.1-0.1c0,0,0-0.1,0.1-0.1s0.1-0.1,0.2-0.2c0.1-0.1,0.2-0.2,0.2-0.2C12.6,5.8,12.6,5.8,12.5,5.9 M23.7,6
			C23.7,6,23.8,6,23.7,6C23.8,6,23.7,5.9,23.7,6C23.6,6,23.6,6,23.7,6 M23.9,6.1c0,0,0.1,0.1,0.2,0.2c0.1,0.1,0.2,0.2,0.3,0.2
			c0.1,0.1,0.2,0.1,0.2,0.1c0,0,0,0,0,0c0,0,0,0.1,0.1,0.1c0.1,0,0.1,0.1,0.1,0c0,0,0-0.1-0.1-0.1s-0.1-0.1-0.1-0.1s0,0-0.1-0.1
			c0,0-0.1,0-0.1-0.1c0,0,0,0,0,0c0,0-0.1,0-0.1-0.1c-0.2-0.1-0.3-0.2-0.3-0.2c0,0,0,0,0-0.1c0,0,0-0.1-0.1-0.1
			C23.9,6.1,23.9,6.1,23.9,6.1C23.8,6.1,23.8,6.1,23.9,6.1 M24.9,7c0.1,0,0.1,0.1,0.1,0.1C25.1,7.1,24.9,6.9,24.9,7
			C24.9,6.9,24.9,6.9,24.9,7 M25.1,7.1c0,0,0.2,0.2,0.2,0.2C25.4,7.3,25.3,7.3,25.1,7.1C25.1,7.1,25.1,7.1,25.1,7.1 M25.6,7.5
			C25.6,7.6,25.6,7.6,25.6,7.5c0.1,0.1,0.2,0.2,0.3,0.3C25.9,7.9,26,7.9,26,7.9c0,0,0-0.1-0.1-0.1c-0.1-0.1-0.1-0.1-0.1-0.1
			c0,0,0,0,0,0C25.7,7.6,25.7,7.6,25.6,7.5C25.6,7.5,25.6,7.5,25.6,7.5 M26.1,8.1c0,0,0.1,0.1,0.1,0.2l0.1,0.1l-0.1-0.1
			C26.3,8.2,26.2,8.2,26.1,8.1C26.2,8.1,26.2,8.1,26.1,8.1C26.2,8.1,26.2,8.1,26.1,8.1C26.1,8.1,26.1,8.1,26.1,8.1 M26.4,8.4
			C26.4,8.4,26.4,8.5,26.4,8.4C26.5,8.4,26.5,8.4,26.4,8.4C26.5,8.4,26.4,8.4,26.4,8.4 M26.6,8.6c0.1,0.1,0.1,0.1,0.1,0.1
			C26.7,8.7,26.6,8.6,26.6,8.6l-0.1-0.1L26.6,8.6 M26.7,8.7c0,0,0.2,0.3,0.2,0.2c0,0,0,0,0,0c0,0,0,0,0,0s0,0,0,0
			C26.8,8.9,26.8,8.8,26.7,8.7C26.7,8.8,26.7,8.7,26.7,8.7 M19,9.2c-0.4,0-0.4,0-0.2,0c0.2,0,0.5,0.1,0.6,0.1c0.1,0,0.2,0,0.3,0.1
			c0.1,0,0.3,0.1,0.3,0.1c0.1,0,0.2,0,0.3,0.1c0.1,0,0.2,0.1,0.3,0.1s0.1,0,0.3,0.1c0.1,0,0.2,0.1,0.3,0.1c0,0,0.1,0.1,0.2,0.1
			c0.4,0.1,1.4,0.6,1.4,0.6c0,0,0,0,0,0c0.2,0,1.3,0.8,1.8,1.3c0.5,0.5,0.7,0.7,0.6,0.9c0,0.1,0,0.1,0.1,0.3
			c0.2,0.2,0.4,0.6,0.5,0.8c0.2,0.4,0.2,0.4,0.2,0.5c0,0,0,0.1,0,0.1c0,0,0,0.1,0.1,0.1c0,0.1,0.1,0.2,0.1,0.3
			c0.1,0.3,0.1,0.3,0.2,0.7c0,0.2,0.1,0.5,0.1,0.6l0,0.3l0.1,0.1c0.1,0.1,0.2,0.2,0.2,0.3l0.1,0.2v1.9v1.9L26.9,21
			c0,0.1-0.1,0.2-0.2,0.2c-0.1,0-0.1,0.1,0,0c0.2-0.1,0,0.2-0.2,0.4c-0.1,0.1-0.3,0.2-0.4,0.2c-0.1,0-0.1,0.1-0.2,0.2
			c0,0.1-0.1,0.2-0.2,0.3c-0.1,0.1-0.1,0.2-0.1,0.2s0,0,0,0c0,0,0,0,0,0c0,0-0.1,0-0.1,0c0,0,0,0,0,0.1c0.1,0-0.5,1-0.9,1.5
			c-0.3,0.3-0.3,0.4-0.7,0.7L24,25.2l0.1,0c0.6-0.1,0.8-0.1,0.9-0.2c0,0,0.1,0,0.1,0c0.1,0,0.1,0,0.3-0.1c0,0,0.1,0,0.2-0.1
			c1.6-0.5,3.1-1.9,3.8-3.5c0.1-0.1,0.1-0.2,0.1-0.3c0,0,0.2-0.6,0.3-0.8c0-0.1,0.1-0.3,0.1-0.4c0-0.1,0.1-0.3,0.1-0.4
			c0.1-0.7,0.2-1.9,0.1-2.6c0-0.2,0-0.4-0.1-0.6c0-0.3-0.1-0.5-0.1-0.8c0-0.1,0-0.2-0.1-0.4c-0.1-0.3-0.2-0.8-0.2-0.9
			c0-0.1-0.1-0.2-0.1-0.2c0-0.1-0.1-0.2-0.1-0.3s-0.1-0.2-0.1-0.2c0-0.1,0-0.1-0.1-0.1c0,0-0.1-0.1-0.1-0.2c-0.1-0.4-0.3-0.7-0.4-1
			c0-0.1-0.1-0.2-0.1-0.2c0,0,0,0,0,0c0,0,0,0-0.1,0c0,0-0.2-0.1-0.4-0.2c-0.7-0.5-1.8-1.1-2.4-1.3c0,0-0.2-0.1-0.3-0.1
			c-0.1,0-0.2-0.1-0.2-0.1c0,0-0.1,0-0.1,0c-0.1,0-0.3-0.1-0.6-0.2c-0.4-0.1-0.6-0.2-1-0.3c-0.1,0-0.1,0-0.1,0c0,0-0.5-0.1-0.9-0.2
			c-0.2,0-0.4-0.1-0.5-0.1c-0.3,0-0.6-0.1-1-0.1c-0.2,0-0.4,0-0.5,0C20.7,9.2,19.4,9.2,19,9.2 M27.1,9.2c0,0,0.1,0.1,0.1,0.1
			c0,0,0,0,0.1,0.1c0,0,0,0.1,0.1,0.1c0,0,0,0,0,0c0,0,0,0,0-0.1c0,0,0-0.1,0-0.1C27.3,9.4,27.2,9.3,27.1,9.2
			C27.1,9.3,27.1,9.2,27.1,9.2 M27.4,9.7c0,0,0.1,0.1,0.1,0.1l0,0.1l0-0.1C27.5,9.8,27.5,9.7,27.4,9.7L27.4,9.7L27.4,9.7 M27.8,10.2
			C27.8,10.2,27.8,10.3,27.8,10.2C27.9,10.2,27.9,10.2,27.8,10.2C27.8,10.2,27.8,10.2,27.8,10.2C27.8,10.1,27.8,10.1,27.8,10.2
			C27.7,10.1,27.7,10.1,27.8,10.2 M17.1,10.2c0.1,0,0.2,0,0.3,0c0.1,0,0,0-0.1,0C17.1,10.2,17.1,10.2,17.1,10.2 M27.8,10.3
			C27.8,10.3,27.9,10.3,27.8,10.3c0.1,0.1,0.1,0.2,0.1,0.2c0,0,0.1,0.2,0.1,0.2c0,0,0,0,0,0c0,0,0,0,0-0.1c0,0,0,0,0,0
			c0,0,0,0,0-0.1c0,0,0-0.1,0-0.1C27.9,10.4,27.9,10.4,27.8,10.3C27.9,10.4,27.9,10.3,27.8,10.3C27.9,10.3,27.8,10.3,27.8,10.3
			 M16.5,10.6c0,0-0.2,0-0.4,0c-0.4,0-0.7,0.1-0.9,0.1c-0.1,0-0.2,0-0.4,0.1c-0.4,0.1-1.1,0.3-1.4,0.4c-0.1,0-0.1,0-0.1,0
			c0,0-0.1,0-0.2,0.1c-0.1,0.1-0.2,0.1-0.2,0.1c0,0-0.2,0.1-0.6,0.3c-0.5,0.2-1,0.6-1.5,1l-0.3,0.2l0,0.1c0,0.1,0,0.2,0,0.3
			c0,0.1,0,0.2,0,0.2c0,0,0,0.1,0,0.1c0,0.1,0.1,0.4,0.1,0.6c0,0.1,0,0.2,0.1,0.2c0,0.2,0.2,0.8,0.2,0.8c0,0,0,0.1,0.1,0.1
			c0,0.1,0.2,0.6,0.2,0.7c0,0,0,0.1,0.1,0.1c0,0.1,0,0.1,0,0c0-0.1,0.3-0.7,0.4-0.7c0,0,0-0.1,0.1-0.1c0.1-0.1,0.2-0.3,0.3-0.3
			c0,0,0.1-0.1,0.1-0.1c0.4-0.5,1.2-1.1,1.7-1.4c0,0,0.1-0.1,0.2-0.1c0.3-0.1,0.7-0.3,0.9-0.4c0.1,0,0.2-0.1,0.3-0.1
			c0.1,0,0.3-0.1,0.3-0.1c0,0,0.1,0,0.1,0c0.4-0.2,2.4-0.2,2.8,0c0,0,0.1,0,0.1,0c0.1,0,0.3,0,0.4,0.1c0,0,0.1,0,0.3,0.1
			c0.2,0.1,1,0.4,1,0.4c0,0,0,0,0,0c0,0,0.4,0.2,0.5,0.3c0.5,0.3,0.8,0.6,1.1,0.9c0.1,0.1,0.1,0.1,0.2,0.2c0.3,0.3,0.7,0.9,0.9,1.3
			c0.1,0.3,0.2,0.6,0.2,0.7c0,0,0,0.1,0,0.1c0,0,0,0,0.1,0.4c0.2,0.9,0.1,1.1-0.1,2.2c0,0,0,0.1,0,0.1c0,0,0,0,0,0.1
			c0,0.1,0,0.2-0.1,0.3c0,0-0.1,0.1-0.1,0.2s-0.1,0.3-0.2,0.4s-0.1,0.2-0.1,0.2c0,0,0,0,0,0c0,0,0,0-0.1,0c0,0,0,0,0,0
			c0.1,0.3-1,1.6-1.7,2.1c-0.3,0.2-1,0.6-1.2,0.7c-0.1,0-0.1,0.1-0.2,0.1c0,0-0.1,0-0.1,0c0,0-0.1,0-0.2,0.1c-0.1,0-0.2,0.1-0.4,0.1
			c-0.3,0.1-0.4,0.1-0.3,0.1c0,0,0.5,0.2,0.7,0.3c0.3,0.1,0.5,0.2,0.5,0.2c0,0,0.1,0,0.2,0.1c0.1,0,0.3,0.1,0.3,0.1
			c0.1,0,0.1,0,0.2,0.1c0.1,0,0.7,0.2,1.2,0.2c0.6,0.1,0.6,0.1,0.3,0.2c-0.1,0.1-0.2,0.1-0.1,0.1c0,0,0.2-0.1,0.3-0.2
			c0.2-0.1,0.3-0.2,0.3-0.2s0,0,0,0c0,0,0,0,0.1-0.1c0.4-0.2,1.3-1,1.6-1.4c0,0,0.1-0.1,0.1-0.1c0.3-0.3,0.5-0.7,0.8-1.3
			c0.1-0.3,0.1-0.3,0-0.2c-0.2,0-0.3,0-0.3,0c0,0-0.1-0.1-0.2-0.2c-0.1-0.1-0.2-0.2-0.2-0.2c0-0.1-0.1-0.1-0.2-0.2
			c-0.1,0-0.2-0.1-0.2-0.2L24.2,21v-1.7c0-1.8,0-1.9,0.1-1.8c0,0,0,0,0-0.1c0-0.2,0.1-0.4,0.3-0.5c0.1,0,0.1-0.1,0.2-0.1
			c0,0,0.1-0.2,0.3-0.3l0.2-0.2l0.2,0c0.2,0,0.2,0,0.2,0c0,0,0-0.2-0.1-0.3c0-0.2-0.1-0.4-0.1-0.4c0-0.1-0.1-0.2-0.1-0.2
			c0-0.1,0-0.1,0-0.2c0,0,0-0.1-0.1-0.1c-0.4-0.9-0.8-1.5-1-1.5c-0.1,0-0.3-0.1-0.5-0.2c-0.5-0.6-1.4-1.2-2.2-1.6
			c-0.2-0.1-1-0.4-1-0.4c0,0-0.1,0-0.1,0c-0.2-0.1-1-0.3-1.4-0.4c-0.1,0-0.3-0.1-0.3-0.1c-0.1,0-0.6-0.1-1.1-0.1
			C17.5,10.6,16.6,10.6,16.5,10.6 M28.2,10.9C28.2,10.9,28.2,11,28.2,10.9C28.3,10.9,28.3,10.9,28.2,10.9
			C28.3,10.9,28.2,10.9,28.2,10.9 M28.4,11.2c0,0,0.1,0.2,0.1,0.2c0,0,0,0,0,0c0,0.1,0.1,0.3,0.1,0.2c0,0,0-0.1,0-0.1
			c0,0-0.1-0.1-0.1-0.1c0,0,0-0.1,0-0.1C28.5,11.4,28.5,11.3,28.4,11.2C28.4,11.2,28.4,11.2,28.4,11.2 M22.8,11.8
			C22.8,11.8,22.8,11.8,22.8,11.8c0.1,0.1,0.2,0.1,0.2,0.1C23,11.9,22.9,11.9,22.8,11.8C22.8,11.8,22.8,11.8,22.8,11.8 M11,12.4
			c-0.1,0.1-0.2,0.2-0.2,0.2S10.9,12.5,11,12.4c0.2-0.1,0.2-0.2,0.2-0.2C11.2,12.2,11.1,12.2,11,12.4 M23.7,12.5
			c0.1,0.1,0.2,0.2,0.2,0.2C23.9,12.7,23.9,12.6,23.7,12.5c-0.1-0.1-0.2-0.2-0.2-0.2C23.5,12.3,23.6,12.4,23.7,12.5 M10.6,12.7
			L10.6,12.7L10.6,12.7C10.7,12.6,10.7,12.6,10.6,12.7C10.7,12.6,10.7,12.6,10.6,12.7 M24.5,13.1c0,0,0.1,0,0.1,0
			C24.7,13.1,24.6,13.1,24.5,13.1C24.5,13.1,24.5,13.1,24.5,13.1 M10,20.7L10,20.7L10,20.7C10.1,20.6,10.1,20.6,10,20.7
			C10.1,20.6,10.1,20.7,10,20.7 M12.6,22.1C12.6,22.1,12.6,22.1,12.6,22.1C12.6,22.1,12.6,22,12.6,22.1C12.6,22,12.6,22,12.6,22.1
			 M21.3,22.4l-0.1,0.1L21.3,22.4c0.1-0.1,0.1-0.1,0.1-0.1C21.4,22.3,21.4,22.3,21.3,22.4 M25.5,23.1C25.5,23.2,25.4,23.2,25.5,23.1
			C25.5,23.2,25.5,23.2,25.5,23.1C25.5,23.1,25.6,23,25.5,23.1C25.5,23,25.5,23.1,25.5,23.1 M12.5,23.9C12.5,24,12.5,24,12.5,23.9
			C12.5,23.9,12.5,23.9,12.5,23.9C12.5,23.8,12.5,23.8,12.5,23.9 M24.2,24.6L24,24.8L24.2,24.6c0.1-0.1,0.2-0.2,0.2-0.2
			C24.4,24.4,24.4,24.5,24.2,24.6 M21.6,25.6C21.5,25.6,21.4,25.6,21.6,25.6C21.6,25.6,21.7,25.5,21.6,25.6
			C21.6,25.5,21.6,25.6,21.6,25.6 M21.2,25.7c-0.1,0-0.1,0.1-0.1,0.1C21.1,25.8,21.2,25.8,21.2,25.7c0,0,0,0,0.1,0
			c0.1,0,0.1,0,0.1,0C21.4,25.6,21.3,25.7,21.2,25.7 M17.9,25.8c0.2,0,0.5,0,0.7,0c0.2,0,0,0-0.3,0S17.7,25.8,17.9,25.8 M17.4,25.8
			C17.4,25.8,17.4,25.8,17.4,25.8c-0.1,0.1,0.1,0,0.1,0C17.6,25.8,17.5,25.8,17.4,25.8 M19,25.8c0.1,0,0.1,0.1,0.2,0.1l0.1,0.1
			l-0.1-0.1C19.2,25.8,19,25.8,19,25.8C19,25.8,19,25.8,19,25.8 M20.4,26C20.3,26,20.4,26,20.4,26c0.2,0,0.2,0,0.1,0
			C20.4,25.9,20.4,25.9,20.4,26 M19.4,26.1c0,0,0.1,0.1,0.1,0.1c0.1,0,0.1,0,0,0C19.5,26.1,19.4,26.1,19.4,26.1
			C19.3,26,19.3,26,19.4,26.1 M19.9,26.1c-0.1,0,0,0,0.1,0c0.1,0,0.1,0,0,0C20,26,19.9,26,19.9,26.1 M19.6,26.1c0,0,0.1,0,0.1,0
			S19.7,26.1,19.6,26.1C19.6,26.1,19.6,26.1,19.6,26.1 M17,26.4C17,26.5,17.1,26.5,17,26.4C17.1,26.4,17.1,26.4,17,26.4
			C17.1,26.3,17,26.3,17,26.4 M17.9,27.2c0.2,0,0.5,0,0.7,0c0.2,0,0,0-0.3,0C17.9,27.1,17.7,27.1,17.9,27.2"/>
		<path id="path3_1_" class="st9" d="M16.6,3.9C16.6,3.9,16.5,3.9,16.6,3.9C16.5,3.9,16.5,4,16.6,3.9c0,0,0.1,0,0.2,0
			c0.1,0,0.2,0,0.2,0C17,3.8,16.6,3.8,16.6,3.9 M18.1,3.9C18.1,3.9,18.1,3.9,18.1,3.9c0.1,0,0.2,0.1,0.3,0.1c0.1,0,0.2,0,0.2,0
			c0,0-0.1,0-0.1,0c0,0,0,0-0.2,0C18.1,3.9,18,3.9,18.1,3.9 M16.2,3.9C16.2,4,16.2,4,16.2,3.9c0.1,0.1,0.1,0,0.1,0
			C16.3,3.9,16.2,3.9,16.2,3.9 M18.7,3.9c0,0,0.1,0.1,0.2,0.1c0,0,0,0,0,0S18.8,4,18.7,3.9C18.8,3.9,18.8,3.9,18.7,3.9
			C18.7,3.9,18.7,3.9,18.7,3.9 M15.9,4C16,4,16,4,15.9,4C15.8,4.1,15.8,4.1,15.9,4C15.9,4.1,16,4,16,4L16.1,4L15.9,4
			C15.9,4,15.9,4,15.9,4 M19,4c0,0,0.1,0,0.2,0c0.1,0,0.1,0,0,0c-0.1,0-0.1-0.1,0-0.1C19.2,4,19.2,4,19,4C19,4,19,4,19,4 M15.6,4.1
			C15.6,4.1,15.6,4.1,15.6,4.1C15.8,4,15.8,4,15.6,4.1C15.7,4,15.6,4.1,15.6,4.1 M19.4,4.1C19.5,4.1,19.5,4.1,19.4,4.1
			C19.5,4.1,19.4,4,19.4,4.1C19.3,4,19.3,4,19.4,4.1 M15.4,4.1C15.4,4.1,15.5,4.1,15.4,4.1C15.5,4.1,15.5,4.1,15.4,4.1
			C15.5,4.1,15.5,4.1,15.4,4.1C15.5,4.1,15.4,4.1,15.4,4.1 M15.2,4.2C15.2,4.2,15.2,4.2,15.2,4.2c0.1,0,0.1,0,0.1,0
			C15.4,4.1,15.3,4.1,15.2,4.2 M19.8,4.2c0,0,0.1,0.1,0.1,0.1c0,0,0,0,0,0C19.9,4.1,19.8,4.1,19.8,4.2 M15.1,4.2
			C15.1,4.2,15.1,4.2,15.1,4.2C15.1,4.3,15.1,4.3,15.1,4.2C15.1,4.2,15.1,4.2,15.1,4.2C15.1,4.2,15.1,4.2,15.1,4.2 M20,4.2
			C20,4.3,20.1,4.3,20,4.2C20.2,4.3,20.2,4.3,20,4.2C20.1,4.2,20.1,4.2,20,4.2C20.1,4.2,20,4.2,20,4.2 M15,4.3
			C15,4.3,14.9,4.3,15,4.3C14.9,4.3,14.9,4.3,15,4.3C15,4.3,15,4.3,15,4.3C15,4.3,15,4.2,15,4.3C15,4.2,15,4.3,15,4.3 M20.2,4.3
			C20.2,4.3,20.2,4.3,20.2,4.3C20.3,4.3,20.3,4.3,20.2,4.3C20.2,4.2,20.2,4.2,20.2,4.3 M14.8,4.3C14.8,4.4,14.8,4.4,14.8,4.3
			C14.8,4.4,14.9,4.4,14.8,4.3C14.9,4.3,14.8,4.3,14.8,4.3C14.8,4.3,14.8,4.3,14.8,4.3 M20.4,4.3c0,0,0.1,0,0.1,0c0.1,0,0.1,0,0.1,0
			c0,0,0,0,0,0c0.1,0,0-0.1,0-0.1c0,0-0.1,0-0.1,0C20.5,4.3,20.5,4.3,20.4,4.3C20.4,4.3,20.4,4.3,20.4,4.3 M14.6,4.4
			C14.6,4.4,14.7,4.4,14.6,4.4C14.7,4.4,14.7,4.3,14.6,4.4C14.6,4.3,14.6,4.4,14.6,4.4 M14.5,4.4C14.5,4.5,14.5,4.5,14.5,4.4
			c-0.1,0-0.1,0-0.1,0.1c0,0,0,0-0.1,0c0,0-0.1,0-0.1,0c0,0,0.1,0,0.1,0C14.4,4.5,14.5,4.5,14.5,4.4C14.6,4.5,14.6,4.4,14.5,4.4
			C14.6,4.4,14.6,4.4,14.5,4.4 M20.7,4.4C20.7,4.5,20.7,4.5,20.7,4.4C20.7,4.5,20.7,4.5,20.7,4.4C20.8,4.5,20.8,4.5,20.7,4.4
			C20.7,4.4,20.7,4.4,20.7,4.4 M20.9,4.5C20.9,4.5,20.9,4.5,20.9,4.5C20.9,4.5,21,4.5,20.9,4.5C21,4.5,20.9,4.5,20.9,4.5
			C20.9,4.5,20.9,4.5,20.9,4.5 M21,4.6C21,4.6,21,4.6,21,4.6C21.1,4.6,21.1,4.6,21,4.6C21.1,4.5,21.1,4.5,21,4.6
			C21,4.5,21,4.5,21,4.6 M14.2,4.6C14.2,4.6,14.2,4.6,14.2,4.6C14.2,4.6,14.2,4.6,14.2,4.6C14.2,4.6,14.2,4.6,14.2,4.6
			C14.2,4.6,14.1,4.6,14.2,4.6 M21.1,4.6C21.1,4.6,21.2,4.6,21.1,4.6C21.3,4.7,21.3,4.7,21.1,4.6C21.2,4.6,21.1,4.6,21.1,4.6
			 M14.1,4.7C14.1,4.7,14.1,4.7,14.1,4.7c-0.1,0-0.1,0-0.1,0.1c0,0,0,0,0,0C14,4.7,14.1,4.7,14.1,4.7C14.1,4.6,14.1,4.6,14.1,4.7
			 M21.3,4.7C21.3,4.7,21.4,4.7,21.3,4.7c0.2,0.1,0.2,0.1,0.1,0C21.3,4.6,21.3,4.6,21.3,4.7 M13.8,4.8C13.8,4.8,13.8,4.8,13.8,4.8
			C13.9,4.8,13.9,4.8,13.8,4.8C13.9,4.8,13.9,4.7,13.8,4.8C13.8,4.7,13.8,4.8,13.8,4.8 M21.6,4.8C21.6,4.8,21.6,4.8,21.6,4.8
			c0.1,0,0.1,0,0.1,0.1c0,0,0,0,0.1,0c0,0,0,0,0,0c0,0,0,0,0.1,0c0.1,0,0.1,0,0,0c0,0-0.1,0-0.1,0c0,0-0.1,0-0.1-0.1
			C21.6,4.7,21.6,4.7,21.6,4.8 M13.7,4.9C13.7,4.9,13.7,4.9,13.7,4.9c-0.1,0-0.1,0.1-0.1,0.1C13.6,5,13.6,5,13.7,4.9
			C13.7,4.9,13.7,4.9,13.7,4.9C13.7,4.8,13.7,4.8,13.7,4.9 M21.9,4.9C21.9,5,22,5,21.9,4.9C22.1,5,22.1,5,22.1,5
			C22.1,5,22.1,4.9,21.9,4.9C22,5,22,5,21.9,4.9C21.9,4.9,21.9,4.9,21.9,4.9 M13.3,5.2c-0.1,0.1-0.2,0.1-0.2,0.1
			c-0.1,0-0.3,0.2-0.3,0.3c0,0,0,0,0,0c0,0-0.2,0.1-0.2,0.1c0,0-0.1,0.1-0.1,0.2c0,0,0,0,0,0.1c0,0,0.1,0,0.1-0.1
			c0.1-0.2,0.8-0.8,0.9-0.8c0.1,0,0.1-0.1,0-0.1C13.4,5,13.3,5.1,13.3,5.2 M22.1,5C22.1,5.1,22.2,5.1,22.1,5
			c0.1,0.1,0.2,0.1,0.2,0.1c0,0,0,0,0.1,0c0.1,0.1,0.2,0.1,0.4,0.2c0,0,0.1,0.1,0.1,0.1c0.1,0.1,0.1,0.1,0.1,0c0,0,0,0-0.1,0
			c-0.1,0-0.1,0-0.1-0.1c0-0.1,0-0.1-0.1-0.1c-0.1,0-0.1,0-0.1,0c0,0,0,0-0.1,0c0,0-0.1,0-0.1-0.1c0,0-0.1-0.1-0.1-0.1
			c0,0,0,0-0.1-0.1c0,0-0.1-0.1-0.1-0.1C22.2,5.1,22.2,5.1,22.1,5C22.1,5,22.1,5,22.1,5 M23.1,5.6C23.1,5.7,23.2,5.7,23.1,5.6
			C23.2,5.6,23.2,5.6,23.1,5.6C23.1,5.6,23.1,5.6,23.1,5.6 M23.3,5.7c0,0,0.1,0.1,0.1,0.1c0,0,0,0,0,0c0,0,0.2,0.1,0.2,0.1
			c0,0,0,0,0,0c0,0,0,0-0.1,0c0,0-0.1,0-0.1-0.1C23.5,5.8,23.4,5.7,23.3,5.7C23.4,5.7,23.3,5.7,23.3,5.7C23.3,5.7,23.3,5.7,23.3,5.7
			 M12.3,6C12.3,6,12.3,6.1,12.3,6c0,0.1,0,0.1-0.1,0.1c0,0,0,0,0,0C12.3,6.2,12.4,6.1,12.3,6C12.3,6,12.3,6,12.3,6 M23.8,6
			c0,0,0.1,0.1,0.1,0.1c0,0,0,0,0,0c0,0,0,0-0.1,0C23.9,6.1,23.8,6.1,23.8,6C23.8,6,23.8,6,23.8,6 M24,6.2C24,6.2,24,6.3,24,6.2
			c0,0,0.1,0.1,0.3,0.2c0,0,0.1,0.1,0.1,0.1s0,0,0,0c0,0,0,0,0.1,0c0,0,0,0,0,0c0,0-0.1,0-0.1,0s-0.1-0.1-0.1-0.1
			C24.2,6.3,24.2,6.2,24,6.2C24.1,6.2,24.1,6.2,24,6.2C24,6.2,24,6.2,24,6.2 M12.1,6.3C12.1,6.3,12.1,6.3,12.1,6.3
			C12.2,6.3,12.2,6.3,12.1,6.3C12.2,6.2,12.2,6.2,12.1,6.3C12.1,6.2,12.1,6.2,12.1,6.3 M12,6.5C12,6.5,11.9,6.5,12,6.5
			C11.9,6.5,11.9,6.5,12,6.5C11.9,6.6,12,6.5,12,6.5C12,6.4,12,6.4,12,6.5C12,6.4,12,6.4,12,6.5 M11.8,6.6c0,0.1,0,0.1-0.2,0.1
			c-0.1,0-0.1,0-0.1,0c0,0-0.1,0-0.1,0c-0.1,0-0.1,0-0.1,0c0,0-0.1,0-0.2,0c-0.1,0-0.2,0-0.2,0c0,0,0,0-0.1,0c-0.1,0-0.1,0-0.1,0
			c0,0,0,0-0.1,0c-0.1,0-0.1,0-0.1,0c0,0,0,0-0.1,0c-0.1,0-0.1,0-0.1,0c0,0,0,0-0.1,0c0,0-0.1,0-0.1,0c0,0,0,0-0.1,0s-0.1,0-0.1,0
			c0,0,0,0-0.1,0c0,0-0.1,0-0.1,0c0,0,0,0-0.1,0c0,0-0.1,0-0.1,0c0,0,0,0-0.1,0c-0.1,0-0.1,0-0.1,0c0,0,0,0-0.1,0c0,0-0.1,0-0.1,0
			s0,0,0,0c0,0,0,0,0,0c0,0,0,0-0.1,0c-0.1,0-0.1,0-0.1,0.1c0,0.1,0,0.1-0.1,0.1c0,0-0.1,0-0.1,0c0,0,0,0-0.1,0c0,0-0.1,0-0.1,0
			c0,0-0.1,0.1-0.1,0.1c-0.1,0-0.1,0-0.1,0.1c0,0,0,0.1-0.1,0.1c0,0,0,0,0,0c0,0-0.1,0-0.1,0c-0.1,0-0.1,0-0.1,0c0,0,0,0-0.1,0
			c0,0-0.1,0-0.1,0.1c0,0.1-0.1,0.1-0.1,0.1c0,0-0.1,0-0.1,0.1c0,0,0,0.1-0.1,0c0,0-0.1,0-0.1,0c0,0.1-0.1,0.1-0.2,0.1
			c0,0-0.1,0-0.1,0.1c0,0,0,0.1,0,0c0,0,0,0,0,0c0,0,0,0,0,0c-0.1,0-0.2,0.1-0.2,0.2c0,0-0.1,0.1-0.1,0.1c0,0-0.1,0-0.1,0.1
			c0,0,0,0,0,0c0,0-0.1,0-0.1,0.1c0,0-0.1,0.1-0.1,0.1C6.2,9.1,6.2,9.2,6.2,9.2c0,0,0,0,0,0c0,0,0,0,0,0c0,0,0,0,0,0c0,0,0,0,0,0
			c0,0,0,0-0.1,0c0,0-0.1,0-0.1,0.1c0,0,0,0.1,0,0.1c-0.1,0-0.1,0.1-0.1,0.1c0,0,0,0.1-0.1,0.1c0,0-0.1,0.1-0.1,0.1c0,0,0,0-0.1,0.1
			c0,0-0.1,0-0.1,0.1c0,0,0,0.1,0,0.1c0,0,0,0,0,0.1c0,0,0,0.1,0,0.1c0,0,0,0,0,0c0,0,0,0,0,0c0,0,0,0,0,0.1c0,0,0,0.1,0,0.1
			c0,0,0,0,0,0.1c0,0,0,0.1,0,0.1c0,0,0,0,0,0.1c0,0,0,0.1,0,0.1c0,0,0,0,0,0.1c0,0,0,0.1,0,0.1c0,0,0,0,0,0.1c0,0,0,0.1,0,0.1
			c0,0,0,0,0,0.1C5.1,11,5,11,5,11c0,0,0,0.1,0,0.1c0,0.1,0,0.1,0,0.1c0,0,0,0,0,0s0,0,0,0c0,0,0,0,0,0.2c0,0.2,0,0.2,0,0.2
			c0,0,0,0,0,0.1c0,0.1,0,0.1,0,0.1c0,0,0,0,0,0.2c0,0.2,0,0.2,0,0.2c-0.1,0-0.1,0.8,0,0.8c0,0,0,0.1,0,0.2c0,0.2,0,0.2,0,0.2
			c0,0,0,0,0,0.2c0,0.1,0,0.2,0,0.2c0,0,0,0,0,0.2c0,0.1,0,0.2,0,0.2c0,0,0,0,0,0.1c0,0,0,0.1,0,0.1s0,0,0,0.1c0,0.1,0,0.1,0,0.1
			c0,0,0,0,0,0.1c0,0,0,0.1,0,0.1c0,0,0,0,0,0.1c0,0,0,0.1,0,0.1c0.1,0,0.1,0.2,0,0.3c0,0-0.1,0.1-0.1,0.1S5,15.5,4.9,15.5
			c-0.1,0-0.1,0-0.1,0.1c0,0,0,0.1,0,0.1c-0.1,0-0.1,0.1-0.1,0.1c0,0,0,0.1-0.1,0.1c0,0-0.1,0-0.1,0.1c0,0,0,0.1,0,0.1c0,0,0,0,0,0
			s0,0-0.1,0.1c0,0-0.1,0.1-0.1,0.1c0,0,0,0.1,0,0.1c0,0,0,0,0,0.1c0,0,0,0.1,0,0.1c-0.1,0-0.1,0.1-0.1,0.1c0,0,0,0.1-0.1,0.1
			c0,0,0,0.1,0,0.1c0,0,0,0,0,0.1c0,0,0,0,0,0.1c0,0,0,0,0,0c0,0,0,0,0,0.1c0,0,0,0.1,0,0.1c0,0,0,0,0,0.1c0,0,0,0.1,0,0.1s0,0,0,0
			c0,0,0,0,0,0c0,0-0.1,0.2-0.1,0.2c0,0,0,0.1,0,0.1c0,0,0,0,0,0.1c0,0,0,0.1,0,0.1c0,0,0,0,0,0.1c0,0,0,0.1,0,0.1c0,0,0,0,0,0.1
			c0,0,0,0.1,0,0.1c0,0,0,0.1,0,0.1c0,0,0,0.1,0,0.1c0,0,0,0,0,0.1s0,0.1,0,0.1c0,0,0,0,0,0.1s0,0.1,0,0.1c0,0,0,0,0,0.1
			c0,0.1,0,0.1,0,0.1c0,0,0,0,0,0.1c0,0.1,0,0.1,0,0.1c0,0,0,0,0,0.1c0,0.1,0,0.1,0,0.1c0,0,0,0,0,0.1c0,0.1,0,0.1,0,0.1
			c0,0,0,0,0,0.2c0,0.1,0,0.2,0,0.2c0,0,0,0.1,0,0.2c0,0.1,0,0.2,0,0.2c-0.1,0-0.1,1.5,0,1.5c0,0,0,0,0,0.2c0,0.1,0,0.2,0,0.2
			c0,0,0,0,0,0.2c0,0.1,0,0.2,0,0.2c0,0,0.1,0.1,0,0.2c0,0.1,0,0.1,0,0.1c0,0,0,0,0,0.1c0,0.1,0,0.1,0,0.1c0,0,0,0,0,0.1
			c0,0.1,0,0.1,0,0.1c0,0,0,0,0,0.1c0,0,0,0.1,0,0.1c0,0,0,0,0,0.1c0,0,0,0.1,0,0.1c0,0,0,0,0,0.1c0,0.1,0,0.1,0,0.1c0,0,0,0,0,0.1
			c0,0,0,0,0,0c0,0,0,0,0,0.1c0,0.1,0,0.1,0,0.1c0,0,0,0,0,0.1c0,0.1,0,0.2,0.1,0.2c0,0,0,0,0,0.1c0,0,0,0.1,0,0.1c0,0,0,0,0,0.1
			c0,0,0,0.1,0,0.1c0,0,0,0,0,0c0,0,0,0,0,0.1c0,0,0,0,0,0.1c0,0,0,0.1,0,0.1c0,0,0.1,0.1,0.1,0.1c0,0,0,0,0,0c0,0,0,0,0,0
			c0,0,0.1,0.1,0.1,0.1c0,0,0,0,0,0.1c0,0,0,0.1,0,0.1c0,0,0,0,0,0.1c0,0,0,0.1,0,0.1c0.1,0,0.1,0.1,0.1,0.1c0,0,0.1,0.2,0.2,0.2
			c0,0,0.1,0.1,0.1,0.1c0,0,0.1,0.1,0.2,0.1c0,0,0.1,0.1,0.1,0.1c0,0,0,0,0,0c0,0,0.1,0,0,0c0,0,0,0,0,0.1c0,0,0.1,0,0.1,0.1
			c0,0,0.1,0.1,0.2,0.1c0,0,0.2,0.2,0.2,0.2c0,0,0,0.1,0.1,0.1c0,0,0,0,0,0c0,0.1,0.3,0.3,0.4,0.3c0.1,0,0.1,0,0.1,0.1
			c0,0.1,0.1,0.1,0.2,0.1c0,0,0,0,0,0c0,0.1,0.1,0.2,0.2,0.2c0,0,0.1,0,0.2,0.1c0,0,0.1,0.1,0.1,0c0,0,0.1,0,0.1,0
			c0,0,0.1,0.1,0.1,0.1c0,0,0.1,0,0.1,0.1c0,0,0.1,0.1,0.1,0.1c0,0,0.1,0,0.1,0.1c0,0,0,0,0.1,0s0.1,0,0.1,0c0,0,0,0,0.1,0
			c0,0,0.1,0,0,0c0,0,0,0,0,0c0,0,0,0,0,0c0,0,0,0,0.1,0c0,0,0.1,0,0.1,0c0,0,0,0,0.1,0c0,0,0.1,0,0.1,0c0,0,0,0,0,0
			c0,0,0.1,0,0.1,0.1c0,0,0.1,0.1,0.1,0.1c0.1,0,0.1,0,0.1,0c0,0,0,0,0,0c0,0,0.1,0,0.1,0c0,0,0,0,0.1,0c0,0,0.1,0,0.1,0
			c0,0,0,0,0.1,0c0,0,0.1,0,0.1,0c0,0,0,0,0.1,0s0.1,0,0.1,0c0,0,0,0,0.1,0c0.1,0,0.1,0,0.1,0c0,0,0,0,0.1,0c0,0,0.1,0,0.1,0
			c0,0,0,0,0.1,0c0,0,0.1,0,0.1,0c0,0,0,0,0.1,0c0,0,0.1,0,0.1,0c0,0,0.2,0.1,0.2,0.1c0,0,0.1,0,0.1,0c0,0,0,0,0.1,0
			c0,0,0.1,0,0.1,0c0,0,0.1,0,0.1,0c0,0,0.1,0,0.1,0s0,0,0.1,0c0.1,0,0.1,0,0.1,0c0,0,0.1,0,0.1,0c0.1,0,0.1,0,0.1,0c0,0,0,0,0.1,0
			c0,0,0.1,0,0.1,0c0,0,0.1,0,0.1,0c0.1,0,0.1,0,0.1,0c0,0,0.1,0,0.1,0c0.1,0,0.1,0,0.1,0c0,0,0,0,0.1,0c0.1,0,0.1,0,0.1,0
			c0,0,0.1,0,0.2,0c0.1,0,0.2,0,0.2,0c0,0,0,0,0.1,0c0.1,0,0.1,0,0.1,0c0,0,0,0,0.2,0c0.2,0,0.2,0,0.3,0c0,0,0.1,0,0.2,0
			c0.1,0,0.2,0,0.2,0c0,0,0.1,0,0.2,0c0.1,0,0.2,0,0.3,0c0.1,0.1,3.2,0,3.2,0c0,0,0.1,0,0.2,0c0.2,0,0.2,0,0.2,0c0,0,0.1,0,0.2,0
			c0.1,0,0.2,0,0.2,0c0,0,0.1,0,0.3,0c0.2,0,0.2,0,0.2,0c0,0,0,0,0.1,0c0.1,0,0.1,0,0.1,0c0,0,0,0,0.2,0c0.1,0,0.2,0,0.2,0
			c0,0,0.1,0,0.2,0c0.1,0,0.1,0,0.1,0c0,0,0.1,0,0.1,0c0.1,0,0.1,0,0.1,0c0,0,0.1,0,0.2,0c0.1,0,0.2,0,0.2,0c0,0,0,0,0.1,0
			c0.1,0,0.1,0,0.1,0c0,0,0,0,0.1,0c0,0,0.1,0,0.1,0c0,0,0.1,0,0.1,0c0.1,0,0.1,0,0.1,0c0,0,0,0,0.1,0c0.1,0,0.1,0,0.1,0
			c0,0,0,0,0.1,0c0.1,0,0.1,0,0.1,0c0,0,0,0,0.1,0c0.1,0,0.1,0,0.1,0c0,0,0,0,0.1,0c0,0,0.1,0,0.1,0c0,0,0,0,0.2,0c0,0,0.1,0,0.1,0
			c0,0,0,0,0.1,0s0.1,0,0.1,0c0,0,0,0,0.1,0c0,0,0.1,0,0.1,0c0,0,0,0,0.1,0c0,0,0.1,0,0.1,0c0,0,0,0,0.1,0c0,0,0.1,0,0.1,0
			c0,0,0.1,0,0.1,0c0.1,0,0.1,0,0.1,0c0,0,0,0,0,0c0,0,0,0,0.1,0c0,0,0,0,0.1,0c0,0,0.1,0,0.1,0c0,0,0,0,0.1,0c0.1,0,0.1,0,0.1,0
			c0,0,0,0,0.1,0c0,0,0.1,0,0.1,0s0,0,0.1,0c0,0,0.1,0,0.1,0c0,0,0,0,0.1,0c0.1,0,0.1,0,0.1,0s0,0,0.1,0c0,0,0.1,0,0.1,0
			c0,0,0,0,0,0c0,0,0,0,0.1,0c0,0,0,0,0.1,0c0,0,0.1,0,0.1,0c0,0,0,0,0.1,0c0,0,0.1,0,0.1,0c0,0,0,0,0.1,0c0,0,0.1,0,0.1,0
			c0,0,0,0,0.1,0c0,0,0.1,0,0.1,0c0,0,0,0,0.1,0c0,0,0.1,0,0.1,0c0,0,0,0,0,0c0,0,0,0,0.1,0c0,0,0,0,0.1,0c0,0,0.1,0,0.1,0
			c0,0,0,0,0,0c0,0,0,0,0,0c0,0,0,0,0.1,0c0.1,0,0.1,0,0.1-0.1c0,0,0,0,0.1,0c0,0,0.1,0,0.1,0c0,0,0,0,0.1,0s0.1,0,0.1-0.1
			c0,0,0.1-0.1,0.1-0.1c0,0,0.1,0,0.1,0c0,0,0.1-0.1,0.1-0.1c0,0,0.1-0.1,0.1-0.1c0,0,0,0,0.1,0c0,0,0.1,0,0.1,0c0,0,0,0,0,0
			c0.1,0,0.2-0.1,0.2-0.2c0,0,0,0,0.1,0c0,0,0.1,0,0.1,0c0,0,0.1-0.1,0.1-0.1c0,0,0,0,0.1,0c0,0,0.1,0,0.1,0c0,0,0.1,0,0.1,0
			c0-0.1,0.1-0.1,0.2-0.1c0,0,0.1,0,0.1-0.1c0,0,0,0,0.1,0c0,0,0.1,0,0.1-0.1c0,0,0.1-0.1,0.1-0.1s0.1-0.1,0.1-0.1c0,0,0.1,0,0.1,0
			c0,0,0,0,0,0c0,0,0,0,0,0c0,0,0.1,0,0.1-0.1c0,0,0-0.1,0.1-0.1c0.1,0,0.1-0.1,0.1-0.1c0,0,0.1-0.1,0.2-0.1c0,0,0.1,0,0.1-0.1
			c0.1,0,0.1-0.1,0.2-0.1c0,0,0.1-0.1,0.1-0.1c0,0,0.1-0.1,0.1-0.1c0,0,0.1,0,0.1-0.1c0,0,0.4-0.4,0.5-0.4c0,0,0,0,0.1-0.1
			c0,0,0.1-0.1,0.1-0.1c0,0,0.1,0,0.1-0.1c0,0,0-0.1,0.1-0.1c0.1,0,0.2-0.1,0.2-0.2c0,0,0,0,0,0c0,0,0,0,0,0c0-0.1,0.1-0.2,0.2-0.2
			c0.1,0,0.2-0.1,0.1-0.2c0,0,0-0.1,0.1-0.1c0.1,0,0.1,0,0.1-0.1c0-0.1,0.2-0.2,0.2-0.2c0,0,0,0,0-0.1c0,0,0-0.1,0.1-0.1
			c0,0,0.1,0,0.1-0.1c0-0.1,0.1-0.2,0.1-0.2c0,0,0.1,0,0.1-0.1c0,0,0-0.1,0.1-0.1c0,0,0.1-0.1,0-0.1c0,0,0-0.1,0-0.1c0,0,0,0,0,0
			s0,0,0.1-0.1c0,0,0.1-0.1,0.1-0.1c0,0,0,0,0,0c0,0,0,0,0-0.1c0,0,0-0.1,0.1-0.1c0,0,0.1-0.1,0.1-0.1c0,0,0-0.1,0-0.1
			c0,0,0,0,0-0.1s0-0.1,0-0.1c0,0,0,0,0-0.1c0,0,0-0.1,0.1-0.1c0,0,0.1-0.1,0.1-0.1c0,0,0-0.1,0-0.1c0,0,0,0,0,0c0,0,0,0,0,0
			c0,0,0,0,0,0c0,0,0-0.1,0-0.1c0,0,0,0,0-0.1c0-0.1,0-0.1,0-0.1c0,0,0,0,0-0.1c0-0.1,0-0.1,0-0.1c0,0,0,0,0,0c0,0,0-0.1,0-0.1
			c0,0,0,0,0-0.1c0,0,0-0.1,0-0.1c0,0,0,0,0-0.1c0,0,0,0,0,0c0,0,0,0,0-0.1c0-0.1,0-0.1,0-0.1c0,0,0,0,0-0.1c0,0,0-0.1,0-0.1
			c0,0,0,0,0-0.1s0-0.1,0-0.1c0,0,0,0,0-0.1c0-0.1,0-0.1,0-0.1c0,0,0,0,0-0.1c0-0.1,0-0.1,0-0.1c0,0,0,0,0-0.1c0-0.1,0-0.1,0-0.1
			c0,0,0,0,0-0.2c0-0.1,0-0.2,0-0.2c0,0,0,0,0-0.1c0-0.1,0-0.1,0-0.1c0,0,0-0.1,0-0.2c0-0.1,0-0.2,0-0.2c0.1,0,0.1-1.3,0-1.4
			c0,0,0-0.1,0-0.2c0-0.1,0-0.2,0-0.2c0,0,0,0,0-0.1c0-0.1,0-0.1,0-0.1c0,0,0-0.1,0-0.2c0-0.1,0-0.2,0-0.2c0,0,0-0.1,0-0.1
			c0,0,0-0.1,0-0.1c0,0,0,0,0-0.1c0-0.1,0-0.1,0-0.1c0,0,0,0,0-0.1c0-0.1,0-0.1,0-0.1c0,0,0,0,0-0.1c0,0,0-0.1,0-0.1
			c0,0,0-0.1,0-0.1c0-0.1,0-0.1,0-0.1c0,0,0,0,0-0.1c0,0,0-0.1,0-0.1c0,0,0,0,0,0c0,0,0,0,0,0c0,0,0-0.1,0-0.1c0-0.1,0-0.1-0.1-0.1
			c-0.1,0-0.1,0,0-0.1c0-0.1,0-0.1,0-0.1c0,0,0,0,0-0.1c0,0,0-0.1-0.1-0.1c0,0-0.1-0.1-0.1-0.1c0,0,0-0.1-0.1-0.2
			c-0.1-0.1-0.1-0.1-0.1-0.1c0,0,0-0.1,0-0.1c0,0-0.1-0.1-0.1-0.1c0,0,0-0.1-0.1-0.1c-0.1,0-0.1-0.1-0.1-0.1c0,0,0-0.1-0.1-0.1
			c0,0-0.1-0.1-0.1-0.1s0-0.1-0.1-0.1c0,0-0.1-0.1-0.1-0.1s0-0.1,0-0.1c0,0,0,0,0-0.1c0-0.1,0-0.1-0.2-0.2c-0.1-0.1-0.1-0.1-0.2-0.2
			c0,0,0,0-0.1,0c0,0-0.1,0-0.1,0c0-0.1-0.4-0.4-0.5-0.4c0,0,0,0,0-0.1c0,0,0-0.1,0-0.1c-0.1,0-0.1,0,0,0.2c0.1,0.3,0.3,0.6,0.4,1
			c0,0.1,0.1,0.2,0.1,0.2c0,0,0,0.1,0.1,0.1c0,0.1,0.1,0.2,0.1,0.2s0.1,0.2,0.1,0.3c0,0.1,0.1,0.2,0.1,0.2c0,0.1,0.2,0.6,0.2,0.9
			c0,0.1,0.1,0.3,0.1,0.4c0.1,0.3,0.1,0.5,0.1,0.8c0,0.2,0,0.5,0.1,0.6c0.1,0.7,0,1.9-0.1,2.6c0,0.1,0,0.2-0.1,0.4
			c0,0.1-0.1,0.3-0.1,0.4c-0.1,0.3-0.3,0.8-0.3,0.8c0,0-0.1,0.1-0.1,0.3c-0.7,1.6-2.2,3-3.8,3.5c-0.1,0-0.2,0.1-0.2,0.1
			c-0.2,0.1-0.2,0.1-0.3,0.1c0,0-0.1,0-0.1,0c-0.1,0.1-0.4,0.1-0.9,0.2l-0.1,0l0.1-0.1c0.4-0.3,0.4-0.4,0.7-0.7
			c0.4-0.5,1-1.5,0.9-1.5c0,0,0,0,0,0c0,0,0,0,0,0c0,0,0,0,0,0c0,0,0,0,0,0c0,0,0,0,0,0c0,0-0.4,0.6-0.5,0.7c0,0,0,0-0.1,0.1
			c-0.3,0.4-1.1,1.1-1.7,1.5c-0.3,0.2-0.3,0.2-0.4,0.2c-0.1,0-0.1,0.1-0.1,0.1c0,0,0.4-0.2,0.4-0.2c0.1-0.1,0.6-0.3,0.6-0.2
			c0,0.1-0.7,0.6-1.2,0.9c-0.5,0.3-1.4,0.7-1.9,0.8c-0.1,0-0.1,0-0.2,0.1c-0.1,0-0.9,0.2-1,0.2c-0.3,0-0.3,0-0.3,0.2
			c-0.1,0.3-0.3,0.4-1.1,0.4c-0.8,0-1-0.1-1.2-0.3c-0.1-0.1-0.1-0.6,0-0.7l0.1-0.1l0,0.1c0.1,0.2,0.3,0.5,0.3,0.4c0,0,0,0-0.1-0.1
			c-0.3-0.1-0.4-0.7-0.2-1c0.1-0.3,0.3-0.3,1.1-0.3c0.8,0,0.8,0,1,0.2l0.2,0.2l0.2,0c0.2,0,0.3,0,0.8-0.1c0.2-0.1,0.7-0.2,0.8-0.2
			c0.1,0,0.2-0.1,0.2-0.1c0,0,0.1,0,0.1-0.1c0.1,0,0.2-0.1,0.4-0.2c0.2-0.1,0.3-0.1,0.4-0.2l0.1-0.1l-0.1,0c-0.1,0-0.3,0-0.5-0.1
			c-0.4-0.1-1-0.2-1.1-0.2c0,0-0.1,0-0.2-0.1c-0.1,0-0.2-0.1-0.3-0.1c-0.1,0-0.2-0.1-0.2-0.1c0,0-0.2-0.1-0.5-0.2
			c-0.2-0.1-0.7-0.3-0.7-0.3c-0.1,0,0-0.1,0.3-0.1c0.1,0,0.3-0.1,0.4-0.1c0.1,0,0.1-0.1,0.2-0.1c0,0,0.1,0,0.1,0
			c0,0,0.1-0.1,0.2-0.1c0.2-0.1,0.8-0.4,1.2-0.7c0.6-0.5,1.8-1.8,1.7-2.1c0,0,0,0,0,0c0,0,0,0.1,0,0.1c0,0-0.1,0.1-0.2,0.3
			c-0.3,0.4-0.9,1-1.2,1.2c-0.1,0-0.1,0.1-0.2,0.1c-0.2,0.1-1.1,0.6-1.2,0.6c0,0-0.1,0-0.1,0c0,0-0.4,0.2-0.7,0.2
			c-0.3,0.1-0.5,0.1-0.7,0.2c-0.1,0-0.3,0-0.3,0.1c-0.1,0-0.4,0-0.8,0c-0.6,0-0.7,0-0.5,0c0.1,0,0.5,0,0.8,0c0.6,0,0.6,0,0.9,0.2
			c0.1,0,0.1,0.1,0.1,0.1c0,0,0,0,0,0.1c-0.4,0.3-2.4,0.2-3.4-0.1c-0.1,0-0.2-0.1-0.3-0.1c-0.1,0-1,0.3-1.2,0.4c0,0-0.2,0.1-0.4,0.1
			c-0.2,0.1-0.5,0.1-0.6,0.2c-0.3,0.1-0.3,0.1-0.3,0c0-0.1,0-0.4,0.1-0.8c0-0.4,0.1-0.7,0.1-0.9c0.1-0.5,0-0.5-0.1-0.7
			c-0.3-0.3-0.5-0.6-0.7-1c-0.2-0.4-0.2-0.4-0.6-0.6c-0.1-0.1-0.3-0.1-0.3-0.2c-0.1,0-0.1-0.1-0.1-0.1s-0.1,0-0.1-0.1l-0.1-0.1
			l0-1.5l0-1.5l0,1.6l0,1.6l-0.1,0.1c0,0.1-0.2,0.1-0.2,0.2C9.8,20.9,9.7,21,9.7,21c0,0.1-0.1,0.2-0.3,0.3l-0.2,0.2l-0.5,0
			c-0.6,0-0.6,0-0.8-0.2c0,0-0.1-0.1-0.1-0.1c0,0,0.1,0.1,0.3,0.2c0.2,0.1,1.2,0.1,1.2,0c0,0,0-0.1,0-0.1c0,0,0.2-0.2,0.3-0.3
			c0.1-0.1,0.1-0.2,0.2-0.2c0,0,0.1,0,0.1-0.1c0,0,0,0,0.1,0c0,0.1-0.1,0.3-0.3,0.4c-0.1,0.1-0.2,0.1-0.2,0.2
			c-0.1,0.1-0.2,0.2-0.3,0.3c0,0-0.1,0.1-0.1,0.1c0,0.1,0,0.1-0.4,0.1c-0.7,0-1-0.1-1.2-0.5l-0.1-0.2l0-1.5c0-1.7,0-1.6-0.2-1.8
			c-0.3-0.3-0.9-1-1.1-1.4c-0.2-0.3-0.2-0.3-0.4-0.7c-0.4-0.6-0.4-0.7-0.3-0.8c0.8-0.8,1.2-1.2,1.8-1.7c0.1-0.1,0.3-0.2,0.3-0.2
			c0,0,0.1-0.1,0.2-0.1c0.1-0.1,0.2-0.1,0.2-0.1c0,0,0.2-0.1,0.4-0.3c0.6-0.4,1.2-0.8,1.9-1.1c0.1,0,0.1-0.1,0.2-0.1
			c0.2-0.1,0.1,0-0.3,0.3c-0.2,0.2-0.4,0.4-0.4,0.4c0,0,0.1,0,0.1-0.1c0.1-0.1,0.3-0.3,0.4-0.4c0.3-0.2,0.3-0.3,0.3-0.3
			c0,0,0-1,0-1.1c0-0.1,0-0.2,0.1-0.5c0-0.2,0.1-0.4,0.1-0.5c0-0.1,0-0.2,0.1-0.2c0.1-0.3,0.3-0.9,0.4-1.2c0.1-0.3,0.5-0.9,0.5-0.9
			C11.9,6.7,11.9,6.6,11.8,6.6C11.9,6.6,11.8,6.6,11.8,6.6 M24.6,6.6c0,0,1,0.9,1,0.9c0,0,0,0,0,0c0,0-0.1-0.1-0.1-0.1
			c0-0.1-0.3-0.3-0.4-0.3c0,0,0,0,0,0c0,0-0.2-0.2-0.3-0.2C24.8,6.8,24.8,6.7,24.6,6.6C24.7,6.7,24.6,6.6,24.6,6.6 M25.7,7.6
			C25.7,7.6,25.7,7.6,25.7,7.6C25.8,7.6,25.8,7.6,25.7,7.6C25.7,7.6,25.7,7.6,25.7,7.6C25.7,7.6,25.7,7.6,25.7,7.6
			C25.6,7.6,25.6,7.6,25.7,7.6 M25.8,7.7c0,0,0,0.1,0.1,0.1c0,0,0.1,0.1,0.2,0.2c0.1,0.1,0.1,0.1,0.1,0.1c0,0,0,0,0,0
			C26.1,8,26.1,8,26.1,8c0,0,0-0.1-0.1-0.1C25.8,7.7,25.8,7.7,25.8,7.7 M26.2,8.1C26.2,8.1,26.2,8.2,26.2,8.1c0,0,0.1,0.1,0.1,0.1
			c0,0.1,0.1,0.1,0.1,0.1c0,0,0,0,0,0c0,0,0,0,0-0.1c0,0,0-0.1-0.1-0.1C26.2,8.1,26.2,8.1,26.2,8.1 M26.5,8.5c0,0,0.1,0.2,0.2,0.2
			c0,0,0,0,0,0c0,0.1,0.1,0.1,0.1,0.1c0,0,0-0.1-0.1-0.1C26.7,8.7,26.6,8.5,26.5,8.5C26.6,8.4,26.5,8.4,26.5,8.5 M26.8,8.9
			C26.8,8.9,26.9,8.9,26.8,8.9C26.9,8.9,26.9,8.9,26.8,8.9C26.9,8.9,26.9,9,26.9,9c0,0,0,0,0,0c0,0,0,0,0,0s0,0,0,0
			c0,0,0.1,0.1,0.1,0.1c0.1,0.1,0.1,0.1,0.1,0.1c0,0,0,0-0.1-0.1c0,0-0.1,0-0.1-0.1c0,0,0,0,0,0c0,0,0,0,0,0c0,0,0-0.1-0.1-0.1
			c0,0-0.1-0.1-0.1-0.1C26.9,8.9,26.9,8.8,26.8,8.9C26.8,8.8,26.8,8.9,26.8,8.9 M27.3,9.5C27.3,9.5,27.3,9.5,27.3,9.5
			C27.4,9.5,27.4,9.5,27.3,9.5C27.4,9.5,27.4,9.4,27.3,9.5C27.3,9.4,27.3,9.4,27.3,9.5 M27.4,9.6C27.4,9.6,27.4,9.6,27.4,9.6
			c0,0,0.1,0.1,0.1,0.1c0,0,0.1,0.1,0.1,0.1c0,0,0.1,0.1,0.1,0.1c0,0,0.1,0.2,0.1,0.2c0,0,0,0,0-0.1c0,0,0-0.1-0.1-0.1
			c0,0,0,0,0-0.1c0,0,0-0.1-0.1-0.1c0,0-0.1,0-0.1-0.1s0-0.1,0-0.1c0,0,0,0,0-0.1c0,0,0-0.1,0-0.1C27.4,9.5,27.4,9.5,27.4,9.6
			 M27.8,10.2C27.8,10.2,27.8,10.2,27.8,10.2C27.9,10.2,27.9,10.2,27.8,10.2C27.9,10.2,27.9,10.1,27.8,10.2
			C27.8,10.1,27.8,10.2,27.8,10.2 M16.4,10.3c-0.1,0-0.3,0-0.5,0.1c-0.5,0.1-1.4,0.3-1.8,0.4c-1.4,0.5-2.3,1-3.1,1.7
			c-0.4,0.4-0.8,0.7-0.7,0.7c0,0,0.1-0.1,0.1-0.1c0.1-0.1,0.2-0.1,0.1,0.1c0,0.1,0,0.2,0,0.3c0,0.1,0.1,0.2,0.1,0.4
			c0,0.2,0.1,0.3,0.1,0.4c0,0.1,0,0.2,0.1,0.3c0,0.1,0.1,0.3,0.1,0.3c0,0.1,0.1,0.2,0.1,0.3s0.1,0.2,0.1,0.3c0,0.1,0.1,0.2,0.1,0.3
			c0,0.1,0.1,0.2,0.1,0.2c0.1,0.3,0.2,0.6,0.1,0.7c0,0-0.1,0.3-0.1,0.3c0,0,0,0,0,0c0,0,0-0.1,0.1-0.3c0.1-0.2,0.1-0.2,0-0.4
			c0-0.1-0.2-0.6-0.2-0.7c0-0.1,0-0.1-0.1-0.1c0-0.1-0.2-0.7-0.2-0.8c0-0.1,0-0.2-0.1-0.2c-0.1-0.2-0.1-0.5-0.1-0.6
			c0-0.1,0-0.1,0-0.1c0,0,0-0.1,0-0.2c0-0.1,0-0.2,0-0.3l0-0.1l0.3-0.2c0.5-0.4,1-0.8,1.5-1c0.4-0.2,0.6-0.3,0.6-0.3
			c0,0,0.1,0,0.2-0.1c0.1-0.1,0.2-0.1,0.2-0.1c0,0,0.1,0,0.1,0c0.3-0.1,1-0.3,1.4-0.4c0.1,0,0.3-0.1,0.4-0.1
			c0.5-0.1,1.8-0.2,2.4-0.1c0.5,0,1,0.1,1.2,0.1c0.1,0,0.2,0,0.3,0.1c0.4,0.1,1.2,0.3,1.4,0.4c0.1,0,0.1,0,0.1,0c0,0,0.8,0.3,1,0.4
			c0.8,0.4,1.6,1,2.2,1.6c0.1,0.1,0.3,0.2,0.5,0.2c0.2,0,0.6,0.6,1,1.5c0,0,0,0.1,0.1,0.1c0,0,0,0.1,0,0.1c0,0.1,0,0.1,0.1,0.2
			c0,0.1,0.1,0.3,0.1,0.4c0.1,0.3,0.1,0.4,0.2,0.4c0.1,0,0.1,0,0.1-0.1c0,0,0-0.2,0-0.3c-0.1-0.8-0.5-1.8-1-2.5l-0.2-0.2l-0.1,0
			c-0.2,0-0.3-0.1-0.5-0.3c-0.3-0.3-0.8-0.7-1-0.9c-0.1-0.1-0.2-0.2-0.2-0.2c-0.1-0.1-0.7-0.4-1.2-0.6c-0.3-0.1-0.8-0.3-0.9-0.3
			c0,0-0.1,0-0.1,0c-0.1,0-0.2-0.1-0.3-0.1c-0.1,0-0.2-0.1-0.3-0.1c-0.4-0.1-0.8-0.2-1.8-0.3C18,10.2,16.6,10.2,16.4,10.3
			 M27.9,10.3C27.9,10.3,27.9,10.3,27.9,10.3C27.9,10.3,27.9,10.3,27.9,10.3c0.1,0.1,0.1,0.1,0.1,0.1c0,0,0,0,0,0.1c0,0,0,0.1,0,0.1
			c0,0,0,0,0,0s0,0,0,0c0,0,0,0,0,0s0,0,0,0C28,10.4,28,10.3,27.9,10.3C27.9,10.2,27.9,10.2,27.9,10.3 M28,10.6
			c0.1,0.2,0.2,0.3,0.2,0.2c0,0,0,0,0,0c0,0,0,0,0-0.1s0-0.1,0-0.1C28.1,10.7,28.1,10.6,28,10.6C28.1,10.6,28.1,10.5,28,10.6
			C28.1,10.5,28,10.5,28,10.6 M28.3,11C28.3,11,28.3,11.1,28.3,11C28.4,11,28.4,11,28.3,11C28.3,10.9,28.3,10.9,28.3,11 M28.4,11.1
			C28.4,11.2,28.4,11.2,28.4,11.1C28.4,11.1,28.4,11.1,28.4,11.1C28.4,11.1,28.4,11.1,28.4,11.1 M28.5,11.3
			C28.5,11.3,28.5,11.4,28.5,11.3C28.6,11.4,28.6,11.4,28.5,11.3C28.5,11.3,28.5,11.3,28.5,11.3C28.5,11.2,28.5,11.2,28.5,11.3
			C28.4,11.2,28.4,11.2,28.5,11.3 M28.6,11.4c0,0,0.1,0.2,0.1,0.1c0,0,0,0,0,0C28.6,11.5,28.6,11.5,28.6,11.4
			C28.6,11.4,28.6,11.4,28.6,11.4 M28.7,11.7C28.7,11.7,28.7,11.7,28.7,11.7C28.7,11.7,28.7,11.7,28.7,11.7
			C28.7,11.7,28.7,11.6,28.7,11.7C28.7,11.6,28.7,11.7,28.7,11.7 M28.7,11.8C28.7,11.8,28.7,11.8,28.7,11.8
			C28.8,11.8,28.8,11.8,28.7,11.8C28.8,11.7,28.8,11.7,28.7,11.8 M9.3,12.5c0,0,0,0.1,0,0.1C9.4,12.7,9.4,12.7,9.3,12.5
			C9.4,12.5,9.4,12.4,9.3,12.5 M9.3,13c-0.1,0.1-0.5,0.6-0.5,0.7c0,0,0,0,0.1-0.2c0.1-0.1,0.2-0.3,0.3-0.4C9.4,12.9,9.4,12.8,9.3,13
			 M9.8,13.1c-0.1,0.1-0.2,0.3-0.2,0.3c0,0,0.1-0.1,0.1-0.2c0.1-0.1,0.1-0.2,0.2-0.2l0.1,0l-0.1,0C9.9,13.1,9.8,13.1,9.8,13.1
			 M9.4,13.7c-0.1,0.1-0.4,0.6-0.4,0.7c0,0,0.1-0.1,0.2-0.3C9.4,13.8,9.5,13.7,9.4,13.7C9.5,13.6,9.5,13.6,9.4,13.7
			C9.5,13.6,9.5,13.6,9.4,13.7 M8.7,13.8c0,0.1-0.1,0.1-0.1,0.1C8.7,14,8.7,13.9,8.7,13.8C8.7,13.9,8.7,13.8,8.7,13.8
			c0.1-0.1,0.1-0.1,0.1-0.1C8.8,13.7,8.7,13.7,8.7,13.8 M8.6,14.1c-0.1,0.1-0.1,0.3-0.1,0.3c0,0,0-0.1,0.1-0.2
			C8.6,14,8.7,13.9,8.6,14.1 M9,14.5c0,0.1,0,0.1,0,0.1C9,14.6,9.1,14.4,9,14.5C9.1,14.4,9,14.4,9,14.5 M8.4,14.5
			C8.4,14.5,8.4,14.5,8.4,14.5C8.4,14.6,8.4,14.6,8.4,14.5C8.4,14.5,8.4,14.4,8.4,14.5 M8.3,14.7c0,0,0,0.1,0,0.1c0,0.1,0,0.1,0,0
			C8.3,14.8,8.4,14.6,8.3,14.7C8.3,14.6,8.3,14.6,8.3,14.7 M8.8,14.9c-0.1,0.3-0.2,0.7-0.2,0.8c0,0,0-0.1,0.1-0.3
			C8.8,15.3,8.8,15,8.8,14.9c0,0,0.1-0.1,0.1-0.1C8.9,14.8,8.9,14.8,8.8,14.9 M8.2,15C8.2,15,8.2,15,8.2,15
			C8.2,15.2,8.2,15.2,8.2,15C8.2,15,8.2,15,8.2,15 M8.1,15.3C8.1,15.3,8.1,15.4,8.1,15.3C8.1,15.4,8.2,15.4,8.1,15.3
			C8.2,15.3,8.2,15.2,8.1,15.3C8.2,15.2,8.2,15.3,8.1,15.3 M8.1,15.6C8.1,15.6,8.1,15.7,8.1,15.6C8.1,15.7,8.1,15.7,8.1,15.6
			C8.1,15.5,8.1,15.5,8.1,15.6 M8,16c0,0.1,0,0.2,0,0.3c0,0.1,0,0.1,0,0.2c0,0,0,0,0,0c0,0,0-0.1,0.1-0.3C8.1,15.8,8.1,15.7,8,16
			 M8.6,16c0,0,0,0.1,0,0.2v0.1h0.3c0.3,0,0.3,0,0.4,0c0,0,0.2,0.2,0.2,0.2c0,0,0-0.1-0.1-0.1l-0.1-0.1H8.9H8.6l0-0.2
			C8.6,15.9,8.6,15.8,8.6,16 M7.8,16.6c-0.1,0.1-0.1,0.2-0.1,0.2c0,0,0,0,0.1,0C7.7,16.7,7.8,16.6,7.8,16.6c0.1-0.1,0.2-0.1,0.2-0.1
			S7.8,16.5,7.8,16.6 M9.5,16.5c0,0,0,0.1,0.1,0.1c0,0.1,0.1,0.1,0.1,0.2c0,0,0.1,0.1,0.1,0.1S9.9,17,10,17c0.1,0,0.1,0.1,0.1,0.1
			c0,0-0.2-0.1-0.3-0.2c0,0-0.1-0.1-0.1-0.1C9.7,16.7,9.5,16.5,9.5,16.5 M11.2,16.9C11.2,16.9,11.2,16.9,11.2,16.9
			C11.2,17,11.2,17,11.2,16.9C11.3,16.8,11.3,16.8,11.2,16.9 M7.5,18c0,1.4,0,2.6,0,2.7c0,0.1,0-0.7,0-1.8c0-1.1,0-2,0-2
			C7.6,16.9,7.5,17.4,7.5,18 M11.2,17.1c0,0,0,0.1,0,0.1C11.2,17.3,11.2,17.2,11.2,17.1C11.2,17.1,11.2,17,11.2,17.1 M11.1,17.4
			c0,0.1,0,0.1,0,0.2c0,0.1,0,0,0-0.1C11.2,17.3,11.2,17.2,11.1,17.4 M24.2,17.6c-0.1,0.1-0.1,0.2-0.1,1.8V21l0.1,0.1
			c0,0.1,0.1,0.1,0.2,0.2c0.1,0.1,0.2,0.1,0.2,0.2c0,0.1,0.1,0.2,0.2,0.2c0.1,0.1,0.2,0.1,0.2,0.2c0,0.1,0.4,0.1,0.5-0.1
			c0.1-0.3,0.1-0.4,0-0.4c-0.2,0-0.2,0-0.2-0.1c0,0-0.1-0.1-0.1-0.1c-0.1,0-0.2-0.1-0.2-0.2c0-0.1-0.1-0.1-0.2-0.2
			c0,0-0.1-0.1-0.2-0.2l-0.2-0.1V19C24.4,17.4,24.4,17.4,24.2,17.6 M11.1,17.8c0,0.1,0,0.8,0,0.9c0,0,0-0.2,0-0.4
			S11.1,17.8,11.1,17.8C11.1,17.8,11.1,17.8,11.1,17.8 M11.1,19c0,0.1,0,0.1,0,0.2C11.2,19.2,11.2,19.2,11.1,19
			C11.1,18.9,11.1,18.8,11.1,19 M11.3,19.7c0,0.1,0.1,0.3,0.1,0.3c0,0,0,0,0,0c0,0,0-0.1-0.1-0.2C11.3,19.8,11.3,19.7,11.3,19.7
			 M11.6,20.5c0,0,0.1,0.3,0.2,0.3c0,0,0,0-0.1-0.1C11.6,20.5,11.6,20.5,11.6,20.5 M7.6,21c0,0,0.1,0.1,0.1,0.1
			C7.7,21.1,7.7,21.1,7.6,21C7.7,21,7.6,21,7.6,21 M11.9,21.1c0,0,0.3,0.4,0.3,0.5c0,0,0.1,0.1,0.1,0.1c0,0,0.1,0.1,0.1,0.2
			c0.1,0.1,0.1,0.2,0,1c0,0.3-0.1,1-0.1,1.3c0,0.1,0,0.1,0,0.1c0,0,0-0.1,0-0.3c0-0.3,0-0.8,0.1-1.3c0-0.1,0-0.3,0-0.4l0-0.2
			l-0.1-0.1C12.3,21.5,12,21.2,11.9,21.1C12,21.1,11.9,21.1,11.9,21.1 M26.6,21.3c-0.1,0.1-0.2,0.1-0.3,0.1c-0.1,0-0.1,0-0.1,0
			c0,0,0,0.1-0.1,0.2c-0.1,0.2-0.1,0.2,0,0.2c0.2,0,0.5-0.3,0.6-0.6C26.8,21.2,26.8,21.2,26.6,21.3 M14.8,23.5
			c-0.1,0-0.2,0.1-0.1,0.1c0.1,0,0.3-0.1,0.3-0.1c0,0,0.2,0,0.2,0c0.1,0.1,0.2,0.1,0.2,0.1c0.1,0,0,0-0.1-0.1
			C15,23.4,15,23.4,14.8,23.5 M14.3,23.6c-0.1,0-0.2,0.1-0.2,0.1c0,0,0.4-0.1,0.4-0.1C14.6,23.5,14.6,23.5,14.3,23.6 M15.5,23.6
			C15.5,23.6,15.6,23.6,15.5,23.6C15.7,23.6,15.7,23.6,15.5,23.6C15.5,23.5,15.5,23.5,15.5,23.6 M15.7,23.6c0,0,0.4,0.1,0.5,0.1
			c0,0,0,0-0.2,0C15.7,23.6,15.7,23.6,15.7,23.6 M16.3,23.7c0,0,0.1,0,0.1,0c0.1,0,0.1,0,0,0C16.4,23.7,16.3,23.7,16.3,23.7
			 M13.5,23.8c-0.2,0.1-0.3,0.1-0.3,0.1c0,0,0.1,0,0.1,0c0.1-0.1,0.2-0.1,0.4-0.1c0.1,0,0.2-0.1,0.2-0.1
			C13.9,23.7,13.9,23.7,13.5,23.8 M12.8,24.1c-0.1,0-0.1,0-0.1,0c0.1,0,0.3-0.1,0.3-0.1C13,24,13,24,12.8,24.1 M22.6,25.7
			c0,0-0.2,0.1-0.4,0.2c-0.2,0.1-0.4,0.2-0.3,0.2C21.8,26.1,22.5,25.8,22.6,25.7C22.6,25.7,22.6,25.7,22.6,25.7
			C22.6,25.7,22.6,25.7,22.6,25.7 M21.5,26.1C21.5,26.2,21.5,26.2,21.5,26.1C21.6,26.2,21.6,26.2,21.5,26.1
			C21.6,26.1,21.6,26.1,21.5,26.1 M21.4,26.2c0,0-0.1,0-0.2,0.1c-0.1,0-0.2,0.1-0.3,0.1c0,0-0.1,0-0.2,0.1c-0.3,0.1-0.4,0.1-0.3,0.1
			c0,0,0.1,0,0.1,0c0,0,0,0,0.1,0C20.7,26.5,21.6,26.2,21.4,26.2C21.4,26.2,21.4,26.2,21.4,26.2 M20,26.6c-0.2,0-0.2,0-0.2,0
			c0.1,0,0.3,0,0.4-0.1C20.3,26.5,20.2,26.5,20,26.6 M19.5,26.6c0,0-0.1,0.1-0.1,0.2c0,0,0,0.1-0.1,0.1c-0.1,0.1-0.1,0.1-0.1,0.1
			c0,0,0.2-0.2,0.2-0.3C19.5,26.7,19.5,26.7,19.5,26.6C19.6,26.6,19.6,26.6,19.5,26.6 M19.1,27.1c-0.1,0-1.4,0.1-1.6,0
			c-0.1,0-0.1,0,0,0C17.5,27.2,19,27.2,19.1,27.1C19.2,27.1,19.2,27.1,19.1,27.1"/>
		<path id="path4_1_" class="st10" d="M16.4,3.9C16.4,3.9,16.5,3.9,16.4,3.9c0.1,0,0.1,0,0.1,0C16.6,3.9,16.6,3.9,16.4,3.9
			C16.5,3.9,16.4,3.9,16.4,3.9 M18.5,3.9C18.5,3.9,18.5,3.9,18.5,3.9c0.1,0,0.1,0,0.1,0C18.6,3.9,18.6,3.9,18.5,3.9
			C18.5,3.9,18.5,3.9,18.5,3.9 M18.8,3.9C18.8,4,18.8,4,18.8,3.9c0.1,0,0.1,0,0.1,0C18.9,3.9,18.9,3.9,18.8,3.9
			C18.8,3.9,18.8,3.9,18.8,3.9 M15.8,4C15.8,4,15.8,4,15.8,4c0.1,0.1,0.1,0,0.1,0C15.9,4,15.8,4,15.8,4 M19.2,4
			C19.1,4,19.1,4,19.2,4c0.1,0.1,0.1,0,0.1,0C19.3,4,19.3,4,19.2,4 M15.6,4.1C15.6,4.1,15.6,4.1,15.6,4.1
			C15.6,4.1,15.7,4.1,15.6,4.1C15.7,4,15.6,4,15.6,4.1C15.6,4,15.6,4,15.6,4.1 M19.5,4.1C19.5,4.1,19.5,4.1,19.5,4.1
			C19.5,4.1,19.5,4.1,19.5,4.1C19.5,4,19.5,4,19.5,4.1C19.5,4,19.5,4,19.5,4.1 M19.6,4.1C19.6,4.1,19.7,4.1,19.6,4.1
			C19.7,4.1,19.7,4.1,19.6,4.1C19.7,4.1,19.7,4.1,19.6,4.1C19.7,4.1,19.6,4.1,19.6,4.1 M19.9,4.2C19.9,4.2,19.9,4.2,19.9,4.2
			C20,4.2,20,4.2,19.9,4.2C20,4.2,20,4.1,19.9,4.2C19.9,4.1,19.9,4.2,19.9,4.2 M14.9,4.3C14.9,4.3,14.9,4.3,14.9,4.3
			C15,4.3,15,4.3,14.9,4.3C15,4.3,15,4.2,14.9,4.3C14.9,4.2,14.9,4.3,14.9,4.3 M20.3,4.3C20.3,4.3,20.3,4.3,20.3,4.3
			C20.3,4.3,20.3,4.3,20.3,4.3C20.3,4.3,20.3,4.2,20.3,4.3C20.3,4.2,20.3,4.3,20.3,4.3 M14.4,4.4C14.4,4.5,14.5,4.5,14.4,4.4
			C14.5,4.5,14.5,4.5,14.4,4.4C14.6,4.4,14.5,4.4,14.4,4.4C14.5,4.4,14.4,4.4,14.4,4.4 M20.8,4.4C20.8,4.5,20.8,4.5,20.8,4.4
			C20.8,4.5,20.8,4.5,20.8,4.4C20.8,4.4,20.8,4.4,20.8,4.4C20.8,4.4,20.8,4.4,20.8,4.4 M14.3,4.5C14.3,4.5,14.3,4.5,14.3,4.5
			C14.4,4.5,14.4,4.5,14.3,4.5C14.4,4.5,14.4,4.5,14.3,4.5C14.3,4.5,14.3,4.5,14.3,4.5 M14,4.7C14,4.7,14,4.7,14,4.7
			C14.1,4.7,14.1,4.7,14,4.7C14.1,4.6,14.1,4.6,14,4.7C14,4.6,14,4.6,14,4.7 M22,4.9C22,5,22,5,22,4.9C22,5,22,5,22,4.9
			C22,4.9,22,4.9,22,4.9C22,4.9,22,4.9,22,4.9 M22.2,5.1C22.2,5.1,22.2,5.1,22.2,5.1c0.1,0,0.1,0,0.1,0C22.3,5,22.3,5,22.2,5.1
			C22.2,5,22.2,5,22.2,5.1 M13.1,5.2C13.1,5.3,13.1,5.3,13.1,5.2C13.2,5.2,13.2,5.2,13.1,5.2C13.2,5.2,13.2,5.2,13.1,5.2 M22.5,5.2
			c0,0,0.1,0.1,0.1,0.1C22.7,5.3,22.6,5.2,22.5,5.2C22.5,5.2,22.5,5.2,22.5,5.2 M22.7,5.3C22.7,5.4,22.8,5.4,22.7,5.3
			C22.8,5.3,22.8,5.3,22.7,5.3C22.7,5.3,22.7,5.3,22.7,5.3 M22.9,5.4C22.9,5.5,22.9,5.5,22.9,5.4C22.9,5.5,23,5.5,22.9,5.4
			C23,5.4,22.9,5.4,22.9,5.4C22.9,5.4,22.9,5.4,22.9,5.4 M12.5,5.8c-0.1,0.1-0.1,0.1,0,0.1C12.4,5.9,12.5,5.9,12.5,5.8
			C12.5,5.8,12.5,5.8,12.5,5.8c0.1,0,0.1,0,0.1,0C12.6,5.7,12.5,5.7,12.5,5.8 M23.5,5.8C23.6,5.9,23.6,5.9,23.5,5.8
			C23.6,5.9,23.6,5.8,23.5,5.8C23.5,5.8,23.5,5.8,23.5,5.8 M23.8,6C23.8,6.1,23.8,6.1,23.8,6C23.9,6.1,23.9,6.1,23.8,6
			C23.9,6,23.9,6,23.8,6C23.8,6,23.8,6,23.8,6 M12.2,6.1C12.2,6.1,12.2,6.1,12.2,6.1C12.3,6.1,12.3,6.1,12.2,6.1
			C12.3,6.1,12.3,6.1,12.2,6.1C12.2,6.1,12.2,6.1,12.2,6.1 M24.1,6.2c0,0,0.1,0.1,0.1,0c0,0,0,0,0,0C24.2,6.3,24.1,6.2,24.1,6.2
			C24.1,6.2,24.1,6.2,24.1,6.2C24.1,6.2,24.1,6.2,24.1,6.2 M11.9,6.5C11.9,6.5,11.9,6.5,11.9,6.5C12,6.5,12,6.5,11.9,6.5
			C12,6.5,12,6.4,11.9,6.5C11.9,6.4,11.9,6.5,11.9,6.5 M24.5,6.5C24.5,6.6,24.5,6.6,24.5,6.5C24.6,6.6,24.6,6.6,24.5,6.5
			C24.6,6.5,24.6,6.5,24.5,6.5C24.5,6.5,24.5,6.5,24.5,6.5 M11.7,6.6c0,0,0,0.1,0.1,0C11.9,6.7,11.9,6.6,11.7,6.6
			C11.7,6.6,11.7,6.6,11.7,6.6 M24.6,6.6c0,0,0.2,0.1,0.2,0.1c0,0,0,0-0.1-0.1C24.7,6.6,24.6,6.6,24.6,6.6 M11.5,6.7
			C11.5,6.7,11.5,6.7,11.5,6.7C11.5,6.7,11.6,6.7,11.5,6.7C11.6,6.7,11.5,6.7,11.5,6.7C11.5,6.7,11.5,6.7,11.5,6.7 M10.6,6.9
			c0,0,0.1,0.1,0.1,0C10.7,6.8,10.7,6.8,10.6,6.9C10.6,6.8,10.6,6.8,10.6,6.9 M10.3,6.9C10.3,6.9,10.4,7,10.3,6.9c0.1,0,0.1,0,0.1,0
			C10.5,6.9,10.4,6.9,10.3,6.9C10.4,6.9,10.3,6.9,10.3,6.9 M10,7C10,7.1,10,7.1,10,7C10,7.1,10,7.1,10,7C10,7,10,7,10,7
			C10,7,10,7,10,7 M9.7,7.1C9.7,7.1,9.7,7.1,9.7,7.1c0.1,0,0.1,0,0.1,0C9.8,7.1,9.8,7.1,9.7,7.1C9.7,7.1,9.7,7.1,9.7,7.1 M9.4,7.2
			C9.4,7.2,9.4,7.2,9.4,7.2c0.1,0,0.1,0,0.1,0C9.5,7.2,9.5,7.2,9.4,7.2C9.4,7.2,9.4,7.2,9.4,7.2 M9,7.4C9,7.4,9,7.4,9,7.4
			C9.1,7.4,9.1,7.4,9,7.4C9.1,7.3,9.1,7.3,9,7.4C9,7.3,9,7.3,9,7.4 M25.5,7.4c0,0,0.2,0.2,0.2,0.2c0.1,0,0,0-0.1-0.1
			C25.5,7.4,25.5,7.4,25.5,7.4 M8.7,7.4C8.7,7.5,8.7,7.5,8.7,7.4C8.8,7.5,8.8,7.5,8.7,7.4C8.8,7.4,8.8,7.4,8.7,7.4 M8.5,7.5
			C8.6,7.6,8.6,7.6,8.5,7.5C8.6,7.6,8.6,7.6,8.5,7.5C8.6,7.5,8.6,7.5,8.5,7.5C8.6,7.5,8.5,7.5,8.5,7.5 M25.8,7.7
			C25.8,7.7,25.9,7.8,25.8,7.7C25.9,7.7,25.9,7.7,25.8,7.7C25.8,7.7,25.8,7.7,25.8,7.7 M8.1,7.7C8.1,7.8,8.1,7.8,8.1,7.7
			C8,7.8,7.9,7.8,7.9,7.9C7.9,7.9,8.1,7.8,8.1,7.7C8.1,7.8,8.1,7.8,8.1,7.7C8.2,7.8,8.2,7.8,8.1,7.7C8.2,7.7,8.2,7.7,8.1,7.7
			C8.1,7.7,8.1,7.7,8.1,7.7 M26.1,8c0,0,0.1,0.1,0.1,0.1C26.2,8.1,26.2,8,26.1,8C26.1,8,26.1,7.9,26.1,8 M7.6,8
			C7.6,8.1,7.5,8.1,7.6,8C7.6,8.1,7.7,8.1,7.6,8C7.7,8,7.7,8,7.6,8 M7.4,8.2C7.4,8.2,7.4,8.2,7.4,8.2C7.4,8.2,7.4,8.2,7.4,8.2
			C7.5,8.2,7.4,8.2,7.4,8.2C7.4,8.2,7.4,8.2,7.4,8.2 M7.1,8.3L7.1,8.3L7.1,8.3c0.1,0.1,0.2,0,0.2,0C7.3,8.2,7.2,8.3,7.1,8.3
			 M26.4,8.3C26.4,8.3,26.4,8.3,26.4,8.3C26.4,8.3,26.4,8.3,26.4,8.3C26.4,8.3,26.4,8.3,26.4,8.3 M7,8.5C7,8.5,7,8.5,7,8.5
			C7,8.5,7,8.5,7,8.5C7,8.4,7,8.4,7,8.5C7,8.4,7,8.4,7,8.5 M26.6,8.5c0,0,0.1,0.1,0.1,0.1C26.7,8.6,26.7,8.6,26.6,8.5
			C26.6,8.6,26.6,8.5,26.6,8.5C26.6,8.5,26.6,8.5,26.6,8.5C26.6,8.5,26.6,8.5,26.6,8.5 M6.7,8.7C6.7,8.7,6.7,8.7,6.7,8.7
			C6.6,8.7,6.6,8.7,6.7,8.7C6.6,8.8,6.7,8.8,6.7,8.7C6.8,8.7,6.8,8.7,6.7,8.7C6.7,8.7,6.7,8.7,6.7,8.7 M26.8,8.8
			C26.8,8.8,26.8,8.8,26.8,8.8C26.9,8.8,26.9,8.8,26.8,8.8C26.9,8.8,26.9,8.8,26.8,8.8C26.8,8.8,26.8,8.8,26.8,8.8 M6.5,8.9
			C6.5,8.9,6.5,8.9,6.5,8.9C6.5,8.9,6.6,8.9,6.5,8.9C6.6,8.8,6.5,8.8,6.5,8.9C6.5,8.8,6.5,8.8,6.5,8.9 M6.3,9c0,0,0,0.1,0,0.1
			c0,0,0.1-0.1,0.1-0.1C6.4,8.9,6.4,8.9,6.3,9 M26.9,9C26.9,9,27,9,26.9,9C27.1,9.1,27.1,9,26.9,9C27,8.9,26.9,8.9,26.9,9 M27.1,9.1
			C27.1,9.1,27.1,9.2,27.1,9.1C27.1,9.2,27.1,9.2,27.1,9.1c0.1,0.1,0.1,0.1,0.1,0.1C27.2,9.2,27.2,9.2,27.1,9.1
			C27.1,9.1,27.1,9.1,27.1,9.1 M6.1,9.2C6.1,9.2,6.1,9.3,6.1,9.2C6,9.3,6,9.3,6,9.4c0,0,0,0,0,0c0,0,0,0,0,0s0,0,0,0
			C6.1,9.3,6.1,9.3,6.1,9.2C6.1,9.3,6.1,9.3,6.1,9.2C6.2,9.3,6.2,9.2,6.1,9.2C6.2,9.2,6.2,9.2,6.1,9.2C6.1,9.2,6.1,9.2,6.1,9.2
			 M5.9,9.5C5.9,9.5,5.9,9.5,5.9,9.5C5.9,9.5,5.9,9.5,5.9,9.5C5.9,9.5,5.9,9.5,5.9,9.5 M5.7,9.7C5.7,9.7,5.7,9.8,5.7,9.7
			C5.7,9.8,5.8,9.7,5.7,9.7C5.8,9.6,5.8,9.6,5.7,9.7 M27.5,9.7C27.5,9.7,27.6,9.7,27.5,9.7C27.6,9.7,27.5,9.7,27.5,9.7
			C27.5,9.7,27.5,9.7,27.5,9.7 M27.6,9.8C27.6,9.8,27.6,9.8,27.6,9.8C27.6,9.8,27.6,9.8,27.6,9.8C27.6,9.8,27.6,9.8,27.6,9.8
			C27.6,9.8,27.6,9.8,27.6,9.8 M5.6,9.8C5.6,9.9,5.6,9.9,5.6,9.8C5.7,9.9,5.7,9.9,5.6,9.8C5.7,9.8,5.7,9.8,5.6,9.8
			C5.6,9.8,5.6,9.8,5.6,9.8 M27.7,10C27.7,10,27.7,10,27.7,10C27.7,10,27.7,10,27.7,10C27.7,9.9,27.7,9.9,27.7,10
			C27.7,9.9,27.7,9.9,27.7,10 M5.5,10C5.5,10.1,5.5,10.1,5.5,10C5.5,10.1,5.6,10,5.5,10C5.6,10,5.5,9.9,5.5,10 M5.4,10.1
			C5.4,10.2,5.4,10.2,5.4,10.1C5.5,10.2,5.5,10.2,5.4,10.1C5.5,10.1,5.5,10.1,5.4,10.1C5.4,10.1,5.4,10.1,5.4,10.1 M5.3,10.3
			C5.3,10.4,5.3,10.4,5.3,10.3C5.4,10.4,5.4,10.3,5.3,10.3C5.3,10.3,5.3,10.3,5.3,10.3 M5.2,10.4C5.2,10.5,5.3,10.5,5.2,10.4
			C5.3,10.5,5.3,10.4,5.2,10.4C5.3,10.4,5.2,10.4,5.2,10.4 M5.2,10.6C5.2,10.6,5.2,10.6,5.2,10.6C5.2,10.6,5.2,10.6,5.2,10.6
			C5.2,10.6,5.2,10.6,5.2,10.6C5.2,10.5,5.2,10.6,5.2,10.6 M28.1,10.6C28.1,10.7,28.1,10.7,28.1,10.6C28.2,10.7,28.2,10.7,28.1,10.6
			C28.2,10.6,28.2,10.6,28.1,10.6C28.1,10.6,28.1,10.6,28.1,10.6 M28.2,10.7C28.2,10.8,28.2,10.8,28.2,10.7
			C28.2,10.8,28.2,10.8,28.2,10.7C28.2,10.7,28.2,10.7,28.2,10.7C28.2,10.7,28.2,10.7,28.2,10.7 M28.3,10.9
			C28.3,11,28.3,11,28.3,10.9C28.4,11,28.4,11,28.3,10.9C28.4,10.9,28.4,10.9,28.3,10.9C28.3,10.9,28.3,10.9,28.3,10.9 M5,11
			C5,11,5,11,5,11C5,11,5.1,11,5,11C5.1,11,5,11,5,11C5,11,5,11,5,11 M28.4,11.2C28.4,11.2,28.4,11.2,28.4,11.2
			C28.5,11.2,28.5,11.2,28.4,11.2C28.5,11.2,28.5,11.1,28.4,11.2C28.4,11.1,28.4,11.2,28.4,11.2 M4.9,11.2C4.9,11.3,5,11.3,4.9,11.2
			C5,11.3,5,11.3,4.9,11.2C5,11.2,5,11.2,4.9,11.2C5,11.2,4.9,11.2,4.9,11.2 M10.3,11.4c-0.1,0-0.1,0.1-0.2,0.1
			c-0.7,0.3-1.2,0.7-1.9,1.1c-0.2,0.1-0.4,0.3-0.4,0.3c0,0-0.1,0.1-0.2,0.1c-0.1,0.1-0.2,0.1-0.2,0.1c0,0-0.1,0.1-0.3,0.2
			c-0.6,0.4-1,0.9-1.8,1.7c-0.1,0.1-0.1,0.2,0.3,0.8c0.2,0.4,0.2,0.4,0.4,0.7c0.3,0.4,0.8,1.1,1.1,1.4c0.2,0.2,0.2,0.1,0.2,1.8
			l0,1.5l0.1,0.2C7.7,21.8,8,22,8.6,22c0.4,0,0.4,0,0.4-0.1c0,0,0.1-0.1,0.1-0.1c0.1-0.1,0.2-0.2,0.3-0.3c0-0.1,0.1-0.1,0.2-0.2
			C9.9,21.2,10,21,10,20.9c0-0.1,0-0.1-0.1,0c0,0-0.1,0-0.1,0.1c0,0-0.1,0.1-0.2,0.2c-0.1,0.1-0.3,0.3-0.3,0.3c0,0,0,0,0,0.1
			c0,0.1-1,0.1-1.2,0c-0.3-0.1-0.5-0.4-0.5-0.7c-0.1-0.3,0-3.9,0.1-3.9c0,0,0-0.1,0-0.1c0,0,0.1-0.1,0.2-0.2C8,16.4,8,16.4,8,16.2
			c0-0.1,0.1-0.6,0.1-0.8c0-0.1,0-0.2,0-0.2c0-0.1,0-0.1,0-0.2c0,0,0-0.1,0.1-0.2c0.1-0.2,0.1-0.3,0.1-0.4c0,0,0-0.1,0.1-0.2
			c0.1-0.3,0.6-1.1,0.8-1.4c0.1-0.1,0.1-0.1,0.1-0.2c0-0.1,0-0.3,0.1-0.3c0,0,0,0,0,0c0,0,0,0,0-0.1c0,0,0.1-0.1,0.1-0.1
			c0.1-0.1,0.3-0.3,0.5-0.4C10.4,11.4,10.5,11.3,10.3,11.4 M4.8,11.6C4.8,11.7,4.8,11.7,4.8,11.6C4.9,11.7,4.9,11.7,4.8,11.6
			c0.1-0.1,0.1-0.1,0-0.1C4.8,11.5,4.8,11.6,4.8,11.6 M4.7,11.9C4.7,12,4.8,12,4.7,11.9C4.8,12,4.8,12,4.7,11.9
			C4.8,11.9,4.7,11.9,4.7,11.9 M28.9,12C28.9,12,28.9,12,28.9,12C28.9,12,28.9,12,28.9,12C28.9,12,28.9,12,28.9,12
			C28.9,12,28.9,12,28.9,12 M4.7,12.3C4.7,12.4,4.7,12.4,4.7,12.3C4.7,12.4,4.8,12.4,4.7,12.3C4.8,12.3,4.7,12.3,4.7,12.3
			C4.7,12.2,4.7,12.3,4.7,12.3 M29.4,12.4C29.4,12.5,29.4,12.5,29.4,12.4C29.4,12.5,29.4,12.5,29.4,12.4
			C29.4,12.4,29.4,12.4,29.4,12.4C29.4,12.4,29.4,12.4,29.4,12.4 M29.5,12.6c0.1,0.1,0.2,0.2,0.2,0.1C29.7,12.6,29.6,12.6,29.5,12.6
			C29.6,12.6,29.5,12.6,29.5,12.6C29.5,12.5,29.5,12.5,29.5,12.6C29.5,12.5,29.5,12.5,29.5,12.6 M10.4,12.9
			c-0.1,0.1-0.3,0.2-0.4,0.2c-0.1,0-0.2,0-0.3,0.2c-0.1,0.1-0.1,0.2-0.1,0.2c0,0-0.5,0.9-0.5,0.9c0,0,0,0.1-0.1,0.1
			c0,0.1-0.1,0.2-0.1,0.2c0,0.1-0.1,0.2-0.1,0.3c-0.1,0.2-0.2,0.8-0.2,1.1l0,0.2h0.3h0.3l0.2,0.2c0.1,0.1,0.2,0.2,0.3,0.3
			c0,0,0.1,0.1,0.1,0.1c0.1,0,0.3,0.2,0.3,0.2c0,0,0,0,0.1,0.1c0.1,0.1,0.1,0.1,0.1,1.7v1.5l0.1,0.1c0.1,0,0.1,0.1,0.1,0.1
			s0.1,0,0.1,0.1c0.1,0,0.2,0.1,0.3,0.2c0.4,0.2,0.4,0.2,0.6,0.6c0.2,0.3,0.4,0.7,0.7,1c0.2,0.2,0.2,0.3,0.1,0.7
			c0,0.1,0,0.5-0.1,0.9c0,0.4-0.1,0.7-0.1,0.8c0,0.1,0,0.1,0.3,0c0.1,0,0.4-0.1,0.6-0.2c0.2-0.1,0.4-0.1,0.4-0.1
			c0.2-0.1,1.2-0.4,1.2-0.4c0,0,0.2,0,0.3,0.1c1,0.3,3,0.4,3.4,0.1c0,0,0-0.1,0-0.1c0,0-0.1,0-0.1-0.1c-0.3-0.2-0.3-0.2-0.8-0.2
			c-0.5,0-1.2,0-1.3-0.1c0,0-0.1,0-0.2,0c-0.1,0-0.2,0-0.3,0c-0.1,0-0.2,0-0.3-0.1c0,0-0.1,0-0.1,0c0,0-0.1,0-0.1,0s-0.1,0-0.1,0
			c0,0-0.1,0-0.1-0.1c-0.1,0-0.2,0-0.2,0c0,0-0.2,0.1-0.3,0.1c0,0-0.1,0-0.1,0c0,0-0.3,0.1-0.4,0.1c0,0-0.1,0-0.1,0
			c0,0-0.1,0.1-0.3,0.1c-0.2,0.1-0.3,0.1-0.4,0.1c0,0-0.1,0-0.1,0c0,0-0.1,0-0.1,0c-0.1,0-0.2,0.1-0.3,0.1c-0.1,0-0.1,0-0.2,0.1
			c-0.1,0.1-0.2,0-0.2-0.1c0-0.2,0.1-1,0.1-1.3c0.1-0.8,0.1-0.9,0-1c0,0-0.1-0.1-0.1-0.2c0,0-0.1-0.1-0.1-0.1c0,0-0.2-0.2-0.3-0.5
			c0,0,0-0.1-0.1-0.1c0-0.1-0.1-0.1-0.1-0.2c-0.1-0.1-0.4-0.7-0.4-0.9c0-0.1,0-0.2-0.1-0.2c0,0,0-0.1-0.1-0.2c0-0.1,0-0.2-0.1-0.7
			c-0.1-0.4,0-1.3,0.1-1.7c0-0.2,0.1-0.3,0.1-0.4c0-0.1,0-0.1,0.1-0.2c0.1-0.1,0-0.4-0.1-0.7c0,0-0.1-0.1-0.1-0.2
			c0-0.1-0.1-0.3-0.1-0.3c0-0.1-0.1-0.2-0.1-0.3s-0.1-0.2-0.1-0.3c0-0.1-0.1-0.2-0.1-0.3c0-0.1-0.1-0.3-0.1-0.3c0-0.1,0-0.2-0.1-0.4
			c0-0.2-0.1-0.3-0.1-0.4c0-0.1,0-0.2,0-0.3C10.6,12.8,10.5,12.8,10.4,12.9 M29.8,12.9C29.8,12.9,29.8,12.9,29.8,12.9
			c0,0,0.1,0.1,0.1,0.1c0,0.1,0.1,0.1,0.1,0C30,13,29.9,12.8,29.8,12.9C29.8,12.8,29.8,12.9,29.8,12.9 M30,13.1c0,0,0.1,0.1,0.1,0.1
			C30.2,13.3,30.2,13.2,30,13.1C30.1,13.1,30,13.1,30,13.1 M4.7,13.3C4.7,13.4,4.7,13.4,4.7,13.3C4.8,13.4,4.8,13.4,4.7,13.3
			C4.7,13.2,4.7,13.2,4.7,13.3 M30.2,13.3c0,0,0.1,0.1,0.1,0.1c0,0,0,0,0-0.1C30.2,13.3,30.2,13.3,30.2,13.3 M4.7,13.7
			C4.7,13.7,4.8,13.7,4.7,13.7C4.8,13.7,4.8,13.6,4.7,13.7C4.8,13.6,4.7,13.7,4.7,13.7 M30.5,13.7c0,0,0.1,0.2,0.1,0.2c0,0,0,0,0,0
			c0,0,0,0,0,0C30.6,13.8,30.5,13.8,30.5,13.7C30.5,13.7,30.5,13.7,30.5,13.7C30.5,13.7,30.5,13.7,30.5,13.7 M4.8,14.1
			C4.8,14.1,4.8,14.2,4.8,14.1C4.9,14.2,4.9,14.1,4.8,14.1C4.9,14,4.9,14,4.8,14.1C4.8,14,4.8,14,4.8,14.1 M30.7,14
			C30.7,14,30.7,14.1,30.7,14C30.7,14.1,30.7,14,30.7,14C30.7,14,30.7,14,30.7,14C30.7,14,30.7,14,30.7,14 M30.8,14.2
			C30.8,14.2,30.8,14.3,30.8,14.2C30.9,14.3,30.9,14.2,30.8,14.2C30.9,14.2,30.9,14.2,30.8,14.2C30.8,14.2,30.8,14.2,30.8,14.2
			 M30.9,14.3C30.8,14.4,30.8,14.4,30.9,14.3C30.9,14.4,30.9,14.4,30.9,14.3C30.9,14.3,30.9,14.3,30.9,14.3 M31,14.6
			C31,14.6,31,14.7,31,14.6C31,14.6,31,14.6,31,14.6C31,14.6,31,14.6,31,14.6 M5,14.7C5,14.8,5,14.8,5,14.7C5,14.8,5.1,14.8,5,14.7
			C5.1,14.7,5,14.7,5,14.7C5,14.7,5,14.7,5,14.7 M5.1,14.9C5.1,14.9,5.1,14.9,5.1,14.9C5.1,14.9,5.1,14.9,5.1,14.9
			C5.1,14.9,5.1,14.9,5.1,14.9C5.1,14.9,5.1,14.9,5.1,14.9 M31.2,15C31.2,15,31.2,15.1,31.2,15C31.2,15.1,31.2,15,31.2,15
			C31.2,15,31.2,15,31.2,15C31.2,15,31.2,15,31.2,15 M5.1,15.1C5.1,15.1,5.1,15.1,5.1,15.1C5.2,15.1,5.2,15.1,5.1,15.1
			C5.2,15,5.2,15,5.1,15.1C5.1,15,5.1,15,5.1,15.1 M5.1,15.2C5.1,15.2,5,15.3,5.1,15.2c0,0.1,0.1,0,0.1,0
			C5.2,15.2,5.1,15.2,5.1,15.2 M31.3,15.3C31.3,15.4,31.3,15.4,31.3,15.3C31.3,15.4,31.3,15.4,31.3,15.3
			C31.4,15.4,31.4,15.4,31.3,15.3C31.4,15.3,31.4,15.3,31.3,15.3C31.3,15.3,31.3,15.3,31.3,15.3 M5,15.4C4.9,15.4,4.9,15.5,5,15.4
			C5,15.5,5.1,15.4,5,15.4C5.1,15.3,5,15.3,5,15.4 M4.8,15.6C4.8,15.6,4.8,15.6,4.8,15.6C4.9,15.6,4.9,15.6,4.8,15.6
			C4.9,15.6,4.9,15.6,4.8,15.6C4.8,15.6,4.8,15.6,4.8,15.6 M4.7,15.8C4.6,15.8,4.6,15.8,4.7,15.8C4.7,15.8,4.7,15.8,4.7,15.8
			C4.7,15.7,4.7,15.7,4.7,15.8 M4.5,16C4.5,16,4.5,16,4.5,16C4.6,16,4.6,16,4.5,16C4.6,16,4.6,15.9,4.5,16C4.5,15.9,4.5,15.9,4.5,16
			 M31.5,16c0,0.1,0,0.1,0,0.1C31.5,16.1,31.6,16.1,31.5,16C31.6,15.9,31.5,15.9,31.5,16 M4.3,16.2C4.3,16.3,4.3,16.3,4.3,16.2
			C4.4,16.3,4.4,16.3,4.3,16.2C4.4,16.2,4.4,16.2,4.3,16.2C4.3,16.2,4.3,16.2,4.3,16.2 M31.5,16.3C31.5,16.3,31.5,16.4,31.5,16.3
			C31.6,16.4,31.6,16.3,31.5,16.3C31.6,16.3,31.6,16.2,31.5,16.3 M4.2,16.4C4.2,16.4,4.3,16.4,4.2,16.4C4.3,16.4,4.3,16.4,4.2,16.4
			C4.3,16.3,4.3,16.3,4.2,16.4C4.3,16.3,4.2,16.3,4.2,16.4 M31.6,16.6c0,0,0,0.1,0,0.1C31.7,16.8,31.7,16.7,31.6,16.6
			C31.7,16.6,31.6,16.6,31.6,16.6 M4,16.7C4,16.8,4,16.8,4,16.7C4,16.8,4.1,16.8,4,16.7C4.1,16.7,4,16.7,4,16.7
			C4,16.7,4,16.7,4,16.7 M3.9,17C3.9,17,3.9,17,3.9,17C4,17,4,17,3.9,17C3.9,16.9,3.9,16.9,3.9,17C3.9,16.9,3.9,16.9,3.9,17
			 M3.8,17.1C3.8,17.1,3.8,17.1,3.8,17.1C3.9,17.1,3.9,17.1,3.8,17.1C3.9,17,3.9,17,3.8,17.1C3.8,17,3.8,17,3.8,17.1 M3.6,17.4
			C3.6,17.5,3.6,17.5,3.6,17.4C3.7,17.5,3.7,17.4,3.6,17.4C3.6,17.4,3.6,17.4,3.6,17.4 M3.6,17.6C3.6,17.6,3.6,17.6,3.6,17.6
			C3.6,17.6,3.6,17.6,3.6,17.6C3.6,17.5,3.6,17.5,3.6,17.6 M3.5,17.7C3.5,17.7,3.5,17.8,3.5,17.7C3.6,17.8,3.6,17.7,3.5,17.7
			C3.6,17.7,3.6,17.6,3.5,17.7C3.5,17.6,3.5,17.7,3.5,17.7 M3.4,18C3.4,18,3.4,18,3.4,18C3.4,18,3.4,18,3.4,18C3.4,18,3.4,18,3.4,18
			C3.4,18,3.4,18,3.4,18 M31.6,18.2c0,0,0,0.1,0,0.1C31.7,18.3,31.7,18.3,31.6,18.2C31.7,18.1,31.7,18.1,31.6,18.2 M3.3,18.2
			C3.3,18.2,3.3,18.2,3.3,18.2C3.4,18.2,3.4,18.2,3.3,18.2C3.4,18.2,3.4,18.1,3.3,18.2C3.3,18.1,3.3,18.2,3.3,18.2 M3.3,18.3
			C3.3,18.4,3.3,18.4,3.3,18.3C3.3,18.4,3.3,18.4,3.3,18.3C3.3,18.3,3.3,18.3,3.3,18.3C3.3,18.3,3.3,18.3,3.3,18.3 M3.2,18.5
			C3.2,18.5,3.2,18.6,3.2,18.5C3.2,18.6,3.3,18.5,3.2,18.5C3.3,18.5,3.2,18.4,3.2,18.5 M3.1,18.8C3.1,18.8,3.1,18.8,3.1,18.8
			C3.2,18.8,3.2,18.8,3.1,18.8C3.2,18.8,3.2,18.7,3.1,18.8C3.1,18.7,3.1,18.8,3.1,18.8 M31.5,18.8c-0.1,0,0,0.2,0,0.2c0,0,0,0,0-0.1
			C31.6,18.8,31.5,18.8,31.5,18.8C31.5,18.8,31.5,18.8,31.5,18.8 M3.1,19C3.1,19,3.1,19,3.1,19C3.1,19,3.1,19,3.1,19
			C3.1,18.9,3.1,18.9,3.1,19C3.1,18.9,3.1,18.9,3.1,19 M3,19.2C3,19.3,3.1,19.3,3,19.2C3.1,19.2,3.1,19.1,3,19.2
			C3,19.1,3,19.2,3,19.2 M31.4,19.2C31.4,19.2,31.4,19.2,31.4,19.2C31.5,19.3,31.5,19.2,31.4,19.2C31.5,19.1,31.5,19.1,31.4,19.2
			 M31.3,19.4C31.3,19.4,31.4,19.4,31.3,19.4C31.4,19.4,31.4,19.4,31.3,19.4C31.4,19.4,31.4,19.3,31.3,19.4
			C31.4,19.3,31.3,19.4,31.3,19.4 M3,19.5c0,0,0,0.1,0,0.1C3,19.6,3,19.6,3,19.5C3,19.5,3,19.5,3,19.5 M31.3,19.5
			c-0.1,0,0,0.1,0,0.1C31.4,19.7,31.4,19.7,31.3,19.5C31.4,19.6,31.4,19.5,31.3,19.5C31.4,19.5,31.3,19.5,31.3,19.5 M31.2,19.8
			C31.2,19.8,31.2,19.8,31.2,19.8C31.3,19.8,31.3,19.8,31.2,19.8C31.3,19.8,31.3,19.8,31.2,19.8C31.2,19.8,31.2,19.8,31.2,19.8
			 M2.9,19.9C2.9,19.9,2.9,20,2.9,19.9C3,20,3,20,2.9,19.9C2.9,19.8,2.9,19.8,2.9,19.9 M31.1,20.1C31.1,20.2,31.1,20.2,31.1,20.1
			C31.2,20.2,31.2,20.2,31.1,20.1C31.2,20.1,31.2,20.1,31.1,20.1C31.1,20.1,31.1,20.1,31.1,20.1 M31,20.4C30.9,20.4,31,20.4,31,20.4
			C31,20.4,31,20.4,31,20.4C31,20.4,31,20.4,31,20.4 M30.9,20.5C30.9,20.6,30.9,20.6,30.9,20.5C31,20.6,31,20.6,30.9,20.5
			C31,20.5,31,20.5,30.9,20.5 M30.8,20.7C30.8,20.7,30.9,20.7,30.8,20.7C30.9,20.7,30.9,20.7,30.8,20.7
			C30.9,20.7,30.9,20.7,30.8,20.7C30.9,20.7,30.8,20.7,30.8,20.7 M30.8,20.8C30.8,20.9,30.8,20.9,30.8,20.8
			C30.9,20.9,30.9,20.9,30.8,20.8C30.9,20.8,30.9,20.8,30.8,20.8C30.8,20.8,30.8,20.8,30.8,20.8 M30.6,21.2
			C30.6,21.2,30.6,21.2,30.6,21.2C30.7,21.2,30.7,21.2,30.6,21.2C30.7,21.1,30.7,21.1,30.6,21.2C30.6,21.1,30.6,21.1,30.6,21.2
			 M30.5,21.3C30.4,21.4,30.5,21.4,30.5,21.3C30.5,21.4,30.5,21.4,30.5,21.3C30.5,21.3,30.5,21.3,30.5,21.3 M2.9,21.5
			C2.9,21.6,2.9,21.6,2.9,21.5C2.9,21.6,3,21.6,2.9,21.5C3,21.5,2.9,21.5,2.9,21.5C2.9,21.5,2.9,21.5,2.9,21.5 M30.2,21.8
			C30.2,21.8,30.2,21.8,30.2,21.8C30.3,21.8,30.3,21.8,30.2,21.8C30.3,21.8,30.3,21.7,30.2,21.8C30.2,21.7,30.2,21.8,30.2,21.8
			 M2.9,21.8C2.9,21.9,3,21.9,2.9,21.8C3,21.8,3,21.8,2.9,21.8C3,21.8,2.9,21.8,2.9,21.8 M30,22.1C30,22.1,30,22.1,30,22.1
			C30,22.1,30,22.2,30,22.2c0,0,0.1,0,0.1,0C30,22.1,30.1,22.1,30,22.1C30.1,22.1,30.1,22.1,30,22.1C30.1,22.1,30.1,22,30,22.1
			C30.1,22,30,22.1,30,22.1 M3,22.1c0,0,0,0.1,0,0.1C3.1,22.3,3.1,22.3,3,22.1C3.1,22.2,3,22.1,3,22.1 M3.1,22.4
			C3.1,22.5,3.1,22.5,3.1,22.4C3.1,22.5,3.1,22.5,3.1,22.4C3.1,22.4,3.1,22.4,3.1,22.4C3.1,22.4,3.1,22.4,3.1,22.4 M29.7,22.5
			c0,0.1,0,0.1,0,0.1C29.7,22.6,29.8,22.6,29.7,22.5C29.8,22.6,29.8,22.5,29.7,22.5c0.1,0,0.1,0,0.1,0
			C29.8,22.4,29.7,22.4,29.7,22.5 M3.1,22.6C3.1,22.6,3.1,22.7,3.1,22.6C3.2,22.7,3.2,22.6,3.1,22.6C3.2,22.6,3.2,22.6,3.1,22.6
			C3.1,22.6,3.1,22.6,3.1,22.6 M29.5,22.7C29.5,22.8,29.6,22.8,29.5,22.7C29.6,22.8,29.6,22.8,29.5,22.7
			C29.6,22.7,29.6,22.7,29.5,22.7C29.6,22.7,29.5,22.7,29.5,22.7 M29.4,22.9C29.3,23,29.3,23,29.4,22.9c0,0.1,0.1,0,0.1-0.1
			C29.5,22.8,29.4,22.8,29.4,22.9 M3.3,23.1C3.3,23.2,3.3,23.2,3.3,23.1C3.4,23.2,3.4,23.2,3.3,23.1C3.4,23.1,3.3,23.1,3.3,23.1
			 M29.2,23.2C29.2,23.2,29.2,23.2,29.2,23.2C29.2,23.2,29.2,23.2,29.2,23.2C29.2,23.2,29.2,23.1,29.2,23.2
			C29.2,23.1,29.2,23.2,29.2,23.2 M3.4,23.3C3.4,23.4,3.4,23.4,3.4,23.3C3.4,23.4,3.4,23.3,3.4,23.3C3.4,23.3,3.4,23.3,3.4,23.3
			C3.4,23.3,3.4,23.3,3.4,23.3 M28.9,23.4C28.9,23.4,28.9,23.5,28.9,23.4C28.9,23.5,28.9,23.5,28.9,23.4c0.1,0,0.1,0,0.1,0
			c0,0,0,0,0,0C29.1,23.3,29,23.3,28.9,23.4 M3.4,23.4C3.4,23.5,3.5,23.5,3.4,23.4C3.5,23.5,3.5,23.5,3.4,23.4
			C3.5,23.4,3.5,23.4,3.4,23.4C3.5,23.4,3.4,23.4,3.4,23.4 M3.5,23.6C3.5,23.7,3.6,23.7,3.5,23.6C3.6,23.6,3.6,23.6,3.5,23.6
			C3.5,23.6,3.5,23.6,3.5,23.6 M3.6,23.8C3.6,23.8,3.6,23.9,3.6,23.8C3.7,23.9,3.7,23.8,3.6,23.8C3.7,23.8,3.7,23.8,3.6,23.8
			C3.6,23.8,3.6,23.8,3.6,23.8 M28.5,23.8C28.5,23.8,28.5,23.9,28.5,23.8c0,0.1-0.1,0.1-0.1,0.1c0,0-0.1,0-0.1,0.1
			c0,0,0,0.1-0.1,0.1c0,0-0.3,0.3-0.5,0.4c0,0-0.1,0.1-0.1,0.1c-0.1,0.1-0.1,0.1,0,0.1c0,0,0.2-0.1,0.2-0.1c0,0,0.1-0.1,0.1-0.1
			c0,0,0.1-0.1,0.2-0.2c0.1-0.1,0.2-0.2,0.2-0.2c0,0,0.1-0.1,0.1-0.1c0,0,0.2-0.1,0.2-0.2C28.6,23.8,28.6,23.8,28.5,23.8 M3.7,23.9
			C3.7,24,3.7,24,3.7,23.9C3.7,24,3.8,24,3.7,23.9C3.8,23.9,3.7,23.9,3.7,23.9C3.7,23.9,3.7,23.9,3.7,23.9 M3.8,24.2
			C3.8,24.2,3.8,24.2,3.8,24.2C3.9,24.2,3.9,24.1,3.8,24.2C3.9,24.1,3.8,24.1,3.8,24.2 M4.1,24.6C4.1,24.7,4.2,24.7,4.1,24.6
			C4.2,24.6,4.2,24.6,4.1,24.6C4.1,24.6,4.1,24.6,4.1,24.6 M4.2,24.7C4.2,24.7,4.2,24.8,4.2,24.7C4.2,24.8,4.3,24.7,4.2,24.7
			C4.3,24.7,4.2,24.7,4.2,24.7C4.2,24.7,4.2,24.7,4.2,24.7 M4.3,24.9C4.3,24.9,4.3,24.9,4.3,24.9c0.1,0.1,0.1,0,0.1,0
			C4.4,24.8,4.4,24.8,4.3,24.9C4.4,24.8,4.4,24.8,4.3,24.9C4.3,24.8,4.3,24.8,4.3,24.9 M27.1,25.1C27,25.1,27,25.1,27.1,25.1
			C27.1,25.1,27.1,25.1,27.1,25.1C27.1,25.1,27.1,25.1,27.1,25.1c0.1,0,0.1,0,0.1,0C27.2,25,27.1,25,27.1,25.1 M4.5,25.1
			c0,0,0.1,0.1,0.1,0.1C4.6,25.2,4.6,25.1,4.5,25.1C4.5,25.1,4.5,25.1,4.5,25.1 M23.5,25.2c-0.1,0-0.2,0.1-0.3,0.1
			c0,0-0.4,0.2-0.4,0.2c0,0,0,0,0,0s0,0,0,0c0,0-0.1,0-0.2,0.1c-0.2,0.1-0.8,0.4-0.8,0.4c0,0,0,0,0,0c0,0,0,0-0.1,0s-0.1,0-0.1,0
			c0,0,0,0-0.1,0s-0.1,0-0.1,0c-0.1,0-0.8,0.2-0.9,0.2c0,0-0.1,0-0.1,0c0,0-0.1,0-0.1,0c-0.1,0-0.2,0-0.2,0c-0.1,0-0.2,0-0.3,0
			c-0.2,0-0.4,0.1-0.4,0.1c0,0.1-0.2,0.3-0.2,0.3c0,0-0.1,0-0.1,0.1c-0.1,0.1-1.5,0.1-1.7,0c-0.2-0.1-0.3-0.2-0.4-0.5l0-0.1
			l-0.1,0.1c-0.1,0.1-0.1,0.6,0,0.7c0.1,0.3,0.4,0.4,1.2,0.3c0.8,0,1-0.1,1.1-0.4c0-0.1,0-0.1,0.3-0.2c0.2,0,0.9-0.2,1-0.2
			c0,0,0.1,0,0.2-0.1c0.5-0.1,1.4-0.5,1.9-0.8c0.5-0.3,1.2-0.8,1.2-0.9C23.9,25.1,23.6,25.1,23.5,25.2 M26.8,25.3
			C26.8,25.3,26.8,25.3,26.8,25.3C26.9,25.3,26.9,25.3,26.8,25.3C26.9,25.3,26.9,25.3,26.8,25.3C26.8,25.3,26.8,25.3,26.8,25.3
			 M4.7,25.4c0,0,0.1,0.1,0.1,0.1c0,0,0,0,0-0.1C4.8,25.3,4.7,25.3,4.7,25.4 M26.6,25.4C26.6,25.4,26.5,25.5,26.6,25.4
			c-0.1,0.1-0.2,0.1-0.1,0.1C26.5,25.6,26.6,25.4,26.6,25.4C26.6,25.4,26.6,25.4,26.6,25.4C26.6,25.4,26.6,25.4,26.6,25.4
			 M26.2,25.7C26.2,25.7,26.2,25.7,26.2,25.7C26.3,25.7,26.3,25.7,26.2,25.7C26.3,25.7,26.3,25.7,26.2,25.7
			C26.2,25.7,26.2,25.7,26.2,25.7 M5.2,25.8c0,0,0.2,0.2,0.2,0.2c0.1,0,0,0-0.1-0.1C5.3,25.8,5.2,25.7,5.2,25.8 M26,25.8
			C25.9,25.9,25.9,25.9,26,25.8c0,0.1,0.1,0,0.1,0C26.1,25.8,26,25.8,26,25.8 M25.7,26C25.7,26,25.7,26,25.7,26
			c-0.1,0-0.1,0.1-0.1,0.1C25.6,26,25.6,26.1,25.7,26C25.7,26.1,25.7,26,25.7,26C25.7,26,25.7,26,25.7,26C25.8,26,25.8,26,25.7,26
			C25.8,25.9,25.8,25.9,25.7,26 M25.4,26.2C25.4,26.2,25.5,26.2,25.4,26.2C25.5,26.2,25.5,26.2,25.4,26.2
			C25.5,26.1,25.5,26.1,25.4,26.2C25.5,26.1,25.4,26.1,25.4,26.2 M25.1,26.4C25.1,26.4,25.1,26.4,25.1,26.4
			C25.2,26.4,25.2,26.3,25.1,26.4C25.1,26.3,25.1,26.3,25.1,26.4 M5.9,26.4c0,0,0.1,0.1,0.1,0.1C6.1,26.5,6,26.4,5.9,26.4
			C5.9,26.4,5.9,26.4,5.9,26.4 M6.2,26.6C6.2,26.6,6.2,26.6,6.2,26.6C6.3,26.6,6.3,26.6,6.2,26.6C6.2,26.6,6.2,26.6,6.2,26.6
			C6.2,26.6,6.2,26.6,6.2,26.6 M24.6,26.6C24.6,26.6,24.6,26.6,24.6,26.6C24.7,26.6,24.7,26.6,24.6,26.6
			C24.7,26.6,24.7,26.6,24.6,26.6C24.7,26.6,24.6,26.6,24.6,26.6 M24.4,26.7C24.4,26.7,24.5,26.7,24.4,26.7
			C24.5,26.7,24.5,26.7,24.4,26.7C24.5,26.7,24.5,26.7,24.4,26.7C24.5,26.7,24.4,26.7,24.4,26.7 M6.4,26.7c0,0,0.1,0.1,0.1,0.1
			C6.6,26.8,6.6,26.8,6.4,26.7C6.5,26.7,6.5,26.7,6.4,26.7 M24.3,26.8C24.3,26.8,24.3,26.8,24.3,26.8C24.4,26.8,24.4,26.8,24.3,26.8
			C24.4,26.7,24.4,26.7,24.3,26.8C24.3,26.7,24.3,26.7,24.3,26.8 M24.1,26.9C24.1,26.9,24.1,26.9,24.1,26.9
			C24.2,26.9,24.2,26.9,24.1,26.9C24.2,26.8,24.2,26.8,24.1,26.9C24.1,26.8,24.1,26.8,24.1,26.9 M23.9,26.9
			C23.8,27,23.9,27,23.9,26.9C23.9,27,24,27,23.9,26.9C23.9,26.9,23.9,26.9,23.9,26.9 M6.9,27C6.9,27,6.9,27.1,6.9,27
			C6.9,27.1,6.9,27,6.9,27C6.9,27,6.9,27,6.9,27C6.9,27,6.9,27,6.9,27 M23.6,27.1C23.6,27.1,23.6,27.1,23.6,27.1
			C23.7,27.1,23.7,27.1,23.6,27.1C23.7,27.1,23.7,27.1,23.6,27.1C23.6,27.1,23.6,27.1,23.6,27.1 M23.5,27.1
			C23.5,27.2,23.5,27.2,23.5,27.1C23.6,27.2,23.6,27.2,23.5,27.1C23.6,27.1,23.6,27.1,23.5,27.1C23.5,27.1,23.5,27.1,23.5,27.1
			 M23.4,27.2C23.4,27.2,23.4,27.2,23.4,27.2C23.4,27.2,23.5,27.2,23.4,27.2C23.5,27.2,23.4,27.2,23.4,27.2
			C23.4,27.2,23.4,27.2,23.4,27.2 M23.1,27.3C23.1,27.3,23.1,27.3,23.1,27.3C23.2,27.3,23.2,27.3,23.1,27.3
			C23.2,27.3,23.2,27.3,23.1,27.3 M7.7,27.4C7.6,27.5,7.7,27.5,7.7,27.4C7.7,27.5,7.8,27.5,7.7,27.4c0.1,0.1,0.1,0.1,0.1,0.1
			c0,0,0,0,0,0s0,0,0,0C7.8,27.5,7.8,27.5,7.7,27.4C7.7,27.4,7.7,27.4,7.7,27.4 M22.7,27.5C22.7,27.5,22.7,27.5,22.7,27.5
			C22.8,27.5,22.8,27.5,22.7,27.5C22.8,27.5,22.8,27.4,22.7,27.5C22.7,27.4,22.7,27.5,22.7,27.5 M22.4,27.6
			C22.4,27.6,22.4,27.6,22.4,27.6C22.5,27.6,22.5,27.6,22.4,27.6C22.5,27.6,22.5,27.5,22.4,27.6C22.5,27.5,22.4,27.6,22.4,27.6
			 M8,27.6C8,27.7,8.1,27.7,8,27.6C8.1,27.7,8.1,27.7,8,27.6C8.1,27.6,8.1,27.6,8,27.6C8.1,27.6,8,27.6,8,27.6 M22.3,27.6
			C22.3,27.7,22.3,27.7,22.3,27.6C22.3,27.7,22.3,27.7,22.3,27.6C22.3,27.6,22.3,27.6,22.3,27.6C22.3,27.6,22.3,27.6,22.3,27.6
			 M8.2,27.7C8.1,27.7,8.2,27.7,8.2,27.7C8.2,27.7,8.2,27.7,8.2,27.7C8.2,27.7,8.2,27.7,8.2,27.7 M22.1,27.7
			C22.1,27.7,22.1,27.7,22.1,27.7C22.2,27.7,22.2,27.7,22.1,27.7C22.2,27.7,22.2,27.6,22.1,27.7 M8.3,27.8
			C8.3,27.8,8.3,27.8,8.3,27.8C8.3,27.8,8.4,27.8,8.3,27.8C8.4,27.7,8.3,27.7,8.3,27.8C8.3,27.7,8.3,27.7,8.3,27.8 M21.6,27.9
			C21.6,27.9,21.7,27.9,21.6,27.9C21.7,27.9,21.7,27.9,21.6,27.9C21.7,27.8,21.7,27.8,21.6,27.9C21.7,27.8,21.6,27.8,21.6,27.9
			 M8.7,27.9C8.6,27.9,8.7,27.9,8.7,27.9C8.8,27.9,8.8,27.9,8.7,27.9C8.8,27.9,8.7,27.9,8.7,27.9 M21.5,27.9
			C21.4,27.9,21.5,27.9,21.5,27.9c0.1,0.1,0.1,0,0.1,0C21.6,27.9,21.5,27.9,21.5,27.9 M8.9,27.9C8.8,28,8.8,28,8.9,27.9
			C8.9,28,9,28,8.9,27.9C8.9,27.9,8.9,27.9,8.9,27.9 M9,28C9,28,9,28,9,28C9.1,28,9.1,28,9,28C9.1,28,9.1,28,9,28C9,28,9,28,9,28
			 M21.1,28C21.1,28,21.2,28,21.1,28C21.2,28,21.2,28,21.1,28C21.2,28,21.2,28,21.1,28C21.2,28,21.1,28,21.1,28 M20.9,28
			C20.9,28,20.9,28.1,20.9,28c0,0.1,0.1,0.1,0.1,0C21.1,28,21,28,20.9,28 M9.2,28.1C9.2,28.1,9.2,28.1,9.2,28.1
			C9.3,28.1,9.3,28.1,9.2,28.1C9.3,28.1,9.2,28,9.2,28.1C9.2,28,9.2,28.1,9.2,28.1 M9.5,28.2C9.4,28.2,9.5,28.2,9.5,28.2
			C9.6,28.2,9.6,28.2,9.5,28.2C9.6,28.2,9.5,28.1,9.5,28.2 M20.6,28.2C20.5,28.2,20.5,28.2,20.6,28.2C20.6,28.2,20.7,28.2,20.6,28.2
			C20.6,28.2,20.6,28.1,20.6,28.2 M20.3,28.2C20.3,28.3,20.3,28.3,20.3,28.2C20.4,28.3,20.4,28.3,20.3,28.2
			C20.4,28.2,20.4,28.2,20.3,28.2C20.3,28.2,20.3,28.2,20.3,28.2 M20.2,28.3C20.1,28.3,20.1,28.3,20.2,28.3
			C20.2,28.3,20.2,28.3,20.2,28.3C20.2,28.3,20.2,28.3,20.2,28.3 M9.8,28.3C9.8,28.3,9.9,28.3,9.8,28.3C9.9,28.3,9.9,28.3,9.8,28.3
			C9.9,28.3,9.9,28.3,9.8,28.3C9.9,28.3,9.8,28.3,9.8,28.3 M10.1,28.3C10,28.3,10,28.4,10.1,28.3c0.1,0.1,0.1,0,0.1,0
			C10.2,28.3,10.1,28.3,10.1,28.3 M19.9,28.3C19.8,28.3,19.9,28.4,19.9,28.3c0.1,0.1,0.1,0.1,0.1,0C20,28.3,20,28.3,19.9,28.3
			 M10.3,28.4C10.3,28.4,10.3,28.4,10.3,28.4C10.4,28.4,10.4,28.4,10.3,28.4C10.4,28.4,10.4,28.4,10.3,28.4
			C10.3,28.4,10.3,28.4,10.3,28.4 M10.5,28.5C10.5,28.5,10.5,28.5,10.5,28.5C10.5,28.5,10.5,28.5,10.5,28.5
			C10.5,28.4,10.5,28.4,10.5,28.5C10.5,28.4,10.5,28.4,10.5,28.5 M19.5,28.5C19.5,28.5,19.5,28.5,19.5,28.5
			C19.5,28.5,19.5,28.5,19.5,28.5C19.5,28.4,19.5,28.4,19.5,28.5C19.5,28.4,19.5,28.4,19.5,28.5 M10.7,28.5
			C10.7,28.5,10.7,28.5,10.7,28.5c0.1,0.1,0.1,0,0.1,0C10.8,28.5,10.8,28.5,10.7,28.5 M19.1,28.5C19.1,28.5,19.1,28.5,19.1,28.5
			C19.2,28.5,19.2,28.5,19.1,28.5C19.2,28.5,19.2,28.5,19.1,28.5 M11,28.6C11,28.6,11,28.6,11,28.6C11.1,28.6,11.1,28.6,11,28.6
			C11.1,28.6,11,28.5,11,28.6C11,28.5,11,28.6,11,28.6 M18.9,28.6C18.9,28.6,18.9,28.6,18.9,28.6C19,28.6,19,28.6,18.9,28.6
			C19,28.6,19,28.5,18.9,28.6C18.9,28.5,18.9,28.6,18.9,28.6 M11.2,28.6c0,0,0,0.1,0.1,0.1c0.1,0,0.1,0,0,0
			C11.4,28.6,11.3,28.6,11.2,28.6C11.3,28.6,11.2,28.6,11.2,28.6 M18.6,28.6C18.5,28.7,18.5,28.7,18.6,28.6c0.1,0,0.1,0,0.2,0
			C18.8,28.6,18.7,28.6,18.6,28.6 M11.6,28.7C11.6,28.7,11.6,28.7,11.6,28.7C11.6,28.7,11.7,28.7,11.6,28.7
			C11.7,28.6,11.6,28.6,11.6,28.7 M18.2,28.7C18.2,28.7,18.2,28.7,18.2,28.7C18.3,28.7,18.3,28.7,18.2,28.7
			C18.3,28.7,18.3,28.6,18.2,28.7C18.2,28.6,18.2,28.7,18.2,28.7 M11.8,28.7C11.8,28.8,11.9,28.8,11.8,28.7
			C11.9,28.8,11.9,28.8,11.8,28.7C11.9,28.7,11.9,28.7,11.8,28.7C11.9,28.7,11.8,28.7,11.8,28.7 M18,28.7C18,28.8,18,28.8,18,28.7
			C18,28.8,18,28.8,18,28.7C18,28.7,18,28.7,18,28.7C18,28.7,18,28.7,18,28.7 M12.1,28.8c0,0,0,0,0.2,0c0.2,0,0.2-0.1,0-0.1
			C12.2,28.8,12.1,28.8,12.1,28.8 M17.5,28.8C17.4,28.8,17.4,28.8,17.5,28.8c0.2,0.1,0.2,0.1,0.2,0C17.7,28.8,17.5,28.7,17.5,28.8
			 M12.7,28.8C12.7,28.9,12.7,28.9,12.7,28.8C12.8,28.9,12.8,28.9,12.7,28.8C12.8,28.8,12.7,28.8,12.7,28.8 M17,28.8
			C17,28.8,17,28.9,17,28.8c0.1,0.1,0.1,0,0.1,0C17.1,28.8,17.1,28.8,17,28.8 M13.2,28.9C13.1,28.9,13.1,28.9,13.2,28.9
			c0.2,0.1,0.2,0.1,0.1,0C13.2,28.9,13.2,28.8,13.2,28.9 M16.5,28.9C16.5,28.9,16.5,28.9,16.5,28.9c0.1,0.1,0.2,0.1,0.1,0
			C16.7,28.9,16.6,28.8,16.5,28.9"/>
	</g>
</g>
</svg>
